Tiejili-Regular.glyphspackage
{
glyphname = exclam;
layers = (
{
layerId = master01;
shapes = (
{
closed = 1;
nodes = (
(134,779,l),
(330,801,l),
(210,192,l),
(154,192,l)
);
},
{
closed = 1;
nodes = (
(301,126,l),
(181,-21,l),
(83,164,l)
);
}
);
userData = {
public.verticalOrigin = "880";
};
vertWidth = 1000;
width = 400;
}
);
unicode = 33;
}
{
glyphname = numbersign;
layers = (
{
layerId = master01;
shapes = (
{
closed = 1;
nodes = (
(381,220,l),
(207,198,l),
(146,-13,l),
(136,-13,l),
(165,192,l),
(22,174,l),
(22,346,l),
(185,329,l),
(212,523,l),
(71,542,l),
(71,562,l),
(220,580,l),
(249,780,l),
(375,780,l),
(320,592,l),
(481,611,l),
(530,800,l),
(542,800,l),
(521,616,l),
(667,633,l),
(667,461,l),
(506,483,l),
(485,300,l),
(678,281,l),
(678,259,l),
(478,233,l),
(452,0,l),
(324,0,l)
);
},
{
closed = 1;
nodes = (
(297,512,l),
(243,324,l),
(403,308,l),
(450,490,l)
);
}
);
userData = {
public.verticalOrigin = "880";
};
vertWidth = 1000;
width = 690;
}
);
unicode = 35;
}
{
glyphname = dollar;
layers = (
{
layerId = master01;
shapes = (
{
closed = 1;
nodes = (
(368,-140,l),
(376,0,l),
(514,5,o),
(622,81,o),
(632,206,cs),
(632,214,ls),
(632,309,o),
(510,381,o),
(399,444,c),
(412,671,l),
(473,656,o),
(542,623,o),
(613,565,c),
(619,570,l),
(568,681,o),
(496,746,o),
(417,770,c),
(421,840,l),
(285,840,l),
(289,775,l),
(186,757,o),
(94,691,o),
(74,578,cs),
(73,573,o),
(73,568,o),
(73,563,cs),
(73,474,o),
(203,395,o),
(317,328,c),
(330,119,l),
(255,131,o),
(130,179,o),
(39,251,c),
(32,244,l),
(98,119,o),
(234,17,o),
(337,2,c),
(346,-140,l)
);
},
{
closed = 1;
nodes = (
(478,192,ls),
(472,132,o),
(434,119,o),
(382,116,c),
(391,283,l),
(442,250,o),
(478,221,o),
(478,195,cs)
);
},
{
closed = 1;
nodes = (
(306,500,l),
(259,532,o),
(226,562,o),
(226,593,cs),
(226,596,ls),
(228,636,o),
(252,664,o),
(295,675,c)
);
}
);
vertWidth = 1000;
width = 690;
}
);
unicode = 36;
}
{
glyphname = percent;
layers = (
{
layerId = master01;
shapes = (
{
closed = 1;
nodes = (
(687,802,l),
(855,772,l),
(224,-37,l),
(202,-23,l)
);
},
{
closed = 1;
nodes = (
(205,361,o),
(138,398,o),
(85,460,o),
(53,539,o),
(53,581,q),
(53,641,o),
(107,741,o),
(193,801,o),
(240,801,q),
(275,801,o),
(342,765,o),
(395,703,o),
(427,624,o),
(427,581,q),
(427,538,o),
(392,459,o),
(335,397,o),
(270,361,o),
(240,361,q)
);
},
{
closed = 1;
nodes = (
(256,418,o),
(282,468,o),
(298,543,o),
(298,581,q),
(298,618,o),
(282,693,o),
(256,743,o),
(240,743,q),
(224,743,o),
(198,693,o),
(183,618,o),
(183,581,q),
(183,543,o),
(199,468,o),
(225,418,o),
(240,418,q)
);
},
{
closed = 1;
nodes = (
(722,-20,o),
(655,16,o),
(602,77,o),
(570,156,o),
(570,199,q),
(570,242,o),
(605,321,o),
(662,383,o),
(727,419,o),
(757,419,q),
(792,419,o),
(859,382,o),
(912,320,o),
(944,241,o),
(944,199,q),
(944,140,o),
(890,40,o),
(804,-20,o),
(757,-20,q)
);
},
{
closed = 1;
nodes = (
(773,37,o),
(799,87,o),
(814,162,o),
(814,199,q),
(814,237,o),
(798,312,o),
(773,362,o),
(757,362,q),
(742,362,o),
(715,312,o),
(699,237,o),
(699,199,q),
(699,162,o),
(715,87,o),
(742,37,o),
(757,37,q)
);
}
);
userData = {
public.verticalOrigin = "880";
};
vertWidth = 1000;
width = 1000;
}
);
unicode = 37;
}
{
glyphname = ampersand;
layers = (
{
layerId = master01;
shapes = (
{
closed = 1;
nodes = (
(699,12,o),
(595,69,o),
(545,100,q),
(493,42,o),
(375,-20,o),
(311,-20,q),
(240,-20,o),
(138,19,o),
(74,81,o),
(43,155,o),
(43,191,q),
(43,200,o),
(46,218,o),
(47,226,q),
(61,287,o),
(141,384,o),
(191,424,q),
(158,472,o),
(121,562,o),
(121,601,q),
(121,632,o),
(153,702,o),
(213,763,o),
(295,801,o),
(345,801,q),
(392,801,o),
(479,755,o),
(535,672,o),
(535,617,q),
(535,576,o),
(487,502,o),
(410,434,o),
(368,400,q),
(394,366,o),
(458,291,o),
(495,251,q),
(509,282,o),
(537,354,o),
(549,395,q),
(685,330,l),
(664,280,o),
(615,193,o),
(589,155,q),
(628,118,o),
(712,38,o),
(758,-3,q),
(751,-11,l)
);
},
{
closed = 1;
nodes = (
(357,541,o),
(438,612,o),
(438,650,q),
(438,693,o),
(375,737,o),
(337,737,q),
(320,737,o),
(287,700,o),
(266,645,o),
(266,617,q),
(266,568,o),
(301,503,q)
);
},
{
closed = 1;
nodes = (
(350,242,o),
(274,322,q),
(244,294,o),
(201,237,o),
(194,205,q),
(191,192,o),
(191,176,q),
(191,148,o),
(215,95,o),
(269,61,o),
(313,61,q),
(342,61,o),
(413,114,o),
(449,168,q)
);
}
);
userData = {
public.verticalOrigin = "880";
};
vertWidth = 1000;
width = 756;
}
);
unicode = 38;
}
{
glyphname = quotesingle;
layers = (
{
layerId = master01;
shapes = (
{
closed = 1;
nodes = (
(82,780,l),
(263,780,l),
(174,468,l),
(164,468,l)
);
}
);
userData = {
public.verticalOrigin = "880";
};
vertWidth = 1000;
width = 345;
}
);
unicode = 39;
}
{
glyphname = parenleft;
layers = (
{
layerId = master01;
shapes = (
{
closed = 1;
nodes = (
(277,-99,o),
(171,38,o),
(97,174,o),
(58,295,o),
(58,340,q),
(58,385,o),
(97,507,o),
(171,643,o),
(277,781,o),
(344,842,q),
(354,836,l),
(308,746,o),
(243,563,o),
(210,401,o),
(210,341,q),
(210,280,o),
(243,118,o),
(308,-64,o),
(354,-155,q),
(344,-160,l)
);
}
);
userData = {
public.verticalOrigin = "880";
};
vertWidth = 1000;
width = 400;
}
);
unicode = 40;
}
{
glyphname = parenright;
layers = (
{
layerId = master01;
shapes = (
{
closed = 1;
nodes = (
(92,-64,o),
(156,118,o),
(189,280,o),
(189,341,q),
(189,401,o),
(156,563,o),
(92,746,o),
(45,836,q),
(55,842,l),
(122,781,o),
(228,643,o),
(302,507,o),
(341,385,o),
(341,340,q),
(341,295,o),
(302,174,o),
(228,38,o),
(122,-99,o),
(55,-160,q),
(45,-154,l)
);
}
);
userData = {
public.verticalOrigin = "880";
};
vertWidth = 1000;
width = 400;
}
);
unicode = 41;
}
{
glyphname = asterisk;
layers = (
{
layerId = master01;
shapes = (
{
closed = 1;
nodes = (
(250,494,l),
(147,406,l),
(137,411,l),
(163,544,l),
(36,589,l),
(36,600,l),
(163,646,l),
(137,778,l),
(147,784,l),
(250,696,l),
(352,784,l),
(362,778,l),
(337,646,l),
(464,600,l),
(464,589,l),
(337,544,l),
(362,411,l),
(352,406,l)
);
}
);
userData = {
public.verticalOrigin = "880";
};
vertWidth = 1000;
width = 500;
}
);
unicode = 42;
}
{
glyphname = plus;
layers = (
{
layerId = master01;
shapes = (
{
closed = 1;
nodes = (
(353,-27,l),
(339,-27,l),
(262,205,l),
(24,278,l),
(24,288,l),
(262,356,l),
(339,585,l),
(353,585,l),
(421,356,l),
(665,288,l),
(665,278,l),
(421,205,l)
);
}
);
userData = {
public.verticalOrigin = "880";
};
vertWidth = 1000;
width = 690;
}
);
unicode = 43;
}
{
glyphname = comma;
kernLeft = comma;
layers = (
{
layerId = master01;
shapes = (
{
closed = 1;
nodes = (
(187,2,l),
(68,40,l),
(174,197,l),
(312,65,l),
(135,-155,l),
(127,-149,l)
);
}
);
userData = {
public.verticalOrigin = "880";
};
vertWidth = 1000;
width = 345;
}
);
unicode = 44;
}
{
glyphname = hyphen;
layers = (
{
layerId = master01;
shapes = (
{
closed = 1;
nodes = (
(48,375,l),
(462,283,l),
(462,276,l),
(48,178,l)
);
}
);
userData = {
public.verticalOrigin = "880";
};
vertWidth = 1000;
width = 488;
}
);
unicode = (45,8209);
}
{
glyphname = period;
kernLeft = period;
layers = (
{
layerId = master01;
shapes = (
{
closed = 1;
nodes = (
(54,182,l),
(297,140,l),
(134,-23,l)
);
}
);
userData = {
public.verticalOrigin = "880";
};
vertWidth = 1000;
width = 345;
}
);
unicode = 46;
}
{
glyphname = slash;
layers = (
{
layerId = master01;
shapes = (
{
closed = 1;
nodes = (
(24,-58,l),
(411,793,l),
(272,825,l),
(11,-58,l)
);
}
);
userData = {
public.verticalOrigin = "880";
};
vertWidth = 1000;
width = 400;
}
);
unicode = 47;
}
{
glyphname = zero;
layers = (
{
layerId = master01;
shapes = (
{
closed = 1;
nodes = (
(290,-20,o),
(182,34,o),
(94,138,o),
(42,292,o),
(42,391,q),
(42,480,o),
(94,629,o),
(182,740,o),
(290,801,o),
(345,801,q),
(401,801,o),
(509,741,o),
(596,631,o),
(649,481,o),
(649,391,q),
(649,297,o),
(596,145,o),
(509,37,o),
(401,-20,o),
(345,-20,q)
);
},
{
closed = 1;
nodes = (
(375,52,o),
(426,109,o),
(465,206,o),
(486,327,o),
(486,391,q),
(486,450,o),
(465,569,o),
(427,667,o),
(376,727,o),
(345,727,q),
(314,727,o),
(263,668,o),
(225,570,o),
(204,451,o),
(204,391,q),
(204,327,o),
(225,206,o),
(263,109,o),
(315,52,o),
(345,52,q)
);
}
);
userData = {
public.verticalOrigin = "880";
};
vertWidth = 1000;
width = 690;
}
);
unicode = 48;
}
{
glyphname = two;
layers = (
{
layerId = master01;
shapes = (
{
closed = 1;
nodes = (
(53,0,o),
(98,50,o),
(171,135,o),
(260,240,o),
(348,353,o),
(421,458,o),
(466,543,o),
(466,568,q),
(466,622,o),
(415,679,o),
(368,679,q),
(315,679,o),
(160,632,o),
(83,576,q),
(75,583,l),
(157,700,o),
(306,801,o),
(382,801,q),
(431,801,o),
(521,769,o),
(592,711,o),
(633,633,o),
(633,588,q),
(633,552,o),
(586,459,o),
(507,355,o),
(411,252,o),
(312,158,o),
(225,85,o),
(195,64,q),
(636,166,l),
(636,0,l),
(53,0,l)
);
}
);
userData = {
public.verticalOrigin = "880";
};
vertWidth = 1000;
width = 690;
}
);
unicode = 50;
}
{
glyphname = three;
layers = (
{
layerId = master01;
shapes = (
{
closed = 1;
nodes = (
(206,47,o),
(387,127,o),
(468,208,o),
(468,253,q),
(468,281,o),
(408,340,o),
(295,382,o),
(215,382,q),
(214,394,l),
(290,432,o),
(390,510,o),
(440,575,o),
(440,591,q),
(440,614,o),
(417,659,o),
(379,689,o),
(355,689,q),
(317,689,o),
(238,676,o),
(143,643,o),
(78,614,q),
(72,622,l),
(149,711,o),
(292,801,o),
(366,801,q),
(423,801,o),
(511,764,o),
(572,707,o),
(603,642,o),
(603,615,q),
(603,612,o),
(602,606,o),
(602,604,q),
(600,584,o),
(561,522,o),
(479,455,o),
(409,425,q),
(483,412,o),
(587,355,o),
(643,282,o),
(643,246,q),
(643,199,o),
(588,113,o),
(457,42,o),
(230,-5,o),
(57,-13,q),
(54,0,l)
);
}
);
userData = {
public.verticalOrigin = "880";
};
vertWidth = 1000;
width = 690;
}
);
unicode = 51;
}
{
glyphname = four;
layers = (
{
layerId = master01;
shapes = (
{
closed = 1;
nodes = (
(526,0,l),
(422,0,l),
(417,116,l),
(17,116,l),
(321,802,l),
(493,778,l),
(150,193,l),
(412,231,l),
(396,586,l),
(552,586,l),
(537,249,l),
(658,267,l),
(658,116,l),
(531,116,l)
);
}
);
userData = {
public.verticalOrigin = "880";
};
vertWidth = 1000;
width = 690;
}
);
unicode = 52;
}
{
glyphname = five;
layers = (
{
layerId = master01;
shapes = (
{
closed = 1;
nodes = (
(229,45,o),
(382,128,o),
(451,208,o),
(451,247,q),
(451,272,o),
(371,333,o),
(208,384,o),
(82,393,q),
(151,792,l),
(583,764,l),
(583,751,l),
(278,663,l),
(235,458,l),
(423,427,o),
(622,323,o),
(622,240,q),
(622,195,o),
(573,112,o),
(456,43,o),
(256,-4,o),
(106,-13,q),
(103,0,l)
);
}
);
userData = {
public.verticalOrigin = "880";
};
vertWidth = 1000;
width = 690;
}
);
unicode = 53;
}
{
glyphname = six;
layers = (
{
layerId = master01;
shapes = (
{
closed = 1;
nodes = (
(423,729,o),
(317,585,o),
(244,444,o),
(217,379,q),
(255,421,o),
(372,469,o),
(428,469,q),
(467,469,o),
(546,433,o),
(610,370,o),
(649,286,o),
(649,238,q),
(649,188,o),
(604,95,o),
(523,22,o),
(417,-20,o),
(357,-20,q),
(288,-20,o),
(174,31,o),
(91,115,o),
(46,218,o),
(46,269,q),
(46,329,o),
(96,458,o),
(183,582,o),
(296,693,o),
(425,778,o),
(491,803,q),
(499,796,l)
);
},
{
closed = 1;
nodes = (
(211,313,o),
(210,304,o),
(210,299,q),
(210,249,o),
(238,159,o),
(286,89,o),
(343,49,o),
(371,49,q),
(403,49,o),
(461,96,o),
(498,174,o),
(498,220,q),
(498,303,o),
(434,381,o),
(387,381,q),
(332,381,o),
(240,349,o),
(211,317,q)
);
}
);
userData = {
public.verticalOrigin = "880";
};
vertWidth = 1000;
width = 690;
}
);
unicode = 54;
}
{
glyphname = seven;
layers = (
{
layerId = master01;
shapes = (
{
closed = 1;
nodes = (
(454,712,l),
(106,630,l),
(76,780,l),
(639,754,l),
(343,-13,l),
(231,0,l)
);
}
);
userData = {
public.verticalOrigin = "880";
};
vertWidth = 1000;
width = 690;
}
);
unicode = 55;
}
{
glyphname = eight;
layers = (
{
layerId = master01;
shapes = (
{
closed = 1;
nodes = (
(550,562,o),
(538,579,o),
(532,587,q),
(493,553,o),
(416,483,o),
(381,450,q),
(428,428,o),
(524,376,o),
(604,316,o),
(653,247,o),
(653,208,q),
(653,160,o),
(605,77,o),
(521,15,o),
(415,-20,o),
(357,-20,q),
(296,-20,o),
(184,12,o),
(96,69,o),
(46,146,o),
(46,191,q),
(46,231,o),
(141,353,o),
(220,421,q),
(175,447,o),
(99,498,o),
(79,523,q),
(66,539,o),
(66,566,q),
(66,599,o),
(107,680,o),
(180,753,o),
(274,800,o),
(328,800,q),
(381,800,o),
(495,768,o),
(602,708,o),
(644,666,q),
(555,553,l)
);
},
{
closed = 1;
nodes = (
(307,741,o),
(258,708,o),
(221,656,o),
(200,599,o),
(200,574,q),
(200,540,o),
(219,527,q),
(230,519,o),
(272,498,o),
(300,486,q),
(346,521,o),
(449,591,o),
(504,623,q),
(462,673,o),
(371,738,o),
(342,741,q),
(335,741,l)
);
},
{
closed = 1;
nodes = (
(259,321,o),
(201,229,o),
(201,191,q),
(201,147,o),
(251,81,o),
(324,45,o),
(357,45,q),
(379,45,o),
(427,68,o),
(469,106,o),
(496,152,o),
(496,174,q),
(496,213,o),
(442,282,o),
(355,345,o),
(305,373,q)
);
}
);
userData = {
public.verticalOrigin = "880";
};
vertWidth = 1000;
width = 690;
}
);
unicode = 56;
}
{
glyphname = nine;
layers = (
{
layerId = master01;
shapes = (
{
closed = 1;
nodes = (
(201,-22,l),
(421,59,o),
(646,310,o),
(646,511,cs),
(646,648,o),
(519,801,o),
(335,801,cs),
(174,801,o),
(43,676,o),
(43,542,cs),
(43,414,o),
(159,311,o),
(264,311,cs),
(339,311,o),
(425,345,o),
(475,401,c),
(421,272,o),
(345,118,o),
(193,-15,c)
);
},
{
closed = 1;
nodes = (
(443,421,o),
(379,399,o),
(305,399,cs),
(243,399,o),
(194,449,o),
(194,560,cs),
(194,652,o),
(257,731,o),
(321,731,cs),
(397,731,o),
(482,614,o),
(482,481,cs),
(482,475,o),
(481,469,o),
(481,463,c)
);
}
);
userData = {
public.verticalOrigin = "880";
};
vertWidth = 1000;
width = 690;
}
);
unicode = 57;
}
{
glyphname = colon;
layers = (
{
layerId = master01;
shapes = (
{
closed = 1;
nodes = (
(329,528,l),
(166,364,l),
(86,570,l)
);
},
{
closed = 1;
nodes = (
(86,184,l),
(329,142,l),
(166,-21,l)
);
}
);
userData = {
public.verticalOrigin = "880";
};
vertWidth = 1000;
width = 400;
}
);
unicode = 58;
}
{
glyphname = less;
layers = (
{
layerId = master01;
shapes = (
{
closed = 1;
nodes = (
(62,279,l),
(576,601,l),
(584,594,l),
(285,278,l),
(584,-38,l),
(576,-44,l)
);
}
);
userData = {
public.verticalOrigin = "880";
};
vertWidth = 1000;
width = 690;
}
);
unicode = 60;
}
{
glyphname = equal;
layers = (
{
layerId = master01;
shapes = (
{
closed = 1;
nodes = (
(70,482,l),
(640,411,l),
(640,402,l),
(70,329,l)
);
},
{
closed = 1;
nodes = (
(70,236,l),
(640,165,l),
(640,156,l),
(70,83,l)
);
}
);
userData = {
public.verticalOrigin = "880";
};
vertWidth = 1000;
width = 690;
}
);
unicode = 61;
}
{
glyphname = greater;
layers = (
{
layerId = master01;
shapes = (
{
closed = 1;
nodes = (
(106,-37,l),
(405,278,l),
(106,594,l),
(114,601,l),
(628,279,l),
(114,-44,l)
);
}
);
userData = {
public.verticalOrigin = "880";
};
vertWidth = 1000;
width = 690;
}
);
unicode = 62;
}
{
glyphname = question;
layers = (
{
layerId = master01;
shapes = (
{
closed = 1;
nodes = (
(244,384,l),
(329,417,o),
(421,473,o),
(457,523,o),
(457,546,q),
(457,600,o),
(428,687,o),
(384,737,o),
(361,737,q),
(317,737,o),
(217,644,o),
(165,566,q),
(61,699,l),
(139,753,o),
(308,801,o),
(403,801,q),
(441,801,o),
(521,761,o),
(588,692,o),
(629,605,o),
(629,559,q),
(629,513,o),
(494,407,o),
(360,358,q),
(369,210,l),
(359,210,l)
);
},
{
closed = 1;
nodes = (
(441,126,l),
(321,-21,l),
(223,164,l)
);
}
);
userData = {
public.verticalOrigin = "880";
};
vertWidth = 1000;
width = 690;
}
);
unicode = 63;
}
{
glyphname = at;
layers = (
{
layerId = master01;
shapes = (
{
closed = 1;
nodes = (
(778,126,o),
(653,33,o),
(518,-20,o),
(451,-20,q),
(368,-20,o),
(221,43,o),
(108,155,o),
(44,305,o),
(44,391,q),
(44,474,o),
(114,622,o),
(234,736,o),
(386,801,o),
(468,801,q),
(555,801,o),
(697,741,o),
(800,639,o),
(856,511,o),
(856,444,q),
(856,402,o),
(822,301,o),
(762,210,o),
(686,152,o),
(644,152,q),
(598,152,o),
(545,192,o),
(531,225,q),
(505,199,o),
(423,150,o),
(376,150,q),
(300,150,o),
(223,234,o),
(223,323,q),
(223,379,o),
(253,488,o),
(307,576,o),
(384,629,o),
(430,629,q),
(453,629,o),
(491,619,o),
(504,611,q),
(503,632,l),
(649,632,l),
(638,303,l),
(638,297,l),
(638,235,o),
(665,235,q),
(687,235,o),
(723,298,o),
(744,395,o),
(744,444,q),
(744,494,o),
(707,598,o),
(636,686,o),
(533,740,o),
(468,740,q),
(408,740,o),
(297,680,o),
(208,580,o),
(156,455,o),
(156,390,q),
(156,321,o),
(206,201,o),
(290,109,o),
(396,57,o),
(452,57,q),
(523,57,o),
(658,96,o),
(776,159,o),
(823,194,q),
(829,185,l)
);
},
{
closed = 1;
nodes = (
(497,555,o),
(470,572,o),
(456,572,q),
(432,572,o),
(395,519,o),
(370,439,o),
(357,357,o),
(357,329,q),
(357,282,o),
(390,240,o),
(418,240,q),
(441,240,o),
(497,261,o),
(522,278,q),
(507,541,l)
);
}
);
userData = {
public.verticalOrigin = "880";
};
vertWidth = 1000;
width = 902;
}
);
unicode = 64;
}
{
glyphname = A;
kernLeft = A;
kernRight = A;
layers = (
{
anchors = (
{
name = top;
pos = (376,780);
}
);
layerId = master01;
shapes = (
{
closed = 1;
nodes = (
(750,2,l),
(430,803,l),
(272,779,l),
(-1,-11,l),
(14,-11,l),
(118,172,l),
(514,241,l),
(632,-11,l)
);
},
{
closed = 1;
nodes = (
(502,265,l),
(196,312,l),
(351,589,l)
);
}
);
userData = {
public.verticalOrigin = "880";
};
vertWidth = 1000;
width = 752;
}
);
unicode = 65;
}
{
glyphname = D;
layers = (
{
layerId = master01;
shapes = (
{
closed = 1;
nodes = (
(270,780,l),
(268,688,l),
(311,733,o),
(417,780,o),
(473,780,q),
(533,780,o),
(634,725,o),
(708,628,o),
(748,502,o),
(748,431,q),
(748,358,o),
(726,288,q),
(680,141,o),
(386,-13,o),
(125,-13,q),
(88,780,l)
);
},
{
closed = 1;
nodes = (
(400,91,o),
(548,221,o),
(566,282,q),
(582,337,o),
(582,401,q),
(582,468,o),
(548,590,o),
(487,670,o),
(448,675,q),
(427,678,o),
(407,678,q),
(372,678,o),
(302,661,o),
(267,642,q),
(254,43,l)
);
}
);
userData = {
public.verticalOrigin = "880";
};
vertWidth = 1000;
width = 805;
}
);
unicode = 68;
}
{
glyphname = G;
layers = (
{
layerId = master01;
shapes = (
{
closed = 1;
nodes = (
(451,-20,o),
(175,63,o),
(48,214,o),
(48,314,q),
(48,434,o),
(110,616,o),
(214,739,o),
(342,801,o),
(408,801,q),
(485,801,o),
(641,769,o),
(705,736,q),
(649,573,l),
(586,637,o),
(449,710,o),
(378,710,q),
(344,710,o),
(282,651,o),
(234,556,o),
(207,442,o),
(207,388,q),
(207,318,o),
(243,205,o),
(330,116,o),
(481,51,o),
(596,29,q),
(574,294,l),
(363,344,l),
(363,356,l),
(731,446,l),
(706,-20,l),
(676,-20,l)
);
}
);
userData = {
public.verticalOrigin = "880";
};
vertWidth = 1000;
width = 790;
}
);
unicode = 71;
}
{
glyphname = H;
layers = (
{
layerId = master01;
shapes = (
{
closed = 1;
nodes = (
(694,0,l),
(722,780,l),
(535,780,l),
(548,420,l),
(262,471,l),
(273,780,l),
(88,780,l),
(116,0,l),
(245,0,l),
(257,339,l),
(549,380,l),
(563,0,l)
);
}
);
userData = {
public.verticalOrigin = "880";
};
vertWidth = 1000;
width = 810;
}
);
unicode = 72;
}
{
glyphname = J;
layers = (
{
layerId = master01;
shapes = (
{
closed = 1;
nodes = (
(419,780,l),
(401,179,l),
(399,101,o),
(362,14,o),
(307,-20,o),
(277,-20,q),
(242,-20,o),
(147,25,o),
(54,99,o),
(20,142,q),
(25,152,l),
(66,133,o),
(150,109,o),
(221,98,o),
(239,98,q),
(256,98,o),
(274,126,o),
(274,169,q),
(274,177,o),
(274,195,o),
(273,205,q),
(235,780,l)
);
}
);
userData = {
public.verticalOrigin = "880";
};
vertWidth = 1000;
width = 515;
}
);
unicode = 74;
}
{
glyphname = L;
layers = (
{
layerId = master01;
shapes = (
{
closed = 1;
nodes = (
(88,780,l),
(273,780,l),
(245,147,l),
(604,93,l),
(603,80,l),
(116,-13,l)
);
}
);
userData = {
public.verticalOrigin = "880";
};
vertWidth = 1000;
width = 634;
}
);
unicode = 76;
}
{
glyphname = O;
layers = (
{
layerId = master01;
shapes = (
{
closed = 1;
nodes = (
(351,-20,o),
(226,37,o),
(116,145,o),
(48,297,o),
(48,392,q),
(48,466,o),
(93,593,o),
(169,693,o),
(263,764,o),
(362,801,o),
(408,801,q),
(453,801,o),
(552,763,o),
(645,692,o),
(721,592,o),
(765,466,o),
(765,392,q),
(765,297,o),
(697,145,o),
(589,37,o),
(465,-20,o),
(408,-20,q)
);
},
{
closed = 1;
nodes = (
(495,66,o),
(567,128,o),
(608,239,o),
(608,312,q),
(608,413,o),
(562,564,o),
(488,664,o),
(405,714,o),
(368,714,q),
(322,714,o),
(248,653,o),
(205,545,o),
(205,472,q),
(205,365,o),
(252,211,o),
(327,113,o),
(411,66,o),
(448,66,q)
);
}
);
userData = {
public.verticalOrigin = "880";
};
vertWidth = 1000;
width = 815;
}
);
unicode = 79;
}
{
glyphname = P;
kernRight = P;
layers = (
{
layerId = master01;
shapes = (
{
closed = 1;
nodes = (
(253,0,l),
(260,318,l),
(620,346,o),
(703,500,o),
(703,614,cs),
(703,701,o),
(618,780,o),
(458,780,cs),
(404,780,o),
(341,771,o),
(269,750,c),
(270,780,l),
(88,780,l),
(125,0,l)
);
},
{
closed = 1;
nodes = (
(268,703,l),
(304,709,o),
(336,711,o),
(364,711,cs),
(483,711,o),
(528,665,o),
(528,611,cs),
(528,533,o),
(479,380,o),
(260,338,c)
);
}
);
userData = {
public.verticalOrigin = "880";
};
vertWidth = 1000;
width = 712;
}
);
unicode = 80;
}
{
glyphname = Q;
layers = (
{
layerId = master01;
shapes = (
{
closed = 1;
nodes = (
(718,-143,o),
(684,-111,o),
(631,-62,o),
(572,-7,o),
(546,17,q),
(474,-20,o),
(408,-20,q),
(351,-20,o),
(226,37,o),
(116,145,o),
(48,297,o),
(48,392,q),
(48,466,o),
(93,593,o),
(169,693,o),
(263,764,o),
(362,801,o),
(408,801,q),
(453,801,o),
(552,763,o),
(645,692,o),
(721,592,o),
(765,466,o),
(765,392,q),
(765,287,o),
(682,122,o),
(620,69,q),
(728,-139,l),
(718,-143,l)
);
},
{
closed = 1;
nodes = (
(508,288,l),
(576,156,l),
(591,187,o),
(608,266,o),
(608,312,q),
(608,413,o),
(562,564,o),
(488,664,o),
(405,714,o),
(368,714,q),
(322,714,o),
(248,653,o),
(205,545,o),
(205,472,q),
(205,365,o),
(252,211,o),
(327,113,o),
(411,66,o),
(448,66,q),
(468,66,o),
(486,72,q),
(356,194,l)
);
}
);
userData = {
public.verticalOrigin = "880";
};
vertWidth = 1000;
width = 813;
}
);
unicode = 81;
}
{
glyphname = R;
layers = (
{
layerId = master01;
shapes = (
{
closed = 1;
nodes = (
(281,354,l),
(282,368,l),
(341,380,o),
(436,441,o),
(501,520,o),
(514,559,q),
(523,585,o),
(523,608,q),
(523,647,o),
(469,697,o),
(413,697,q),
(344,697,o),
(268,678,q),
(253,0,l),
(125,0,l),
(88,780,l),
(270,780,l),
(269,725,l),
(316,751,o),
(413,780,o),
(458,780,q),
(542,780,o),
(642,725,o),
(687,642,o),
(687,598,q),
(687,568,o),
(678,542,q),
(664,499,o),
(595,430,o),
(506,384,o),
(463,373,q),
(706,-14,l),
(693,-13,l)
);
}
);
userData = {
public.verticalOrigin = "880";
};
vertWidth = 1000;
width = 738;
}
);
unicode = 82;
}
{
glyphname = S;
layers = (
{
layerId = master01;
shapes = (
{
closed = 1;
nodes = (
(646,120,o),
(562,21,o),
(435,-20,o),
(362,-20,q),
(310,-20,o),
(189,34,o),
(75,142,o),
(32,224,q),
(39,231,l),
(79,200,o),
(170,150,o),
(260,115,o),
(337,97,o),
(361,97,q),
(408,97,o),
(473,141,o),
(478,192,q),
(478,195,l),
(478,217,o),
(420,266,o),
(327,322,o),
(224,384,o),
(132,451,o),
(73,523,o),
(73,562,q),
(73,567,o),
(73,574,o),
(74,578,q),
(86,645,o),
(169,745,o),
(286,801,o),
(349,801,q),
(413,801,o),
(560,762,o),
(637,726,q),
(581,563,l),
(503,639,o),
(391,711,o),
(341,711,q),
(287,711,o),
(230,658,o),
(226,596,q),
(226,593,l),
(226,570,o),
(272,524,o),
(348,477,o),
(439,428,o),
(530,375,o),
(606,316,o),
(652,251,o),
(652,214,q),
(652,206,l)
);
}
);
userData = {
public.verticalOrigin = "880";
};
vertWidth = 1000;
width = 716;
}
);
unicode = 83;
}
{
glyphname = V;
layers = (
{
layerId = master01;
shapes = (
{
closed = 1;
nodes = (
(16,760,l),
(203,800,l),
(355,167,l),
(693,790,l),
(707,790,l),
(456,-13,l),
(281,0,l)
);
}
);
userData = {
public.verticalOrigin = "880";
};
vertWidth = 1000;
width = 735;
}
);
unicode = 86;
}
{
glyphname = W;
layers = (
{
layerId = master01;
shapes = (
{
closed = 1;
nodes = (
(470,488,l),
(256,-13,l),
(245,-13,l),
(14,760,l),
(195,800,l),
(290,283,l),
(429,676,l),
(566,698,l),
(698,309,l),
(939,789,l),
(954,789,l),
(747,-13,l),
(739,-13,l)
);
}
);
userData = {
public.verticalOrigin = "880";
};
vertWidth = 1000;
width = 973;
}
);
unicode = 87;
}
{
glyphname = X;
layers = (
{
layerId = master01;
shapes = (
{
closed = 1;
nodes = (
(682,0,l),
(407,440,l),
(664,780,l),
(485,780,l),
(349,534,l),
(182,802,l),
(16,750,l),
(271,392,l),
(47,-13,l),
(64,-13,l),
(319,324,l),
(557,-9,l)
);
}
);
userData = {
public.verticalOrigin = "880";
};
vertWidth = 1000;
width = 683;
}
);
unicode = 88;
}
{
glyphname = Z;
layers = (
{
layerId = master01;
shapes = (
{
closed = 1;
nodes = (
(57,114,l),
(452,738,l),
(87,618,l),
(87,780,l),
(667,780,l),
(195,131,l),
(671,77,l),
(671,63,l),
(95,-11,l)
);
}
);
userData = {
public.verticalOrigin = "880";
};
vertWidth = 1000;
width = 698;
}
);
unicode = 90;
}
{
glyphname = bracketleft;
layers = (
{
layerId = master01;
shapes = (
{
closed = 1;
nodes = (
(391,-90,l),
(391,-76,l),
(221,-38,l),
(221,719,l),
(391,759,l),
(391,772,l),
(97,830,l),
(97,-149,l)
);
}
);
userData = {
public.verticalOrigin = "880";
};
vertWidth = 1000;
width = 400;
}
);
unicode = 91;
}
{
glyphname = backslash;
layers = (
{
layerId = master01;
shapes = (
{
closed = 1;
nodes = (
(0,793,l),
(138,825,l),
(399,-59,l),
(386,-58,l)
);
}
);
userData = {
public.verticalOrigin = "880";
};
vertWidth = 1000;
width = 400;
}
);
unicode = 92;
}
{
glyphname = asciicircum;
layers = (
{
layerId = master01;
shapes = (
{
closed = 1;
nodes = (
(345,641,l),
(587,317,l),
(598,326,l),
(425,780,l),
(265,780,l),
(92,326,l),
(103,317,l)
);
}
);
userData = {
public.verticalOrigin = "880";
};
vertWidth = 1000;
width = 690;
}
);
unicode = 94;
}
{
glyphname = underscore;
layers = (
{
layerId = master01;
shapes = (
{
closed = 1;
nodes = (
(500,-91,l),
(0,-91,l),
(0,-159,l),
(500,-160,l)
);
}
);
userData = {
public.verticalOrigin = "880";
};
vertWidth = 1000;
width = 500;
}
);
unicode = (95,818);
}
{
glyphname = grave;
layers = (
{
layerId = master01;
shapes = (
{
closed = 1;
nodes = (
(192,837,l),
(400,645,l),
(388,623,l),
(106,710,l)
);
}
);
userData = {
public.verticalOrigin = "880";
};
vertWidth = 1000;
width = 500;
}
);
unicode = (96,715,768);
}
{
glyphname = a;
kernLeft = a;
layers = (
{
anchors = (
{
name = top;
pos = (326,557);
}
);
layerId = master01;
shapes = (
{
closed = 1;
nodes = (
(616,86,l),
(597,82,o),
(582,79,o),
(571,79,cs),
(539,79,o),
(534,98,o),
(534,146,cs),
(534,399,ls),
(534,544,o),
(513,570,o),
(390,570,cs),
(286,570,o),
(119,505,o),
(46,436,c),
(51,426,l),
(150,451,o),
(280,463,o),
(325,463,cs),
(366,463,o),
(378,447,o),
(378,388,cs),
(378,322,o),
(72,272,o),
(38,141,cs),
(33,121,o),
(30,104,o),
(30,88,cs),
(30,21,o),
(76,-13,o),
(171,-13,cs),
(189,-13,o),
(209,-12,o),
(231,-9,cs),
(300,-1,o),
(363,25,o),
(404,61,c),
(424,9,o),
(447,-13,o),
(476,-13,cs),
(513,-13,o),
(559,23,o),
(620,80,c)
);
},
{
closed = 1;
nodes = (
(392,126,l),
(371,102,o),
(301,76,o),
(262,67,cs),
(255,65,o),
(248,65,o),
(241,65,cs),
(210,65,o),
(193,84,o),
(193,111,cs),
(193,126,o),
(198,142,o),
(207,160,cs),
(239,220,o),
(341,262,o),
(386,301,c)
);
}
);
userData = {
public.verticalOrigin = "880";
};
vertWidth = 1000;
width = 613;
}
);
unicode = 97;
}
{
glyphname = b;
layers = (
{
layerId = master01;
shapes = (
{
closed = 1;
nodes = (
(102,-13,l),
(420,-13,o),
(630,103,o),
(630,346,cs),
(630,488,o),
(569,570,o),
(442,570,cs),
(368,570,o),
(284,524,o),
(231,475,c),
(243,780,l),
(68,780,l)
);
},
{
closed = 1;
nodes = (
(229,434,l),
(288,458,o),
(334,466,o),
(390,466,cs),
(449,466,o),
(480,429,o),
(480,338,cs),
(480,214,o),
(418,101,o),
(213,34,c)
);
}
);
userData = {
public.verticalOrigin = "880";
};
vertWidth = 1000;
width = 669;
}
);
unicode = 98;
}
{
glyphname = c;
layers = (
{
layerId = master01;
shapes = (
{
closed = 1;
nodes = (
(574,-2,l),
(296,58,o),
(186,115,o),
(186,250,cs),
(186,435,o),
(231,498,o),
(290,498,cs),
(356,498,o),
(416,451,o),
(497,370,c),
(561,503,l),
(496,540,o),
(395,570,o),
(274,570,cs),
(139,570,o),
(38,452,o),
(38,258,cs),
(38,57,o),
(159,-13,o),
(570,-13,c)
);
}
);
userData = {
public.verticalOrigin = "880";
};
vertWidth = 1000;
width = 582;
}
);
unicode = 99;
}
{
glyphname = d;
layers = (
{
layerId = master01;
shapes = (
{
closed = 1;
nodes = (
(630,40,o),
(553,-13,o),
(523,-13,q),
(499,-13,o),
(466,29,o),
(459,80,q),
(422,40,o),
(306,-13,o),
(232,-13,q),
(137,-13,o),
(44,106,o),
(44,212,q),
(44,487,o),
(436,559,q),
(426,780,l),
(601,780,l),
(587,173,l),
(587,146,l),
(587,110,o),
(600,79,o),
(624,79,q),
(632,79,o),
(655,83,o),
(669,86,q),
(673,80,l)
);
},
{
closed = 1;
nodes = (
(308,457,o),
(194,309,o),
(194,220,q),
(194,152,o),
(240,90,o),
(284,90,q),
(328,90,o),
(409,113,o),
(455,136,q),
(438,512,l)
);
}
);
userData = {
public.verticalOrigin = "880";
};
vertWidth = 1000;
width = 670;
}
);
unicode = 100;
}
{
glyphname = e;
kernLeft = e;
layers = (
{
anchors = (
{
name = top;
pos = (316,557);
}
);
layerId = master01;
shapes = (
{
closed = 1;
nodes = (
(574,-1,l),
(304,53,o),
(196,105,o),
(179,216,c),
(604,264,l),
(594,490,o),
(430,570,o),
(292,570,cs),
(161,570,o),
(38,452,o),
(38,258,cs),
(38,57,o),
(159,-13,o),
(570,-13,c)
);
},
{
closed = 1;
nodes = (
(177,231,l),
(176,237,o),
(176,243,o),
(176,250,cs),
(176,456,o),
(226,498,o),
(306,498,cs),
(374,498,o),
(427,424,o),
(437,346,c)
);
}
);
userData = {
public.verticalOrigin = "880";
};
vertWidth = 1000;
width = 623;
}
);
unicode = 101;
}
{
glyphname = g;
layers = (
{
layerId = master01;
shapes = (
{
closed = 1;
nodes = (
(411,-93,o),
(447,-60,o),
(447,-8,q),
(447,-2,o),
(446,9,o),
(446,16,q),
(442,107,l),
(403,73,o),
(292,30,o),
(228,30,q),
(143,30,o),
(44,119,o),
(44,218,q),
(44,296,o),
(132,425,o),
(285,519,o),
(482,570,o),
(591,570,q),
(572,28,l),
(569,-62,o),
(536,-165,o),
(472,-208,o),
(422,-208,q),
(409,-208,o),
(381,-205,o),
(366,-203,q),
(302,-194,o),
(144,-127,o),
(57,-49,q),
(62,-41,l),
(89,-51,o),
(166,-70,o),
(248,-84,o),
(318,-92,o),
(338,-93,q),
(358,-93,l)
);
},
{
closed = 1;
nodes = (
(306,458,o),
(194,325,o),
(194,238,q),
(194,180,o),
(240,134,o),
(284,134,q),
(325,134,o),
(399,153,o),
(439,172,q),
(426,497,l)
);
}
);
userData = {
public.verticalOrigin = "880";
};
vertWidth = 1000;
width = 659;
}
);
unicode = 103;
}
{
glyphname = h;
layers = (
{
layerId = master01;
shapes = (
{
closed = 1;
nodes = (
(442,343,l),
(439,409,o),
(410,452,o),
(379,452,q),
(354,452,o),
(264,425,o),
(222,398,q),
(209,0,l),
(86,0,l),
(60,780,l),
(235,780,l),
(224,444,l),
(255,481,o),
(337,538,o),
(428,570,o),
(470,570,q),
(545,570,o),
(599,489,o),
(599,412,q),
(599,405,o),
(598,392,o),
(598,384,q),
(582,0,l),
(458,0,l)
);
}
);
userData = {
public.verticalOrigin = "880";
};
vertWidth = 1000;
width = 673;
}
);
unicode = 104;
}
{
glyphname = i;
layers = (
{
layerId = master01;
shapes = (
{
closed = 1;
nodes = (
(297,752,l),
(134,588,l),
(54,794,l)
);
},
{
closed = 1;
nodes = (
(71,557,l),
(247,557,l),
(221,0,l),
(97,0,l)
);
}
);
userData = {
public.verticalOrigin = "880";
};
vertWidth = 1000;
width = 317;
}
);
unicode = 105;
}
{
glyphname = j;
kernLeft = j;
layers = (
{
layerId = master01;
shapes = (
{
closed = 1;
nodes = (
(-12,-201,l),
(150,-125,o),
(224,-30,o),
(227,38,cs),
(253,557,l),
(78,557,l),
(104,44,l),
(104,41,ls),
(104,-6,o),
(62,-102,o),
(-18,-191,c)
);
},
{
closed = 1;
nodes = (
(134,588,l),
(297,752,l),
(54,794,l)
);
}
);
userData = {
public.verticalOrigin = "880";
};
vertWidth = 1000;
width = 323;
}
);
unicode = 106;
}
{
glyphname = k;
layers = (
{
layerId = master01;
shapes = (
{
closed = 1;
nodes = (
(286,234,l),
(229,172,l),
(223,0,l),
(100,0,l),
(74,780,l),
(249,780,l),
(233,291,l),
(394,570,l),
(568,540,l),
(384,340,l),
(597,-13,l),
(587,-13,l)
);
}
);
userData = {
public.verticalOrigin = "880";
};
vertWidth = 1000;
width = 597;
}
);
unicode = 107;
}
{
glyphname = l;
layers = (
{
layerId = master01;
shapes = (
{
closed = 1;
nodes = (
(71,780,l),
(250,780,l),
(223,0,l),
(98,0,l)
);
}
);
userData = {
public.verticalOrigin = "880";
};
vertWidth = 1000;
width = 321;
}
);
unicode = 108;
}
{
glyphname = p;
layers = (
{
layerId = master01;
shapes = (
{
closed = 1;
nodes = (
(213,-212,l),
(221,-7,l),
(471,19,o),
(630,135,o),
(630,346,cs),
(630,488,o),
(569,570,o),
(442,570,cs),
(372,570,o),
(293,529,o),
(240,484,c),
(243,557,l),
(68,557,l),
(102,-212,l)
);
},
{
closed = 1;
nodes = (
(238,438,l),
(293,459,o),
(337,466,o),
(390,466,cs),
(449,466,o),
(480,429,o),
(480,338,cs),
(480,216,o),
(420,105,o),
(223,37,c)
);
}
);
userData = {
public.verticalOrigin = "880";
};
vertWidth = 1000;
width = 669;
}
);
unicode = 112;
}
{
glyphname = q;
layers = (
{
layerId = master01;
shapes = (
{
closed = 1;
nodes = (
(458,69,l),
(418,32,o),
(300,-13,o),
(232,-13,q),
(137,-13,o),
(44,106,o),
(44,212,q),
(44,324,o),
(178,484,o),
(432,570,o),
(611,570,q),
(581,-212,l),
(470,-212,l)
);
},
{
closed = 1;
nodes = (
(308,457,o),
(194,309,o),
(194,220,q),
(194,152,o),
(240,90,o),
(284,90,q),
(326,90,o),
(410,111,o),
(455,131,q),
(438,512,l)
);
}
);
userData = {
public.verticalOrigin = "880";
};
vertWidth = 1000;
width = 675;
}
);
unicode = 113;
}
{
glyphname = r;
layers = (
{
layerId = master01;
shapes = (
{
closed = 1;
nodes = (
(68,557,l),
(244,557,l),
(241,458,l),
(264,488,o),
(330,539,o),
(407,570,o),
(446,570,q),
(446,423,l),
(426,434,o),
(377,445,o),
(351,445,q),
(320,445,o),
(260,430,o),
(240,416,q),
(227,0,l),
(104,0,l)
);
}
);
userData = {
public.verticalOrigin = "880";
};
vertWidth = 1000;
width = 450;
}
);
unicode = 114;
}
{
glyphname = t;
layers = (
{
layerId = master01;
shapes = (
{
closed = 1;
nodes = (
(343,44,o),
(256,-13,o),
(221,-13,q),
(177,-13,o),
(125,80,o),
(122,168,q),
(113,442,l),
(6,442,l),
(6,453,l),
(258,731,l),
(271,731,l),
(262,539,l),
(375,577,l),
(375,442,l),
(257,442,l),
(245,190,l),
(245,183,o),
(244,170,o),
(244,163,q),
(244,121,o),
(264,82,o),
(289,82,q),
(322,82,o),
(389,115,q),
(394,105,l)
);
}
);
userData = {
public.verticalOrigin = "880";
};
vertWidth = 1000;
width = 421;
}
);
unicode = 116;
}
{
glyphname = u;
layers = (
{
layerId = master01;
shapes = (
{
closed = 1;
nodes = (
(616,40,o),
(540,-13,o),
(511,-13,q),
(486,-13,o),
(453,36,o),
(448,96,q),
(428,65,o),
(360,16,o),
(282,-12,o),
(247,-12,q),
(186,-12,o),
(118,32,o),
(88,117,o),
(83,181,q),
(57,557,l),
(228,557,l),
(212,189,l),
(212,177,l),
(212,133,o),
(249,93,o),
(297,93,q),
(325,93,o),
(407,123,o),
(444,158,q),
(417,557,l),
(587,557,l),
(573,173,l),
(573,146,l),
(573,110,o),
(586,79,o),
(610,79,q),
(618,79,o),
(641,83,o),
(655,86,q),
(659,80,l)
);
}
);
userData = {
public.verticalOrigin = "880";
};
vertWidth = 1000;
width = 673;
}
);
unicode = 117;
}
{
glyphname = v;
layers = (
{
layerId = master01;
shapes = (
{
closed = 1;
nodes = (
(25,528,l),
(196,569,l),
(299,167,l),
(546,567,l),
(560,567,l),
(380,-13,l),
(243,0,l)
);
}
);
userData = {
public.verticalOrigin = "880";
};
vertWidth = 1000;
width = 574;
}
);
unicode = 118;
}
{
glyphname = w;
layers = (
{
layerId = master01;
shapes = (
{
closed = 1;
nodes = (
(398,369,l),
(234,-13,l),
(222,-13,l),
(5,527,l),
(166,569,l),
(257,231,l),
(372,507,l),
(505,523,l),
(595,249,l),
(802,567,l),
(816,567,l),
(610,-13,l),
(598,-13,l)
);
}
);
userData = {
public.verticalOrigin = "880";
};
vertWidth = 1000;
width = 842;
}
);
unicode = 119;
}
{
glyphname = z;
layers = (
{
layerId = master01;
shapes = (
{
closed = 1;
nodes = (
(37,97,l),
(344,508,l),
(58,414,l),
(58,557,l),
(547,557,l),
(175,113,l),
(560,67,l),
(560,56,l),
(57,-13,l)
);
}
);
userData = {
public.verticalOrigin = "880";
};
vertWidth = 1000;
width = 559;
}
);
unicode = 122;
}
{
glyphname = braceleft;
layers = (
{
layerId = master01;
shapes = (
{
closed = 1;
nodes = (
(298,-153,o),
(209,-131,o),
(171,-96,o),
(162,-45,o),
(162,-9,q),
(162,202,l),
(162,249,o),
(116,314,o),
(68,339,q),
(162,386,o),
(162,478,q),
(162,690,l),
(162,725,o),
(171,776,o),
(209,812,o),
(298,834,o),
(377,839,q),
(379,830,l),
(331,816,o),
(280,768,o),
(262,710,o),
(262,681,q),
(262,674,o),
(263,659,o),
(264,651,q),
(268,611,o),
(276,509,o),
(276,465,q),
(276,445,l),
(273,352,o),
(207,340,q),
(273,328,o),
(276,235,q),
(276,218,l),
(276,175,o),
(267,71,o),
(264,29,q),
(263,23,o),
(263,10,o),
(263,3,q),
(263,-25,o),
(280,-84,o),
(330,-134,o),
(379,-150,q),
(377,-158,l)
);
}
);
userData = {
public.verticalOrigin = "880";
};
vertWidth = 1000;
width = 400;
}
);
unicode = 123;
}
{
glyphname = bar;
layers = (
{
layerId = master01;
shapes = (
{
closed = 1;
nodes = (
(111,803,l),
(233,803,l),
(233,-23,l),
(111,-22,l)
);
}
);
userData = {
public.verticalOrigin = "880";
};
vertWidth = 1000;
width = 345;
}
);
unicode = 124;
}
{
glyphname = braceright;
layers = (
{
layerId = master01;
shapes = (
{
closed = 1;
nodes = (
(71,-133,o),
(120,-84,o),
(137,-25,o),
(137,3,q),
(137,10,o),
(137,23,o),
(136,29,q),
(133,71,o),
(124,175,o),
(124,218,q),
(124,235,l),
(127,328,o),
(193,340,q),
(127,352,o),
(124,445,q),
(124,465,l),
(124,509,o),
(132,611,o),
(136,651,q),
(137,659,o),
(138,674,o),
(138,681,q),
(138,710,o),
(120,768,o),
(70,816,o),
(21,830,q),
(23,839,l),
(103,834,o),
(191,812,o),
(229,776,o),
(238,725,o),
(238,690,q),
(238,478,l),
(238,386,o),
(332,339,q),
(284,314,o),
(238,249,o),
(238,202,q),
(238,-9,l),
(238,-45,o),
(229,-96,o),
(191,-131,o),
(103,-153,o),
(23,-158,q),
(21,-149,l)
);
}
);
userData = {
public.verticalOrigin = "880";
};
vertWidth = 1000;
width = 400;
}
);
unicode = 125;
}
{
glyphname = asciitilde;
layers = (
{
layerId = master01;
shapes = (
{
closed = 1;
nodes = (
(602,300,o),
(548,226,o),
(493,200,o),
(459,200,q),
(414,200,o),
(341,229,o),
(274,257,o),
(236,257,q),
(182,257,o),
(100,226,o),
(68,203,q),
(60,211,l),
(111,306,o),
(196,381,o),
(237,381,q),
(271,381,o),
(325,364,o),
(375,342,o),
(428,325,o),
(459,325,q),
(515,325,o),
(594,356,o),
(624,378,q),
(634,371,l)
);
}
);
userData = {
public.verticalOrigin = "880";
};
vertWidth = 1000;
width = 690;
}
);
unicode = (126,8764);
}
{
glyphname = exclamdown;
layers = (
{
layerId = master01;
shapes = (
{
closed = 1;
nodes = (
(234,409,l),
(179,412,l),
(118,-170,l),
(312,-207,l)
);
},
{
closed = 1;
nodes = (
(315,466,l),
(206,622,l),
(95,444,l)
);
}
);
userData = {
public.verticalOrigin = "880";
};
vertWidth = 1000;
width = 420;
}
);
unicode = 161;
}
{
glyphname = cent;
layers = (
{
layerId = master01;
shapes = (
{
closed = 1;
nodes = (
(569,-8,l),
(435,21,o),
(339,50,o),
(277,86,c),
(426,426,l),
(447,408,o),
(468,388,o),
(492,364,c),
(556,497,l),
(533,510,o),
(505,523,o),
(473,533,c),
(509,615,l),
(365,666,l),
(339,560,l),
(316,563,o),
(293,564,o),
(269,564,cs),
(134,564,o),
(33,446,o),
(33,252,cs),
(33,130,o),
(77,56,o),
(204,16,c),
(176,-95,l),
(194,-101,l),
(242,6,l),
(321,-11,o),
(426,-19,o),
(565,-19,c)
);
},
{
closed = 1;
nodes = (
(230,121,l),
(196,154,o),
(181,194,o),
(181,244,cs),
(181,429,o),
(226,492,o),
(285,492,cs),
(297,492,o),
(309,490,o),
(321,487,c)
);
}
);
vertWidth = 1000;
width = 600;
}
);
unicode = 162;
}
{
glyphname = sterling;
layers = (
{
layerId = master01;
shapes = (
{
closed = 1;
nodes = (
(704,152,l),
(641,122,o),
(566,112,o),
(527,112,cs),
(464,112,o),
(415,149,o),
(359,149,cs),
(337,149,o),
(308,140,o),
(288,133,c),
(343,166,o),
(400,231,o),
(410,294,cs),
(411,304,o),
(412,313,o),
(412,322,c),
(631,362,l),
(631,369,l),
(394,399,l),
(359,476,o),
(282,535,o),
(282,600,cs),
(282,608,l),
(289,670,o),
(332,706,o),
(385,706,cs),
(437,706,o),
(492,658,o),
(515,577,c),
(649,663,l),
(600,741,o),
(497,784,o),
(387,784,cs),
(272,784,o),
(129,688,o),
(120,613,cs),
(119,608,o),
(119,603,o),
(119,598,cs),
(119,525,o),
(187,468,o),
(246,413,c),
(57,433,l),
(57,274,l),
(310,309,l),
(310,246,o),
(174,174,o),
(56,125,c),
(126,-20,l),
(211,44,o),
(297,81,o),
(335,81,cs),
(392,81,o),
(432,-9,o),
(512,-9,cs),
(559,-9,o),
(673,73,o),
(711,146,c)
);
}
);
vertWidth = 1000;
width = 770;
}
);
unicode = 163;
}
{
glyphname = currency;
layers = (
{
layerId = master01;
shapes = (
{
closed = 1;
nodes = (
(397,130,l),
(348,104,o),
(292,104,q),
(234,104,o),
(187,130,q),
(42,54,l),
(22,77,l),
(92,225,l),
(65,274,o),
(65,331,q),
(65,389,o),
(91,436,q),
(25,576,l),
(44,595,l),
(186,532,l),
(235,558,o),
(292,558,q),
(321,558,o),
(375,544,o),
(399,531,q),
(548,595,l),
(565,575,l),
(493,435,l),
(519,388,o),
(519,331,q),
(519,274,o),
(492,225,q),
(568,70,l),
(551,53,l)
);
},
{
closed = 1;
nodes = (
(389,371,o),
(332,428,o),
(292,428,q),
(252,428,o),
(195,371,o),
(195,331,q),
(195,291,o),
(252,234,o),
(292,234,q),
(332,234,o),
(389,291,o),
(389,331,q)
);
}
);
userData = {
public.verticalOrigin = "880";
};
vertWidth = 1000;
width = 600;
}
);
unicode = 164;
}
{
glyphname = yen;
layers = (
{
layerId = master01;
shapes = (
{
closed = 1;
nodes = (
(424,0,l),
(295,0,l),
(287,127,l),
(58,136,l),
(58,145,l),
(283,188,l),
(276,301,l),
(77,274,l),
(77,415,l),
(256,398,l),
(5,759,l),
(189,800,l),
(348,459,l),
(655,789,l),
(670,790,l),
(455,379,l),
(654,361,l),
(654,352,l),
(445,324,l),
(438,218,l),
(635,255,l),
(635,114,l),
(432,122,l)
);
}
);
userData = {
public.verticalOrigin = "880";
};
vertWidth = 1000;
width = 690;
}
);
unicode = 165;
}
{
glyphname = brokenbar;
layers = (
{
layerId = master01;
shapes = (
{
closed = 1;
nodes = (
(111,803,l),
(233,803,l),
(233,477,l),
(111,477,l)
);
},
{
closed = 1;
nodes = (
(111,303,l),
(233,303,l),
(233,-23,l),
(111,-22,l)
);
}
);
userData = {
public.verticalOrigin = "880";
};
vertWidth = 1000;
width = 345;
}
);
unicode = 166;
}
{
glyphname = section;
layers = (
{
layerId = master01;
shapes = (
{
closed = 1;
nodes = (
(574,30,o),
(509,-45,o),
(405,-74,o),
(344,-74,q),
(302,-74,o),
(206,-31,o),
(115,56,o),
(80,121,q),
(86,126,l),
(129,93,o),
(224,43,o),
(308,16,o),
(334,16,q),
(372,16,o),
(423,47,o),
(427,87,q),
(427,90,l),
(427,110,o),
(375,145,o),
(293,181,o),
(202,221,o),
(120,270,o),
(68,330,o),
(68,368,q),
(68,372,o),
(68,379,o),
(69,383,q),
(76,428,o),
(116,489,o),
(171,528,o),
(197,538,q),
(165,562,o),
(125,625,o),
(125,652,q),
(125,654,o),
(126,659,o),
(126,661,q),
(134,718,o),
(201,790,o),
(296,825,o),
(346,825,q),
(397,825,o),
(517,794,o),
(576,765,q),
(512,617,l),
(473,671,o),
(379,743,o),
(340,743,q),
(299,743,o),
(260,700,o),
(258,667,q),
(258,665,l),
(258,646,o),
(312,612,o),
(398,577,o),
(493,538,o),
(579,490,o),
(633,429,o),
(633,389,q),
(633,382,l),
(628,307,o),
(558,230,o),
(505,216,q),
(536,195,o),
(578,137,o),
(578,104,q),
(578,98,l)
);
},
{
closed = 1;
nodes = (
(514,400,o),
(459,450,o),
(352,483,o),
(273,483,q),
(227,483,o),
(183,429,o),
(181,397,q),
(181,395,l),
(181,373,o),
(248,321,o),
(362,285,o),
(431,285,q),
(469,285,o),
(510,331,o),
(514,371,q),
(514,375,l)
);
}
);
userData = {
public.verticalOrigin = "880";
};
vertWidth = 1000;
width = 720;
}
);
unicode = 167;
}
{
glyphname = copyright;
layers = (
{
layerId = master01;
shapes = (
{
closed = 1;
nodes = (
(746,283,o),
(690,154,o),
(592,56,o),
(462,0,o),
(388,0,q),
(314,0,o),
(185,56,o),
(87,154,o),
(31,283,o),
(31,357,q),
(31,431,o),
(87,560,o),
(185,658,o),
(314,714,o),
(388,714,q),
(462,714,o),
(592,658,o),
(690,560,o),
(746,431,o),
(746,357,q)
);
},
{
closed = 1;
nodes = (
(671,415,o),
(627,517,o),
(549,595,o),
(447,639,o),
(389,639,q),
(331,639,o),
(229,595,o),
(151,517,o),
(107,415,o),
(107,357,q),
(107,299,o),
(151,197,o),
(229,119,o),
(331,75,o),
(389,75,q),
(447,75,o),
(549,119,o),
(627,197,o),
(671,299,o),
(671,357,q)
);
},
{
closed = 1;
nodes = (
(427,140,o),
(265,171,o),
(184,259,o),
(184,343,q),
(184,397,o),
(223,484,o),
(282,546,o),
(348,579,o),
(375,579,q),
(407,579,o),
(478,561,o),
(543,528,o),
(565,503,q),
(492,399,l),
(477,450,o),
(414,515,o),
(388,515,q),
(354,515,o),
(303,430,o),
(303,335,q),
(303,282,o),
(352,212,o),
(460,168,o),
(549,151,q),
(546,140,l)
);
}
);
userData = {
public.verticalOrigin = "880";
};
vertWidth = 1000;
width = 777;
}
);
unicode = 169;
}
{
glyphname = ordfeminine;
layers = (
{
layerId = master01;
shapes = (
{
closed = 1;
nodes = (
(315,506,o),
(275,474,o),
(257,474,q),
(242,474,o),
(218,497,o),
(211,522,q),
(197,508,o),
(152,479,o),
(132,476,q),
(125,475,o),
(111,474,o),
(104,474,q),
(63,474,o),
(18,513,o),
(18,546,q),
(18,560,o),
(21,573,q),
(25,592,o),
(64,624,o),
(115,651,o),
(165,674,o),
(198,692,o),
(198,699,q),
(198,717,o),
(185,729,o),
(167,729,q),
(145,729,o),
(72,717,o),
(29,705,q),
(26,712,l),
(47,734,o),
(107,773,o),
(175,797,o),
(205,797,q),
(244,797,o),
(288,749,o),
(288,698,q),
(288,594,l),
(288,561,o),
(298,532,o),
(309,532,q),
(318,532,o),
(328,538,q),
(331,533,l)
);
},
{
closed = 1;
nodes = (
(189,638,o),
(154,619,o),
(125,597,o),
(119,585,q),
(110,567,o),
(110,553,q),
(110,540,o),
(125,524,o),
(138,524,q),
(141,524,o),
(147,525,o),
(151,526,q),
(168,530,o),
(197,552,o),
(206,563,q),
(202,643,l)
);
}
);
userData = {
public.verticalOrigin = "880";
};
vertWidth = 1000;
width = 335;
}
);
unicode = 170;
}
{
glyphname = guillemetleft;
layers = (
{
layerId = master01;
shapes = (
{
closed = 1;
nodes = (
(610,29,l),
(416,278,l),
(608,536,l),
(599,547,l),
(297,336,l),
(297,218,l),
(601,18,l)
);
},
{
closed = 1;
nodes = (
(350,29,l),
(156,278,l),
(348,536,l),
(339,547,l),
(37,336,l),
(37,218,l),
(341,18,l)
);
}
);
userData = {
public.verticalOrigin = "880";
};
vertWidth = 1000;
width = 640;
}
);
unicode = 171;
}
{
glyphname = logicalnot;
layers = (
{
layerId = master01;
shapes = (
{
closed = 1;
nodes = (
(358,320,l),
(30,263,l),
(30,405,l),
(514,397,l),
(444,78,l),
(428,78,l)
);
}
);
userData = {
public.verticalOrigin = "880";
};
vertWidth = 1000;
width = 550;
}
);
unicode = 172;
}
{
glyphname = softhyphen;
layers = (
{
layerId = master01;
shapes = (
{
closed = 1;
nodes = (
(450,228,l),
(450,296,l),
(40,296,l),
(40,228,l)
);
}
);
userData = {
public.verticalOrigin = "880";
};
vertWidth = 1000;
width = 500;
}
);
unicode = 173;
}
{
glyphname = registered;
layers = (
{
layerId = master01;
shapes = (
{
closed = 1;
nodes = (
(746,283,o),
(690,154,o),
(592,56,o),
(462,0,o),
(388,0,q),
(314,0,o),
(185,56,o),
(87,154,o),
(31,283,o),
(31,357,q),
(31,431,o),
(87,560,o),
(185,658,o),
(314,714,o),
(388,714,q),
(462,714,o),
(592,658,o),
(690,560,o),
(746,431,o),
(746,357,q)
);
},
{
closed = 1;
nodes = (
(353,319,l),
(404,334,o),
(450,386,o),
(462,444,q),
(465,459,o),
(465,470,q),
(465,509,o),
(428,509,q),
(425,509,o),
(419,509,o),
(416,508,q),
(382,505,o),
(347,486,q),
(336,124,l),
(252,124,l),
(221,574,l),
(349,574,l),
(348,525,l),
(369,540,o),
(421,566,o),
(452,574,q),
(467,578,o),
(485,578,q),
(520,578,o),
(577,534,o),
(577,481,q),
(577,455,o),
(568,422,q),
(555,375,o),
(512,322,o),
(468,311,q),
(468,311,o),
(488,276,o),
(516,224,o),
(545,172,o),
(565,136,o),
(565,136,q),
(615,177,o),
(671,293,o),
(671,357,q),
(671,415,o),
(627,517,o),
(549,595,o),
(447,639,o),
(389,639,q),
(331,639,o),
(229,595,o),
(151,517,o),
(107,415,o),
(107,357,q),
(107,299,o),
(151,197,o),
(229,119,o),
(331,75,o),
(389,75,q),
(436,75,o),
(521,104,o),
(555,129,q),
(352,307,l)
);
}
);
userData = {
public.verticalOrigin = "880";
};
vertWidth = 1000;
width = 777;
}
);
unicode = 174;
}
{
glyphname = macron;
layers = (
{
layerId = master01;
shapes = (
{
closed = 1;
nodes = (
(92,776,l),
(432,719,l),
(432,710,l),
(92,652,l)
);
}
);
userData = {
public.verticalOrigin = "880";
};
vertWidth = 1000;
width = 500;
}
);
unicode = (175,713,772);
}
{
glyphname = degree;
layers = (
{
layerId = master01;
shapes = (
{
closed = 1;
nodes = (
(198,767,o),
(106,704,o),
(106,656,q),
(106,631,o),
(135,597,o),
(160,597,q),
(179,597,o),
(207,632,o),
(207,654,q),
(207,671,o),
(188,703,o),
(164,715,q),
(249,760,l),
(281,732,o),
(309,673,o),
(309,644,q),
(309,609,o),
(272,550,o),
(210,515,o),
(172,515,q),
(106,515,o),
(29,590,o),
(29,646,q),
(29,706,o),
(134,790,o),
(243,790,q),
(248,790,o),
(260,789,o),
(266,789,q),
(268,780,l)
);
}
);
userData = {
public.verticalOrigin = "880";
};
vertWidth = 1000;
width = 334;
}
);
unicode = 176;
}
{
glyphname = plusminus;
layers = (
{
layerId = master01;
shapes = (
{
closed = 1;
nodes = (
(337,169,l),
(400,320,l),
(608,373,l),
(608,383,l),
(400,430,l),
(337,582,l),
(323,582,l),
(259,430,l),
(57,383,l),
(57,373,l),
(259,320,l),
(323,169,l)
);
},
{
closed = 1;
nodes = (
(618,66,l),
(618,73,l),
(61,141,l),
(61,-7,l)
);
}
);
userData = {
public.verticalOrigin = "880";
};
vertWidth = 1000;
width = 680;
}
);
unicode = 177;
}
{
glyphname = twosuperior;
layers = (
{
layerId = master01;
shapes = (
{
closed = 1;
nodes = (
(22,360,o),
(53,394,o),
(101,450,o),
(155,517,o),
(203,585,o),
(234,642,o),
(234,659,q),
(234,678,o),
(208,698,o),
(194,698,q),
(110,698,o),
(36,649,q),
(27,656,l),
(68,739,o),
(145,811,o),
(191,811,q),
(237,811,o),
(311,768,o),
(356,696,o),
(356,653,q),
(356,625,o),
(305,554,o),
(225,480,o),
(138,415,o),
(103,392,q),
(357,476,l),
(357,360,l),
(22,360,l)
);
}
);
userData = {
public.verticalOrigin = "880";
};
vertWidth = 1000;
width = 380;
}
);
unicode = 178;
}
{
glyphname = threesuperior;
layers = (
{
layerId = master01;
shapes = (
{
closed = 1;
nodes = (
(101,375,o),
(206,425,o),
(249,475,o),
(249,489,q),
(249,505,o),
(229,537,o),
(170,559,o),
(109,559,q),
(108,570,l),
(156,593,o),
(218,646,o),
(229,672,q),
(233,680,o),
(233,690,q),
(233,706,o),
(206,725,o),
(183,725,q),
(179,725,o),
(169,724,o),
(164,723,q),
(124,717,o),
(60,689,o),
(27,666,q),
(20,673,l),
(35,702,o),
(81,761,o),
(140,804,o),
(173,808,q),
(194,811,o),
(213,811,q),
(284,811,o),
(361,743,o),
(361,699,q),
(361,679,o),
(352,658,q),
(342,633,o),
(290,597,o),
(256,591,q),
(312,581,o),
(366,548,o),
(382,510,o),
(382,490,q),
(382,447,o),
(309,385,o),
(146,351,o),
(11,348,q),
(8,359,l)
);
}
);
userData = {
public.verticalOrigin = "880";
};
vertWidth = 1000;
width = 400;
}
);
unicode = 179;
}
{
glyphname = micro;
layers = (
{
layerId = master01;
shapes = (
{
closed = 1;
nodes = (
(452,56,l),
(426,25,o),
(357,-9,o),
(325,-9,q),
(323,-9,l),
(303,-8,o),
(252,10,o),
(232,28,q),
(228,-178,l),
(104,-178,l),
(67,557,l),
(243,557,l),
(236,202,l),
(249,176,o),
(301,132,o),
(327,132,q),
(362,132,o),
(427,166,o),
(446,195,q),
(430,557,l),
(605,557,l),
(566,0,l),
(455,0,l)
);
}
);
userData = {
public.verticalOrigin = "880";
};
vertWidth = 1000;
width = 690;
}
);
unicode = 181;
}
{
glyphname = paragraph;
layers = (
{
layerId = master01;
shapes = (
{
closed = 1;
nodes = (
(472,655,l),
(406,655,l),
(406,-130,l),
(267,-130,l),
(267,325,l),
(237,330,o),
(163,356,o),
(95,410,o),
(52,502,o),
(52,572,q),
(52,646,o),
(122,745,o),
(235,795,o),
(299,795,q),
(607,795,l),
(607,-131,l),
(472,-130,l)
);
}
);
userData = {
public.verticalOrigin = "880";
};
vertWidth = 1000;
width = 681;
}
);
unicode = 182;
}
{
glyphname = periodcentered;
layers = (
{
layerId = master01;
shapes = (
{
closed = 1;
nodes = (
(378,443,l),
(54,499,l),
(161,226,l)
);
}
);
userData = {
public.verticalOrigin = "880";
};
vertWidth = 1000;
width = 430;
}
);
unicode = (183,8729);
}
{
glyphname = cedilla;
layers = (
{
layerId = master01;
shapes = (
{
closed = 1;
nodes = (
(147,35,l),
(246,10,l),
(214,-80,l),
(230,-66,o),
(275,-43,o),
(291,-39,q),
(303,-36,o),
(314,-36,q),
(340,-36,o),
(375,-67,o),
(375,-99,q),
(375,-103,o),
(375,-112,o),
(374,-117,q),
(366,-176,o),
(317,-223,o),
(265,-223,q),
(258,-223,o),
(241,-222,o),
(233,-221,q),
(197,-218,o),
(123,-187,o),
(100,-165,q),
(104,-157,l),
(124,-162,o),
(172,-169,o),
(191,-169,q),
(209,-169,o),
(219,-166,q),
(255,-156,o),
(262,-116,q),
(263,-113,o),
(263,-108,q),
(263,-88,o),
(244,-88,q),
(229,-88,o),
(210,-101,q),
(134,-88,l)
);
}
);
userData = {
public.verticalOrigin = "880";
};
vertWidth = 1000;
width = 500;
}
);
unicode = (184,807);
}
{
glyphname = onesuperior;
layers = (
{
layerId = master01;
shapes = (
{
closed = 1;
nodes = (
(153,648,l),
(41,684,l),
(41,694,l),
(283,804,l),
(255,360,l),
(171,360,l)
);
}
);
userData = {
public.verticalOrigin = "880";
};
vertWidth = 1000;
width = 380;
}
);
unicode = 185;
}
{
glyphname = ordmasculine;
layers = (
{
layerId = master01;
shapes = (
{
closed = 1;
nodes = (
(321,588,o),
(274,520,o),
(204,479,o),
(168,479,q),
(130,479,o),
(58,520,o),
(13,588,o),
(13,628,q),
(13,677,o),
(61,752,o),
(133,795,o),
(168,795,q),
(205,795,o),
(275,751,o),
(321,676,o),
(321,628,q)
);
},
{
closed = 1;
nodes = (
(204,525,o),
(225,570,o),
(225,614,q),
(225,685,o),
(182,749,o),
(149,749,q),
(132,749,o),
(109,697,o),
(109,651,q),
(109,585,o),
(158,525,o),
(187,525,q)
);
}
);
userData = {
public.verticalOrigin = "880";
};
vertWidth = 1000;
width = 335;
}
);
unicode = 186;
}
{
glyphname = guillemetright;
layers = (
{
layerId = master01;
shapes = (
{
closed = 1;
nodes = (
(298,29,l),
(492,278,l),
(300,536,l),
(309,547,l),
(611,336,l),
(611,218,l),
(307,18,l)
);
},
{
closed = 1;
nodes = (
(38,29,l),
(232,278,l),
(40,536,l),
(49,547,l),
(351,336,l),
(351,218,l),
(47,18,l)
);
}
);
userData = {
public.verticalOrigin = "880";
};
vertWidth = 1000;
width = 640;
}
);
unicode = 187;
}
{
glyphname = onequarter;
layers = (
{
layerId = master01;
shapes = (
{
closed = 1;
nodes = (
(131,648,l),
(19,684,l),
(19,694,l),
(261,804,l),
(233,360,l),
(149,360,l)
);
},
{
closed = 1;
nodes = (
(533,803,l),
(646,752,l),
(146,-22,l),
(131,-22,l)
);
},
{
closed = 1;
nodes = (
(694,0,l),
(619,0,l),
(615,61,l),
(380,61,l),
(543,463,l),
(654,439,l),
(476,119,l),
(612,146,l),
(600,331,l),
(713,331,l),
(702,159,l),
(773,172,l),
(773,61,l),
(697,61,l)
);
}
);
userData = {
public.verticalOrigin = "880";
};
vertWidth = 1000;
width = 830;
}
);
unicode = 188;
}
{
glyphname = onehalf;
layers = (
{
layerId = master01;
shapes = (
{
closed = 1;
nodes = (
(131,648,l),
(19,684,l),
(19,694,l),
(261,804,l),
(233,360,l),
(149,360,l)
);
},
{
closed = 1;
nodes = (
(523,803,l),
(636,752,l),
(136,-22,l),
(121,-22,l)
);
},
{
closed = 1;
nodes = (
(436,0,o),
(467,34,o),
(515,90,o),
(569,157,o),
(617,225,o),
(648,282,o),
(648,299,q),
(648,318,o),
(622,338,o),
(608,338,q),
(524,338,o),
(450,289,q),
(441,296,l),
(482,379,o),
(559,451,o),
(605,451,q),
(651,451,o),
(725,408,o),
(770,336,o),
(770,293,q),
(770,265,o),
(719,194,o),
(639,120,o),
(552,55,o),
(517,32,q),
(771,116,l),
(771,0,l),
(436,0,l)
);
}
);
userData = {
public.verticalOrigin = "880";
};
vertWidth = 1000;
width = 830;
}
);
unicode = 189;
}
{
glyphname = threequarters;
layers = (
{
layerId = master01;
shapes = (
{
closed = 1;
nodes = (
(101,375,o),
(206,425,o),
(249,475,o),
(249,489,q),
(249,505,o),
(229,537,o),
(170,559,o),
(109,559,q),
(108,570,l),
(156,593,o),
(218,646,o),
(229,672,q),
(233,680,o),
(233,690,q),
(233,706,o),
(206,725,o),
(183,725,q),
(179,725,o),
(169,724,o),
(164,723,q),
(124,717,o),
(60,689,o),
(27,666,q),
(20,673,l),
(35,702,o),
(81,761,o),
(140,804,o),
(173,808,q),
(194,811,o),
(213,811,q),
(284,811,o),
(361,743,o),
(361,699,q),
(361,679,o),
(352,658,q),
(342,633,o),
(290,597,o),
(256,591,q),
(312,581,o),
(366,548,o),
(382,510,o),
(382,490,q),
(382,447,o),
(309,385,o),
(146,351,o),
(11,348,q),
(8,359,l)
);
},
{
closed = 1;
nodes = (
(579,803,l),
(692,752,l),
(192,-22,l),
(177,-22,l)
);
},
{
closed = 1;
nodes = (
(694,0,l),
(619,0,l),
(615,61,l),
(380,61,l),
(543,463,l),
(654,439,l),
(476,119,l),
(612,146,l),
(600,331,l),
(713,331,l),
(702,159,l),
(773,172,l),
(773,61,l),
(697,61,l)
);
}
);
userData = {
public.verticalOrigin = "880";
};
vertWidth = 1000;
width = 812;
}
);
unicode = 190;
}
{
glyphname = questiondown;
layers = (
{
layerId = master01;
shapes = (
{
closed = 1;
nodes = (
(363,620,l),
(461,434,l),
(243,472,l)
);
},
{
closed = 1;
nodes = (
(545,-154,o),
(376,-202,o),
(281,-202,q),
(243,-202,o),
(163,-162,o),
(96,-93,o),
(55,-7,o),
(55,39,q),
(55,86,o),
(191,191,o),
(324,240,q),
(315,388,l),
(325,388,l),
(440,214,l),
(356,182,o),
(263,125,o),
(227,75,o),
(227,52,q),
(227,-2,o),
(256,-88,o),
(300,-138,o),
(323,-138,q),
(367,-138,o),
(467,-45,o),
(519,32,q),
(623,-101,l)
);
}
);
userData = {
public.verticalOrigin = "880";
};
vertWidth = 1000;
width = 690;
}
);
unicode = 191;
}
{
glyphname = Aacute;
layers = (
{
layerId = master01;
shapes = (
{
closed = 1;
nodes = (
(235,867,l),
(405,1039,l),
(505,947,l),
(241,858,l)
);
},
{
closed = 1;
nodes = (
(514,241,l),
(118,172,l),
(14,-11,l),
(-1,-11,l),
(272,779,l),
(430,803,l),
(750,2,l),
(632,-11,l)
);
},
{
closed = 1;
nodes = (
(196,312,l),
(502,265,l),
(351,589,l)
);
}
);
userData = {
public.verticalOrigin = "880";
};
vertWidth = 1000;
width = 752;
}
);
unicode = 193;
}
{
glyphname = Atilde;
layers = (
{
layerId = master01;
shapes = (
{
closed = 1;
nodes = (
(534,940,o),
(500,866,o),
(466,840,o),
(444,840,q),
(420,840,o),
(368,868,o),
(322,897,o),
(304,897,q),
(270,897,o),
(219,866,o),
(199,843,q),
(193,851,l),
(225,946,o),
(280,1021,o),
(305,1021,q),
(331,1021,o),
(378,993,o),
(422,965,o),
(444,965,q),
(479,965,o),
(530,996,o),
(549,1018,q),
(555,1011,l)
);
},
{
closed = 1;
nodes = (
(514,241,l),
(118,172,l),
(14,-11,l),
(-1,-11,l),
(272,779,l),
(430,803,l),
(750,2,l),
(632,-11,l)
);
},
{
closed = 1;
nodes = (
(196,312,l),
(502,265,l),
(351,589,l)
);
}
);
userData = {
public.verticalOrigin = "880";
};
vertWidth = 1000;
width = 752;
}
);
unicode = 195;
}
{
glyphname = Adieresis;
layers = (
{
layerId = master01;
shapes = (
{
closed = 1;
nodes = (
(397,1002,l),
(558,974,l),
(450,866,l)
);
},
{
closed = 1;
nodes = (
(342,974,l),
(235,866,l),
(182,1002,l)
);
},
{
closed = 1;
nodes = (
(514,241,l),
(118,172,l),
(14,-11,l),
(-1,-11,l),
(272,779,l),
(430,803,l),
(750,2,l),
(632,-11,l)
);
},
{
closed = 1;
nodes = (
(196,312,l),
(502,265,l),
(351,589,l)
);
}
);
userData = {
public.verticalOrigin = "880";
};
vertWidth = 1000;
width = 752;
}
);
unicode = 196;
}
{
glyphname = Aring;
layers = (
{
layerId = master01;
shapes = (
{
closed = 1;
nodes = (
(387,1045,o),
(301,985,o),
(301,939,q),
(301,916,o),
(328,883,o),
(352,883,q),
(370,883,o),
(397,916,o),
(397,937,q),
(397,953,o),
(379,984,o),
(356,995,q),
(436,1038,l),
(466,1012,o),
(493,955,o),
(493,928,q),
(493,895,o),
(458,839,o),
(399,805,o),
(363,805,q),
(301,805,o),
(227,877,o),
(227,930,q),
(227,987,o),
(329,1066,o),
(432,1066,q),
(452,1066,l),
(454,1057,l)
);
},
{
closed = 1;
nodes = (
(514,241,l),
(118,172,l),
(14,-11,l),
(-1,-11,l),
(272,779,l),
(430,803,l),
(750,2,l),
(632,-11,l)
);
},
{
closed = 1;
nodes = (
(196,312,l),
(502,265,l),
(351,589,l)
);
}
);
userData = {
public.verticalOrigin = "880";
};
vertWidth = 1000;
width = 752;
}
);
unicode = 197;
}
{
glyphname = Ccedilla;
layers = (
{
layerId = master01;
shapes = (
{
closed = 1;
nodes = (
(678,-7,l),
(314,64,o),
(215,187,o),
(215,388,cs),
(215,533,o),
(286,702,o),
(378,702,cs),
(473,702,o),
(565,658,o),
(649,573,c),
(705,736,l),
(620,780,o),
(511,801,o),
(408,801,cs),
(232,801,o),
(48,634,o),
(48,314,cs),
(48,178,o),
(127,72,o),
(319,19,c),
(308,-88,l),
(384,-101,l),
(397,-92,o),
(408,-88,o),
(418,-88,cs),
(429,-88,o),
(437,-95,o),
(437,-108,cs),
(437,-110,o),
(437,-113,o),
(436,-116,cs),
(431,-143,o),
(418,-159,o),
(393,-166,cs),
(386,-168,o),
(376,-169,o),
(365,-169,cs),
(339,-169,o),
(305,-164,o),
(278,-157,c),
(274,-165,l),
(304,-195,o),
(359,-217,o),
(407,-221,cs),
(418,-222,o),
(429,-223,o),
(439,-223,cs),
(508,-223,o),
(537,-196,o),
(548,-116,cs),
(549,-110,o),
(549,-104,o),
(549,-99,cs),
(549,-57,o),
(523,-36,o),
(488,-36,cs),
(481,-36,o),
(473,-37,o),
(465,-39,cs),
(443,-44,o),
(409,-62,o),
(388,-80,c),
(416,-1,l),
(490,-14,o),
(576,-20,o),
(676,-20,c)
);
}
);
userData = {
public.verticalOrigin = "880";
};
vertWidth = 1000;
width = 737;
}
);
unicode = 199;
}
{
glyphname = Egrave;
layers = (
{
layerId = master01;
shapes = (
{
closed = 1;
nodes = (
(316,1039,l),
(486,867,l),
(480,858,l),
(216,947,l)
);
},
{
closed = 1;
nodes = (
(88,780,l),
(270,780,l),
(268,704,l),
(628,790,l),
(628,628,l),
(267,663,l),
(261,410,l),
(577,484,l),
(577,325,l),
(260,370,l),
(254,129,l),
(648,87,l),
(648,77,l),
(125,-10,l)
);
}
);
userData = {
public.verticalOrigin = "880";
};
vertWidth = 1000;
width = 689;
}
);
unicode = 200;
}
{
glyphname = Iacute;
layers = (
{
layerId = master01;
shapes = (
{
closed = 1;
nodes = (
(41,867,l),
(211,1039,l),
(311,947,l),
(47,858,l)
);
},
{
closed = 1;
nodes = (
(92,780,l),
(280,780,l),
(252,0,l),
(120,0,l)
);
}
);
userData = {
public.verticalOrigin = "880";
};
vertWidth = 1000;
width = 372;
}
);
unicode = 205;
}
{
glyphname = Icircumflex;
layers = (
{
layerId = master01;
shapes = (
{
closed = 1;
nodes = (
(14,834,l),
(8,843,l),
(143,1031,l),
(232,1031,l),
(366,843,l),
(360,834,l),
(187,919,l)
);
},
{
closed = 1;
nodes = (
(92,780,l),
(280,780,l),
(252,0,l),
(120,0,l)
);
}
);
userData = {
public.verticalOrigin = "880";
};
vertWidth = 1000;
width = 372;
}
);
unicode = 206;
}
{
glyphname = Idieresis;
layers = (
{
layerId = master01;
shapes = (
{
closed = 1;
nodes = (
(218,1002,l),
(379,974,l),
(271,866,l)
);
},
{
closed = 1;
nodes = (
(163,974,l),
(56,866,l),
(3,1002,l)
);
},
{
closed = 1;
nodes = (
(92,780,l),
(280,780,l),
(252,0,l),
(120,0,l)
);
}
);
userData = {
public.verticalOrigin = "880";
};
vertWidth = 1000;
width = 372;
}
);
unicode = 207;
}
{
glyphname = Eth;
layers = (
{
layerId = master01;
shapes = (
{
closed = 1;
nodes = (
(35,325,l),
(35,433,l),
(104,426,l),
(88,780,l),
(270,780,l),
(268,688,l),
(311,733,o),
(417,780,o),
(473,780,q),
(533,780,o),
(634,725,o),
(708,628,o),
(748,502,o),
(748,431,q),
(748,358,o),
(726,288,q),
(680,141,o),
(386,-13,o),
(125,-13,q),
(109,334,l)
);
},
{
closed = 1;
nodes = (
(254,43,l),
(400,91,o),
(548,221,o),
(566,282,q),
(582,337,o),
(582,401,q),
(582,468,o),
(548,590,o),
(487,670,o),
(448,675,q),
(427,678,o),
(407,678,q),
(372,678,o),
(302,661,o),
(267,642,q),
(262,410,l),
(453,390,l),
(453,377,l),
(261,353,l)
);
}
);
userData = {
public.verticalOrigin = "880";
};
vertWidth = 1000;
width = 805;
}
);
unicode = 208;
}
{
glyphname = Ntilde;
layers = (
{
layerId = master01;
shapes = (
{
closed = 1;
nodes = (
(575,940,o),
(541,866,o),
(507,840,o),
(485,840,q),
(461,840,o),
(409,868,o),
(363,897,o),
(345,897,q),
(311,897,o),
(260,866,o),
(240,843,q),
(234,851,l),
(266,946,o),
(321,1021,o),
(346,1021,q),
(372,1021,o),
(419,993,o),
(463,965,o),
(485,965,q),
(520,965,o),
(571,996,o),
(590,1018,q),
(596,1011,l)
);
},
{
closed = 1;
nodes = (
(255,584,l),
(166,-13,l),
(150,-13,l),
(86,780,l),
(250,780,l),
(592,366,l),
(698,790,l),
(717,790,l),
(679,-13,l),
(671,-13,l)
);
}
);
userData = {
public.verticalOrigin = "880";
};
vertWidth = 1000;
width = 807;
}
);
unicode = 209;
}
{
glyphname = Otilde;
layers = (
{
layerId = master01;
shapes = (
{
closed = 1;
nodes = (
(573,940,o),
(539,866,o),
(505,840,o),
(483,840,q),
(459,840,o),
(407,868,o),
(361,897,o),
(343,897,q),
(309,897,o),
(258,866,o),
(238,843,q),
(232,851,l),
(264,946,o),
(319,1021,o),
(344,1021,q),
(370,1021,o),
(417,993,o),
(461,965,o),
(483,965,q),
(518,965,o),
(569,996,o),
(588,1018,q),
(594,1011,l)
);
},
{
closed = 1;
nodes = (
(351,-20,o),
(226,37,o),
(116,145,o),
(48,297,o),
(48,392,q),
(48,466,o),
(93,593,o),
(169,693,o),
(263,764,o),
(362,801,o),
(408,801,q),
(453,801,o),
(552,763,o),
(645,692,o),
(721,592,o),
(765,466,o),
(765,392,q),
(765,297,o),
(697,145,o),
(589,37,o),
(465,-20,o),
(408,-20,q)
);
},
{
closed = 1;
nodes = (
(495,66,o),
(567,128,o),
(608,239,o),
(608,312,q),
(608,413,o),
(562,564,o),
(488,664,o),
(405,714,o),
(368,714,q),
(322,714,o),
(248,653,o),
(205,545,o),
(205,472,q),
(205,365,o),
(252,211,o),
(327,113,o),
(411,66,o),
(448,66,q)
);
}
);
userData = {
public.verticalOrigin = "880";
};
vertWidth = 1000;
width = 811;
}
);
unicode = 213;
}
{
glyphname = multiply;
layers = (
{
layerId = master01;
shapes = (
{
closed = 1;
nodes = (
(330,177,l),
(646,-42,l),
(654,-35,l),
(434,280,l),
(654,595,l),
(646,603,l),
(330,383,l),
(16,603,l),
(8,595,l),
(228,280,l),
(8,-34,l),
(16,-42,l)
);
}
);
userData = {
public.verticalOrigin = "880";
};
vertWidth = 1000;
width = 660;
}
);
unicode = 215;
}
{
glyphname = Oslash;
layers = (
{
layerId = master01;
shapes = (
{
closed = 1;
nodes = (
(160,101,l),
(111,154,o),
(48,301,o),
(48,392,q),
(48,466,o),
(93,593,o),
(169,693,o),
(263,764,o),
(362,801,o),
(408,801,q),
(461,801,o),
(578,749,o),
(629,702,q),
(706,800,l),
(791,719,l),
(698,621,l),
(729,574,o),
(765,458,o),
(765,392,q),
(765,297,o),
(697,145,o),
(589,37,o),
(465,-20,o),
(408,-20,q),
(354,-20,o),
(234,31,o),
(181,80,q),
(152,50,o),
(96,-7,o),
(60,-45,o),
(60,-45,q),
(52,-37,l)
);
},
{
closed = 1;
nodes = (
(504,652,o),
(409,714,o),
(368,714,q),
(322,714,o),
(248,653,o),
(205,545,o),
(205,472,q),
(205,393,o),
(232,268,o),
(254,221,q),
(541,589,l)
);
},
{
closed = 1;
nodes = (
(581,499,o),
(548,465,o),
(494,408,o),
(429,340,o),
(364,272,o),
(310,215,o),
(277,180,o),
(277,180,q),
(315,122,o),
(408,66,o),
(448,66,q),
(495,66,o),
(567,128,o),
(608,239,o),
(608,312,q),
(608,366,o),
(594,459,o),
(581,499,q)
);
}
);
userData = {
public.verticalOrigin = "880";
};
vertWidth = 1000;
width = 815;
}
);
unicode = 216;
}
{
glyphname = Yacute;
layers = (
{
layerId = master01;
shapes = (
{
closed = 1;
nodes = (
(196,867,l),
(366,1039,l),
(466,947,l),
(202,858,l)
);
},
{
closed = 1;
nodes = (
(251,263,l),
(-14,759,l),
(169,800,l),
(320,379,l),
(635,789,l),
(650,790,l),
(428,265,l),
(404,0,l),
(275,0,l)
);
}
);
userData = {
public.verticalOrigin = "880";
};
vertWidth = 1000;
width = 648;
}
);
unicode = 221;
}
{
glyphname = Thorn;
layers = (
{
layerId = master01;
shapes = (
{
closed = 1;
nodes = (
(87,780,l),
(269,780,l),
(263,613,l),
(316,629,o),
(411,643,o),
(452,643,q),
(534,643,o),
(645,596,o),
(703,520,o),
(703,476,q),
(703,430,o),
(663,336,o),
(562,253,o),
(385,193,o),
(248,181,q),
(243,0,l),
(115,0,l)
);
},
{
closed = 1;
nodes = (
(261,566,o),
(259,514,o),
(257,431,o),
(253,338,o),
(251,255,o),
(249,202,o),
(249,202,q),
(333,220,o),
(441,283,o),
(503,361,o),
(528,440,o),
(528,473,q),
(528,514,o),
(447,573,o),
(355,573,q),
(334,573,o),
(287,570,o),
(261,566,q)
);
}
);
userData = {
public.verticalOrigin = "880";
};
vertWidth = 1000;
width = 762;
}
);
unicode = 222;
}
{
glyphname = germandbls;
layers = (
{
layerId = master01;
shapes = (
{
closed = 1;
nodes = (
(248,2,l),
(503,25,o),
(642,131,o),
(642,292,cs),
(642,367,o),
(575,443,o),
(426,443,cs),
(420,443,l),
(543,497,o),
(603,582,o),
(603,646,cs),
(603,724,o),
(543,799,o),
(396,799,cs),
(387,799,o),
(378,799,o),
(368,798,cs),
(214,789,o),
(70,685,o),
(70,486,cs),
(70,466,l),
(93,0,l),
(216,0,l),
(228,484,ls),
(232,641,o),
(266,731,o),
(357,739,cs),
(367,739,ls),
(421,739,o),
(455,700,o),
(455,623,cs),
(455,579,o),
(397,482,o),
(247,403,c),
(247,378,l),
(264,378,ls),
(443,378,o),
(476,318,o),
(476,277,cs),
(476,187,o),
(439,115,o),
(242,20,c)
);
}
);
userData = {
public.verticalOrigin = "880";
};
vertWidth = 1000;
width = 716;
}
);
unicode = 223;
}
{
glyphname = atilde;
layers = (
{
layerId = master01;
shapes = (
{
closed = 1;
nodes = (
(481,721,o),
(447,647,o),
(413,621,o),
(391,621,q),
(367,621,o),
(315,649,o),
(269,678,o),
(251,678,q),
(217,678,o),
(166,647,o),
(146,624,q),
(140,632,l),
(172,727,o),
(227,802,o),
(252,802,q),
(278,802,o),
(325,774,o),
(369,746,o),
(391,746,q),
(426,746,o),
(477,777,o),
(496,799,q),
(502,792,l)
);
},
{
closed = 1;
nodes = (
(574,37,o),
(504,-13,o),
(476,-13,q),
(454,-13,o),
(419,22,o),
(404,61,q),
(373,34,o),
(283,-3,o),
(231,-9,q),
(215,-11,o),
(185,-13,o),
(171,-13,q),
(30,-13,o),
(30,88,q),
(30,100,o),
(34,126,o),
(38,141,q),
(47,174,o),
(102,227,o),
(180,270,o),
(262,307,o),
(333,340,o),
(378,372,o),
(378,388,q),
(378,432,o),
(356,463,o),
(325,463,q),
(303,463,o),
(211,455,o),
(101,439,o),
(51,426,q),
(46,436,l),
(73,462,o),
(158,510,o),
(255,548,o),
(351,570,o),
(390,570,q),
(452,570,o),
(513,545,o),
(534,472,o),
(534,399,q),
(534,146,l),
(534,110,o),
(547,79,o),
(571,79,q),
(579,79,o),
(602,83,o),
(616,86,q),
(620,80,l)
);
},
{
closed = 1;
nodes = (
(364,282,o),
(291,239,o),
(223,190,o),
(207,160,q),
(193,132,o),
(193,111,q),
(193,91,o),
(218,65,o),
(241,65,q),
(246,65,o),
(257,66,o),
(262,67,q),
(282,72,o),
(335,90,o),
(382,114,o),
(392,126,q),
(386,301,l)
);
}
);
userData = {
public.verticalOrigin = "880";
};
vertWidth = 1000;
width = 652;
}
);
unicode = 227;
}
{
glyphname = aring;
layers = (
{
layerId = master01;
shapes = (
{
closed = 1;
nodes = (
(361,832,o),
(275,772,o),
(275,726,q),
(275,703,o),
(302,670,o),
(326,670,q),
(344,670,o),
(371,703,o),
(371,724,q),
(371,740,o),
(353,771,o),
(330,782,q),
(410,825,l),
(440,799,o),
(467,742,o),
(467,715,q),
(467,682,o),
(432,626,o),
(373,592,o),
(337,592,q),
(275,592,o),
(201,664,o),
(201,717,q),
(201,774,o),
(303,853,o),
(406,853,q),
(426,853,l),
(428,844,l)
);
},
{
closed = 1;
nodes = (
(574,37,o),
(504,-13,o),
(476,-13,q),
(454,-13,o),
(419,22,o),
(404,61,q),
(373,34,o),
(283,-3,o),
(231,-9,q),
(215,-11,o),
(185,-13,o),
(171,-13,q),
(30,-13,o),
(30,88,q),
(30,100,o),
(34,126,o),
(38,141,q),
(47,174,o),
(102,227,o),
(180,270,o),
(262,307,o),
(333,340,o),
(378,372,o),
(378,388,q),
(378,432,o),
(356,463,o),
(325,463,q),
(303,463,o),
(211,455,o),
(101,439,o),
(51,426,q),
(46,436,l),
(73,462,o),
(158,510,o),
(255,548,o),
(351,570,o),
(390,570,q),
(452,570,o),
(513,545,o),
(534,472,o),
(534,399,q),
(534,146,l),
(534,110,o),
(547,79,o),
(571,79,q),
(579,79,o),
(602,83,o),
(616,86,q),
(620,80,l)
);
},
{
closed = 1;
nodes = (
(364,282,o),
(291,239,o),
(223,190,o),
(207,160,q),
(193,132,o),
(193,111,q),
(193,91,o),
(218,65,o),
(241,65,q),
(246,65,o),
(257,66,o),
(262,67,q),
(282,72,o),
(335,90,o),
(382,114,o),
(392,126,q),
(386,301,l)
);
}
);
userData = {
public.verticalOrigin = "880";
};
vertWidth = 1000;
width = 652;
}
);
unicode = 229;
}
{
glyphname = ae;
layers = (
{
layerId = master01;
shapes = (
{
closed = 1;
nodes = (
(869,-14,o),
(839,-14,o),
(825,-14,q),
(671,-14,o),
(481,32,o),
(432,81,q),
(410,63,o),
(345,25,o),
(269,-4,o),
(231,-9,q),
(215,-11,o),
(185,-13,o),
(171,-13,q),
(30,-13,o),
(30,88,q),
(30,100,o),
(34,126,o),
(38,141,q),
(47,174,o),
(102,227,o),
(180,270,o),
(262,307,o),
(333,340,o),
(378,372,o),
(378,388,q),
(378,432,o),
(356,463,o),
(325,463,q),
(303,463,o),
(211,455,o),
(101,439,o),
(51,426,q),
(46,436,l),
(73,462,o),
(158,510,o),
(255,548,o),
(351,570,o),
(390,570,q),
(440,570,o),
(498,556,o),
(513,533,q),
(538,550,o),
(591,570,o),
(616,570,q),
(668,570,o),
(771,538,o),
(859,466,o),
(914,349,o),
(918,264,q),
(513,216,l),
(522,161,o),
(599,81,o),
(758,23,o),
(888,-1,q),
(884,-13,l)
);
},
{
closed = 1;
nodes = (
(746,385,o),
(715,455,o),
(664,498,o),
(630,498,q),
(600,498,o),
(545,445,o),
(510,335,o),
(510,250,q),
(510,245,o),
(510,236,o),
(511,231,q),
(751,346,l)
);
},
{
closed = 1;
nodes = (
(385,156,o),
(372,221,o),
(372,258,q),
(372,266,o),
(373,284,o),
(374,292,q),
(349,275,o),
(282,234,o),
(222,188,o),
(207,160,q),
(193,132,o),
(193,111,q),
(193,91,o),
(218,65,o),
(241,65,q),
(246,65,o),
(257,66,o),
(262,67,q),
(295,75,o),
(373,107,o),
(398,129,q)
);
}
);
userData = {
public.verticalOrigin = "880";
};
vertWidth = 1000;
width = 949;
}
);
unicode = 230;
}
{
glyphname = ccedilla;
layers = (
{
layerId = master01;
shapes = (
{
closed = 1;
nodes = (
(432,-13,o),
(334,-1,q),
(306,-80,l),
(322,-66,o),
(367,-43,o),
(383,-39,q),
(395,-36,o),
(406,-36,q),
(432,-36,o),
(467,-67,o),
(467,-99,q),
(467,-103,o),
(467,-111,o),
(466,-116,q),
(458,-176,o),
(409,-223,o),
(357,-223,q),
(350,-223,o),
(333,-222,o),
(325,-221,q),
(289,-218,o),
(215,-187,o),
(192,-165,q),
(196,-157,l),
(216,-162,o),
(264,-169,o),
(283,-169,q),
(301,-169,o),
(311,-166,q),
(347,-156,o),
(354,-116,q),
(355,-113,o),
(355,-108,q),
(355,-88,o),
(336,-88,q),
(321,-88,o),
(302,-101,q),
(226,-88,l),
(238,15,l),
(126,43,o),
(38,160,o),
(38,258,q),
(38,355,o),
(100,495,o),
(207,570,o),
(274,570,q),
(365,570,o),
(512,531,o),
(561,503,q),
(497,370,l),
(436,431,o),
(340,498,o),
(290,498,q),
(261,498,o),
(213,451,o),
(186,343,o),
(186,250,q),
(186,183,o),
(264,93,o),
(435,28,o),
(574,-2,q),
(570,-13,l)
);
}
);
userData = {
public.verticalOrigin = "880";
};
vertWidth = 1000;
width = 602;
}
);
unicode = 231;
}
{
glyphname = igrave;
layers = (
{
layerId = master01;
shapes = (
{
closed = 1;
nodes = (
(124,802,l),
(294,630,l),
(288,621,l),
(24,710,l)
);
},
{
closed = 1;
nodes = (
(71,557,l),
(247,557,l),
(221,0,l),
(97,0,l)
);
}
);
userData = {
public.verticalOrigin = "880";
};
vertWidth = 1000;
width = 317;
}
);
unicode = 236;
}
{
glyphname = iacute;
layers = (
{
layerId = master01;
shapes = (
{
closed = 1;
nodes = (
(26,630,l),
(196,802,l),
(296,710,l),
(32,621,l)
);
},
{
closed = 1;
nodes = (
(71,557,l),
(247,557,l),
(221,0,l),
(97,0,l)
);
}
);
userData = {
public.verticalOrigin = "880";
};
vertWidth = 1000;
width = 317;
}
);
unicode = 237;
}
{
glyphname = icircumflex;
layers = (
{
layerId = master01;
shapes = (
{
closed = 1;
nodes = (
(-12,614,l),
(-18,623,l),
(116,811,l),
(205,811,l),
(339,623,l),
(333,614,l),
(160,699,l)
);
},
{
closed = 1;
nodes = (
(71,557,l),
(247,557,l),
(221,0,l),
(97,0,l)
);
}
);
userData = {
public.verticalOrigin = "880";
};
vertWidth = 1000;
width = 317;
}
);
unicode = 238;
}
{
glyphname = idieresis;
layers = (
{
layerId = master01;
shapes = (
{
closed = 1;
nodes = (
(186,779,l),
(347,751,l),
(239,643,l)
);
},
{
closed = 1;
nodes = (
(131,751,l),
(24,643,l),
(-28,779,l)
);
},
{
closed = 1;
nodes = (
(72,557,l),
(248,557,l),
(222,0,l),
(98,0,l)
);
}
);
userData = {
public.verticalOrigin = "880";
};
vertWidth = 1000;
width = 317;
}
);
unicode = 239;
}
{
glyphname = eth;
layers = (
{
layerId = master01;
shapes = (
{
closed = 1;
nodes = (
(483,591,o),
(574,463,o),
(626,331,o),
(626,269,q),
(626,218,o),
(581,115,o),
(498,31,o),
(384,-20,o),
(315,-20,q),
(255,-20,o),
(149,22,o),
(68,95,o),
(23,188,o),
(23,238,q),
(23,286,o),
(62,370,o),
(126,433,o),
(205,469,o),
(244,469,q),
(300,469,o),
(418,421,o),
(455,379,q),
(432,434,o),
(372,554,o),
(331,615,q),
(55,524,l),
(52,534,l),
(295,666,l),
(269,699,o),
(208,765,o),
(173,796,q),
(181,803,l),
(274,768,o),
(359,701,q),
(531,795,l),
(572,695,l),
(424,646,l)
);
},
{
closed = 1;
nodes = (
(433,349,o),
(341,381,o),
(285,381,q),
(239,381,o),
(174,303,o),
(174,220,q),
(174,174,o),
(211,96,o),
(269,49,o),
(301,49,q),
(330,49,o),
(386,89,o),
(434,159,o),
(462,249,o),
(462,299,q),
(462,304,o),
(461,313,o),
(461,317,q)
);
}
);
userData = {
public.verticalOrigin = "880";
};
vertWidth = 1000;
width = 649;
}
);
unicode = 240;
}
{
glyphname = ntilde;
layers = (
{
layerId = master01;
shapes = (
{
closed = 1;
nodes = (
(498,721,o),
(464,647,o),
(430,621,o),
(408,621,q),
(384,621,o),
(332,649,o),
(286,678,o),
(268,678,q),
(234,678,o),
(183,647,o),
(163,624,q),
(157,632,l),
(189,727,o),
(244,802,o),
(269,802,q),
(295,802,o),
(342,774,o),
(386,746,o),
(408,746,q),
(443,746,o),
(494,777,o),
(513,799,q),
(519,792,l)
);
},
{
closed = 1;
nodes = (
(442,343,l),
(439,409,o),
(410,452,o),
(379,452,q),
(355,452,o),
(269,427,o),
(228,401,q),
(209,0,l),
(86,0,l),
(60,557,l),
(235,557,l),
(230,451,l),
(261,486,o),
(342,540,o),
(430,570,o),
(470,570,q),
(545,570,o),
(599,489,o),
(599,412,q),
(599,405,o),
(598,392,o),
(598,384,q),
(582,0,l),
(458,0,l)
);
}
);
userData = {
public.verticalOrigin = "880";
};
vertWidth = 1000;
width = 663;
}
);
unicode = 241;
}
{
glyphname = odieresis;
layers = (
{
layerId = master01;
shapes = (
{
closed = 1;
nodes = (
(358,779,l),
(519,751,l),
(411,643,l)
);
},
{
closed = 1;
nodes = (
(303,751,l),
(196,643,l),
(143,779,l)
);
},
{
closed = 1;
nodes = (
(624,212,o),
(570,105,o),
(482,29,o),
(380,-12,o),
(332,-12,q),
(284,-12,o),
(182,29,o),
(93,105,o),
(38,212,o),
(38,278,q),
(38,344,o),
(93,452,o),
(182,529,o),
(284,570,o),
(332,570,q),
(380,570,o),
(482,529,o),
(570,452,o),
(624,344,o),
(624,278,q)
);
},
{
closed = 1;
nodes = (
(415,60,o),
(471,137,o),
(471,238,q),
(471,328,o),
(416,442,o),
(338,495,o),
(302,495,q),
(267,495,o),
(217,463,o),
(191,386,o),
(191,318,q),
(191,257,o),
(224,161,o),
(276,94,o),
(335,60,o),
(362,60,q)
);
}
);
userData = {
public.verticalOrigin = "880";
};
vertWidth = 1000;
width = 662;
}
);
unicode = 246;
}
{
glyphname = divide;
layers = (
{
layerId = master01;
shapes = (
{
closed = 1;
nodes = (
(631,298,l),
(631,305,l),
(51,375,l),
(51,227,l)
);
},
{
closed = 1;
nodes = (
(442,133,l),
(224,171,l),
(296,-14,l)
);
},
{
closed = 1;
nodes = (
(442,540,l),
(224,578,l),
(296,392,l)
);
}
);
userData = {
public.verticalOrigin = "880";
};
vertWidth = 1000;
width = 680;
}
);
unicode = 247;
}
{
glyphname = oslash;
layers = (
{
layerId = master01;
shapes = (
{
closed = 1;
nodes = (
(38,-32,l),
(128,75,l),
(88,113,o),
(38,216,o),
(38,278,q),
(38,344,o),
(93,452,o),
(182,529,o),
(284,570,o),
(332,570,q),
(371,570,o),
(455,542,o),
(493,516,q),
(547,581,l),
(624,506,l),
(564,449,l),
(591,414,o),
(624,328,o),
(624,278,q),
(624,212,o),
(570,105,o),
(482,29,o),
(380,-12,o),
(332,-12,q),
(288,-12,o),
(192,22,o),
(151,55,q),
(47,-43,l)
);
},
{
closed = 1;
nodes = (
(394,461,o),
(331,495,o),
(302,495,q),
(267,495,o),
(217,463,o),
(191,386,o),
(191,318,q),
(191,279,o),
(205,212,o),
(217,183,q),
(419,426,l)
);
},
{
closed = 1;
nodes = (
(267,101,o),
(333,60,o),
(362,60,q),
(415,60,o),
(471,137,o),
(471,238,q),
(471,299,o),
(457,346,q),
(241,141,l)
);
}
);
userData = {
public.verticalOrigin = "880";
};
vertWidth = 1000;
width = 662;
}
);
unicode = 248;
}
{
glyphname = thorn;
layers = (
{
layerId = master01;
shapes = (
{
closed = 1;
nodes = (
(68,780,l),
(243,780,l),
(235,486,l),
(262,508,o),
(332,546,o),
(408,570,o),
(442,570,q),
(537,570,o),
(630,453,o),
(630,346,q),
(630,241,o),
(529,94,o),
(345,8,o),
(222,-6,q),
(217,-192,l),
(94,-192,l)
);
},
{
closed = 1;
nodes = (
(319,73,o),
(431,166,o),
(480,278,o),
(480,338,q),
(480,406,o),
(434,466,o),
(390,466,q),
(351,466,o),
(275,454,o),
(234,439,q),
(223,39,l)
);
}
);
userData = {
public.verticalOrigin = "880";
};
vertWidth = 1000;
width = 669;
}
);
unicode = 254;
}
{
glyphname = ydieresis;
layers = (
{
layerId = master01;
shapes = (
{
closed = 1;
nodes = (
(329,779,l),
(490,751,l),
(382,643,l)
);
},
{
closed = 1;
nodes = (
(274,751,l),
(167,643,l),
(114,779,l)
);
},
{
closed = 1;
nodes = (
(274,74,l),
(27,527,l),
(201,570,l),
(329,164,l),
(574,566,l),
(588,566,l),
(300,-229,l),
(132,-157,l)
);
}
);
userData = {
public.verticalOrigin = "880";
};
vertWidth = 1000;
width = 598;
}
);
unicode = 255;
}
{
color = (153,254,255,255);
glyphname = Amacron;
layers = (
{
layerId = master01;
shapes = (
{
closed = 1;
nodes = (
(514,241,l),
(118,172,l),
(14,-11,l),
(-1,-11,l),
(272,779,l),
(430,803,l),
(750,2,l),
(632,-11,l)
);
},
{
closed = 1;
nodes = (
(196,312,l),
(502,265,l),
(351,589,l)
);
},
{
closed = 1;
nodes = (
(205,993,l),
(545,936,l),
(545,927,l),
(205,869,l)
);
}
);
userData = {
public.verticalOrigin = "880";
};
vertWidth = 1000;
width = 752;
}
);
unicode = 256;
}
{
color = (153,254,255,255);
glyphname = Emacron;
layers = (
{
layerId = master01;
shapes = (
{
closed = 1;
nodes = (
(88,780,l),
(270,780,l),
(268,704,l),
(628,790,l),
(628,628,l),
(267,663,l),
(261,410,l),
(577,484,l),
(577,325,l),
(260,370,l),
(254,129,l),
(648,87,l),
(648,77,l),
(125,-10,l)
);
},
{
closed = 1;
nodes = (
(202,993,l),
(542,936,l),
(542,927,l),
(202,869,l)
);
}
);
userData = {
public.verticalOrigin = "880";
};
vertWidth = 1000;
width = 689;
}
);
unicode = 274;
}
{
color = (153,254,255,255);
glyphname = Imacron;
layers = (
{
layerId = master01;
shapes = (
{
closed = 1;
nodes = (
(92,780,l),
(280,780,l),
(252,0,l),
(120,0,l)
);
},
{
closed = 1;
nodes = (
(17,993,l),
(357,936,l),
(357,927,l),
(17,869,l)
);
}
);
userData = {
public.verticalOrigin = "880";
};
vertWidth = 1000;
width = 372;
}
);
unicode = 298;
}
{
color = (153,254,255,255);
glyphname = imacron;
layers = (
{
layerId = master01;
shapes = (
{
closed = 1;
nodes = (
(71,557,l),
(247,557,l),
(221,0,l),
(97,0,l)
);
},
{
closed = 1;
nodes = (
(-9,774,l),
(331,717,l),
(331,708,l),
(-9,650,l)
);
}
);
userData = {
public.verticalOrigin = "880";
};
vertWidth = 1000;
width = 317;
}
);
unicode = 299;
}
{
glyphname = idotless;
layers = (
{
layerId = master01;
shapes = (
{
closed = 1;
nodes = (
(71,557,l),
(247,557,l),
(221,0,l),
(97,0,l)
);
}
);
userData = {
public.verticalOrigin = "880";
};
vertWidth = 1000;
width = 317;
}
);
unicode = 305;
}
{
color = (153,254,255,255);
glyphname = Nacute;
layers = (
{
layerId = master01;
shapes = (
{
closed = 1;
nodes = (
(255,584,l),
(166,-13,l),
(150,-13,l),
(86,780,l),
(250,780,l),
(592,366,l),
(698,790,l),
(717,790,l),
(679,-13,l),
(671,-13,l)
);
},
{
closed = 1;
nodes = (
(280,867,l),
(450,1039,l),
(550,947,l),
(286,858,l)
);
}
);
userData = {
public.verticalOrigin = "880";
};
vertWidth = 1000;
width = 807;
}
);
unicode = 323;
}
{
color = (153,254,255,255);
glyphname = Ncaron;
layers = (
{
layerId = master01;
shapes = (
{
closed = 1;
nodes = (
(255,584,l),
(166,-13,l),
(150,-13,l),
(86,780,l),
(250,780,l),
(592,366,l),
(698,790,l),
(717,790,l),
(679,-13,l),
(671,-13,l)
);
},
{
closed = 1;
nodes = (
(236,1024,l),
(242,1033,l),
(415,948,l),
(588,1033,l),
(594,1024,l),
(460,836,l),
(371,836,l)
);
}
);
userData = {
public.verticalOrigin = "880";
};
vertWidth = 1000;
width = 807;
}
);
unicode = 327;
}
{
glyphname = OE;
layers = (
{
layerId = master01;
shapes = (
{
closed = 1;
nodes = (
(487,38,l),
(423,-20,o),
(335,-20,q),
(288,-20,o),
(185,37,o),
(95,145,o),
(39,297,o),
(39,392,q),
(39,485,o),
(86,636,o),
(167,743,o),
(272,801,o),
(331,801,q),
(398,801,o),
(457,756,q),
(456,780,l),
(620,780,l),
(618,707,l),
(902,790,l),
(902,628,l),
(617,662,l),
(612,412,l),
(856,484,l),
(856,325,l),
(611,369,l),
(606,129,l),
(920,87,l),
(920,77,l),
(489,-10,l)
);
},
{
closed = 1;
nodes = (
(448,589,o),
(349,714,o),
(297,714,q),
(241,714,o),
(191,581,o),
(191,472,q),
(191,330,o),
(246,150,o),
(329,66,o),
(369,66,q),
(414,66,o),
(471,165,o),
(478,248,q),
(469,464,l)
);
}
);
userData = {
public.verticalOrigin = "880";
};
vertWidth = 1000;
width = 960;
}
);
unicode = 338;
}
{
glyphname = oe;
layers = (
{
layerId = master01;
shapes = (
{
closed = 1;
nodes = (
(922,-14,o),
(891,-14,o),
(876,-14,q),
(736,-14,o),
(554,25,o),
(503,66,q),
(466,29,o),
(372,-12,o),
(322,-12,q),
(274,-12,o),
(172,29,o),
(83,105,o),
(28,212,o),
(28,278,q),
(28,344,o),
(83,452,o),
(172,529,o),
(274,570,o),
(322,570,q),
(366,570,o),
(461,527,o),
(499,487,q),
(532,520,o),
(618,570,o),
(670,570,q),
(722,570,o),
(825,538,o),
(913,466,o),
(968,349,o),
(972,264,q),
(567,216,l),
(576,161,o),
(653,81,o),
(812,23,o),
(942,-1,q),
(938,-13,l)
);
},
{
closed = 1;
nodes = (
(800,385,o),
(769,455,o),
(718,498,o),
(684,498,q),
(654,498,o),
(599,445,o),
(564,335,o),
(564,250,q),
(564,245,o),
(564,236,o),
(565,231,q),
(805,346,l)
);
},
{
closed = 1;
nodes = (
(357,60,o),
(397,106,o),
(425,187,o),
(425,238,q),
(425,328,o),
(380,442,o),
(316,495,o),
(286,495,q),
(261,495,o),
(209,455,o),
(175,376,o),
(175,318,q),
(175,236,o),
(219,121,o),
(293,60,o),
(338,60,q)
);
}
);
userData = {
public.verticalOrigin = "880";
};
vertWidth = 1000;
width = 1000;
}
);
unicode = 339;
}
{
glyphname = scaron;
layers = (
{
layerId = master01;
shapes = (
{
closed = 1;
nodes = (
(111,806,l),
(117,815,l),
(290,730,l),
(463,815,l),
(469,806,l),
(335,618,l),
(246,618,l)
);
},
{
closed = 1;
nodes = (
(434,395,o),
(354,447,o),
(271,486,o),
(240,491,q),
(233,493,o),
(219,493,o),
(212,493,q),
(181,493,o),
(141,471,o),
(141,454,q),
(141,438,o),
(161,422,q),
(181,407,o),
(262,367,o),
(360,318,o),
(456,260,o),
(528,196,o),
(540,160,q),
(549,135,o),
(549,113,q),
(549,55,o),
(431,-12,o),
(315,-12,q),
(224,-12,o),
(68,88,o),
(17,167,q),
(25,177,l),
(87,129,o),
(227,74,o),
(294,74,q),
(339,74,o),
(390,98,o),
(390,116,q),
(390,120,o),
(388,126,q),
(378,154,o),
(302,207,o),
(199,266,o),
(92,339,o),
(50,386,q),
(27,414,o),
(27,443,q),
(27,475,o),
(73,533,o),
(157,570,o),
(213,570,q),
(281,570,o),
(403,548,o),
(500,513,o),
(528,492,q),
(460,369,l)
);
}
);
userData = {
public.verticalOrigin = "880";
};
vertWidth = 1000;
width = 577;
}
);
unicode = 353;
}
{
color = (153,254,255,255);
glyphname = Umacron;
layers = (
{
layerId = master01;
shapes = (
{
closed = 1;
nodes = (
(685,790,l),
(719,270,l),
(719,266,o),
(720,257,o),
(720,252,q),
(720,173,o),
(636,50,o),
(493,-20,o),
(405,-20,q),
(311,-20,o),
(180,60,o),
(111,192,o),
(108,270,q),
(88,780,l),
(273,780,l),
(243,278,l),
(243,272,o),
(242,261,o),
(242,256,q),
(242,163,o),
(332,54,o),
(405,54,q),
(445,54,o),
(512,113,o),
(561,218,o),
(574,286,q),
(672,790,l)
);
},
{
closed = 1;
nodes = (
(238,993,l),
(578,936,l),
(578,927,l),
(238,869,l)
);
}
);
userData = {
public.verticalOrigin = "880";
};
vertWidth = 1000;
width = 809;
}
);
unicode = 362;
}
{
glyphname = Zcaron;
layers = (
{
layerId = master01;
shapes = (
{
closed = 1;
nodes = (
(180,1023,l),
(186,1032,l),
(359,947,l),
(532,1032,l),
(538,1023,l),
(404,835,l),
(315,835,l)
);
},
{
closed = 1;
nodes = (
(57,114,l),
(452,738,l),
(87,618,l),
(87,780,l),
(667,780,l),
(195,131,l),
(671,77,l),
(671,63,l),
(95,-11,l)
);
}
);
userData = {
public.verticalOrigin = "880";
};
vertWidth = 1000;
width = 708;
}
);
unicode = 381;
}
{
glyphname = zcaron;
layers = (
{
layerId = master01;
shapes = (
{
closed = 1;
nodes = (
(111,806,l),
(117,815,l),
(290,730,l),
(463,815,l),
(469,806,l),
(335,618,l),
(246,618,l)
);
},
{
closed = 1;
nodes = (
(37,97,l),
(344,508,l),
(58,414,l),
(58,557,l),
(547,557,l),
(175,113,l),
(560,67,l),
(560,56,l),
(57,-13,l)
);
}
);
userData = {
public.verticalOrigin = "880";
};
vertWidth = 1000;
width = 577;
}
);
unicode = 382;
}
{
glyphname = florin;
layers = (
{
layerId = master01;
shapes = (
{
closed = 1;
nodes = (
(35,-108,o),
(87,-117,o),
(110,-117,q),
(154,-117,o),
(176,-102,q),
(190,-92,o),
(206,-11,o),
(214,104,o),
(218,231,o),
(221,287,q),
(225,372,l),
(124,358,l),
(124,475,l),
(233,462,l),
(244,575,o),
(290,716,o),
(333,737,q),
(356,748,o),
(400,757,o),
(421,757,q),
(471,757,o),
(551,719,o),
(569,705,q),
(503,598,l),
(481,631,o),
(435,676,o),
(412,676,q),
(402,676,o),
(394,672,q),
(382,666,o),
(370,599,o),
(365,501,o),
(364,446,q),
(518,427,l),
(518,414,l),
(363,392,l),
(362,360,o),
(362,298,o),
(360,270,q),
(355,153,o),
(333,-34,o),
(288,-155,o),
(246,-174,q),
(230,-181,o),
(198,-188,o),
(182,-188,q),
(142,-188,o),
(69,-158,o),
(15,-122,o),
(3,-112,q),
(11,-99,l)
);
}
);
userData = {
public.verticalOrigin = "880";
};
vertWidth = 1000;
width = 573;
}
);
unicode = 402;
}
{
color = (153,254,255,255);
glyphname = Acaron;
layers = (
{
layerId = master01;
shapes = (
{
closed = 1;
nodes = (
(514,241,l),
(118,172,l),
(14,-11,l),
(-1,-11,l),
(272,779,l),
(430,803,l),
(750,2,l),
(632,-11,l)
);
},
{
closed = 1;
nodes = (
(196,312,l),
(502,265,l),
(351,589,l)
);
},
{
closed = 1;
nodes = (
(196,1024,l),
(202,1033,l),
(375,948,l),
(548,1033,l),
(554,1024,l),
(420,836,l),
(331,836,l)
);
}
);
userData = {
public.verticalOrigin = "880";
};
vertWidth = 1000;
width = 752;
}
);
unicode = 461;
}
{
color = (153,254,255,255);
glyphname = Icaron;
layers = (
{
layerId = master01;
shapes = (
{
closed = 1;
nodes = (
(92,780,l),
(280,780,l),
(252,0,l),
(120,0,l)
);
},
{
closed = 1;
nodes = (
(8,1024,l),
(14,1033,l),
(187,948,l),
(360,1033,l),
(366,1024,l),
(232,836,l),
(143,836,l)
);
}
);
userData = {
public.verticalOrigin = "880";
};
vertWidth = 1000;
width = 372;
}
);
unicode = 463;
}
{
color = (153,254,255,255);
glyphname = icaron;
layers = (
{
layerId = master01;
shapes = (
{
closed = 1;
nodes = (
(71,557,l),
(247,557,l),
(221,0,l),
(97,0,l)
);
},
{
closed = 1;
nodes = (
(-18,806,l),
(-12,815,l),
(161,730,l),
(334,815,l),
(340,806,l),
(206,618,l),
(117,618,l)
);
}
);
userData = {
public.verticalOrigin = "880";
};
vertWidth = 1000;
width = 317;
}
);
unicode = 464;
}
{
color = (153,254,255,255);
glyphname = ocaron;
layers = (
{
layerId = master01;
shapes = (
{
closed = 1;
nodes = (
(624,212,o),
(570,105,o),
(482,29,o),
(380,-12,o),
(332,-12,q),
(284,-12,o),
(182,29,o),
(93,105,o),
(38,212,o),
(38,278,q),
(38,344,o),
(93,452,o),
(182,529,o),
(284,570,o),
(332,570,q),
(380,570,o),
(482,529,o),
(570,452,o),
(624,344,o),
(624,278,q)
);
},
{
closed = 1;
nodes = (
(415,60,o),
(471,137,o),
(471,238,q),
(471,328,o),
(416,442,o),
(338,495,o),
(302,495,q),
(267,495,o),
(217,463,o),
(191,386,o),
(191,318,q),
(191,257,o),
(224,161,o),
(276,94,o),
(335,60,o),
(362,60,q)
);
},
{
closed = 1;
nodes = (
(153,806,l),
(159,815,l),
(332,730,l),
(505,815,l),
(511,806,l),
(377,618,l),
(288,618,l)
);
}
);
userData = {
public.verticalOrigin = "880";
};
vertWidth = 1000;
width = 662;
}
);
unicode = 466;
}
{
color = (153,254,255,255);
glyphname = Ngrave;
layers = (
{
layerId = master01;
shapes = (
{
closed = 1;
nodes = (
(255,584,l),
(166,-13,l),
(150,-13,l),
(86,780,l),
(250,780,l),
(592,366,l),
(698,790,l),
(717,790,l),
(679,-13,l),
(671,-13,l)
);
},
{
closed = 1;
nodes = (
(380,1039,l),
(550,867,l),
(544,858,l),
(280,947,l)
);
}
);
userData = {
public.verticalOrigin = "880";
};
vertWidth = 1000;
width = 807;
}
);
unicode = 504;
}
{
color = (153,254,255,255);
glyphname = ngrave;
layers = (
{
layerId = master01;
shapes = (
{
closed = 1;
nodes = (
(442,343,l),
(439,409,o),
(410,452,o),
(379,452,q),
(355,452,o),
(269,427,o),
(228,401,q),
(209,0,l),
(86,0,l),
(60,557,l),
(235,557,l),
(230,451,l),
(261,486,o),
(342,540,o),
(430,570,o),
(470,570,q),
(545,570,o),
(599,489,o),
(599,412,q),
(599,405,o),
(598,392,o),
(598,384,q),
(582,0,l),
(458,0,l)
);
},
{
closed = 1;
nodes = (
(303,802,l),
(473,630,l),
(467,621,l),
(203,710,l)
);
}
);
userData = {
public.verticalOrigin = "880";
};
vertWidth = 1000;
width = 673;
}
);
unicode = 505;
}
{
glyphname = commaturnedmod;
layers = (
{
layerId = master01;
shapes = (
{
closed = 1;
nodes = (
(239,840,l),
(247,834,l),
(187,682,l),
(306,644,l),
(200,487,l),
(62,619,l)
);
}
);
userData = {
public.verticalOrigin = "880";
};
vertWidth = 1000;
width = 345;
}
);
unicode = 699;
}
{
glyphname = apostrophemod;
layers = (
{
layerId = master01;
shapes = (
{
closed = 1;
nodes = (
(284,707,l),
(146,839,l),
(40,682,l),
(159,644,l),
(99,492,l),
(107,486,l)
);
}
);
userData = {
public.verticalOrigin = "880";
};
vertWidth = 1000;
width = 345;
}
);
unicode = 700;
}
{
glyphname = circumflex;
layers = (
{
layerId = master01;
shapes = (
{
closed = 1;
nodes = (
(77,614,l),
(71,623,l),
(206,811,l),
(295,811,l),
(429,623,l),
(423,614,l),
(250,699,l)
);
}
);
userData = {
public.verticalOrigin = "880";
};
vertWidth = 1000;
width = 500;
}
);
unicode = (710,770);
}
{
color = (153,254,255,255);
glyphname = secondtonechinese;
layers = (
{
layerId = master01;
shapes = (
{
closed = 1;
nodes = (
(118,623,l),
(106,645,l),
(314,837,l),
(400,710,l)
);
}
);
userData = {
public.verticalOrigin = "880";
};
vertWidth = 1000;
width = 500;
}
);
unicode = (714,769);
}
{
color = (153,254,255,255);
glyphname = dotaccent;
layers = (
{
layerId = master01;
shapes = (
{
closed = 1;
nodes = (
(331,752,l),
(224,644,l),
(171,780,l)
);
}
);
userData = {
public.verticalOrigin = "880";
};
vertWidth = 1000;
width = 500;
}
);
unicode = 729;
}
{
glyphname = ring;
layers = (
{
layerId = master01;
shapes = (
{
closed = 1;
nodes = (
(277,832,o),
(191,772,o),
(191,726,q),
(191,703,o),
(218,670,o),
(242,670,q),
(260,670,o),
(287,703,o),
(287,724,q),
(287,740,o),
(269,771,o),
(246,782,q),
(326,825,l),
(356,799,o),
(383,742,o),
(383,715,q),
(383,682,o),
(348,626,o),
(289,592,o),
(253,592,q),
(191,592,o),
(117,664,o),
(117,717,q),
(117,774,o),
(219,853,o),
(322,853,q),
(342,853,l),
(344,844,l)
);
}
);
userData = {
public.verticalOrigin = "880";
};
vertWidth = 1000;
width = 500;
}
);
unicode = (730,778);
}
{
glyphname = tilde;
layers = (
{
layerId = master01;
shapes = (
{
closed = 1;
nodes = (
(411,721,o),
(377,647,o),
(343,621,o),
(321,621,q),
(297,621,o),
(245,649,o),
(199,678,o),
(181,678,q),
(147,678,o),
(96,647,o),
(76,624,q),
(70,632,l),
(102,727,o),
(157,802,o),
(182,802,q),
(208,802,o),
(255,774,o),
(299,746,o),
(321,746,q),
(356,746,o),
(407,777,o),
(426,799,q),
(432,792,l)
);
}
);
userData = {
public.verticalOrigin = "880";
};
vertWidth = 1000;
width = 500;
}
);
unicode = (732,771);
}
{
glyphname = gravecomb;
layers = (
{
anchors = (
{
name = _top;
pos = (300,557);
},
{
name = top;
pos = (300,735);
}
);
layerId = master01;
shapes = (
{
closed = 1;
nodes = (
(421,621,l),
(427,630,l),
(257,802,l),
(157,710,l)
);
}
);
width = 600;
}
);
unicode = 768;
}
{
glyphname = tildecomb;
layers = (
{
anchors = (
{
name = _top;
pos = (300,557);
},
{
name = top;
pos = (300,760);
}
);
layerId = master01;
shapes = (
{
closed = 1;
nodes = (
(470,799,l),
(444,769,o),
(412,746,o),
(365,746,cs),
(321,746,o),
(278,802,o),
(226,802,cs),
(192,802,o),
(157,759,o),
(114,632,c),
(120,624,l),
(147,655,o),
(180,678,o),
(225,678,cs),
(260,678,o),
(316,621,o),
(365,621,cs),
(408,621,o),
(434,649,o),
(476,792,c)
);
}
);
width = 600;
}
);
unicode = 771;
}
{
glyphname = overlinecomb;
layers = (
{
layerId = master01;
shapes = (
{
closed = 1;
nodes = (
(0,866,l),
(500,866,l),
(500,798,l),
(0,798,l)
);
}
);
userData = {
public.verticalOrigin = "880";
};
vertWidth = 1000;
width = 0;
}
);
unicode = (773,8254);
}
{
glyphname = brevecomb;
layers = (
{
layerId = master01;
shapes = (
{
closed = 1;
nodes = (
(439,759,o),
(389,678,o),
(309,627,o),
(251,627,q),
(195,627,o),
(114,677,o),
(64,757,o),
(52,801,q),
(60,808,l),
(98,777,o),
(199,742,o),
(251,742,q),
(299,742,o),
(401,778,o),
(443,810,q),
(450,804,l)
);
}
);
userData = {
public.verticalOrigin = "880";
};
vertWidth = 1000;
width = 0;
}
);
unicode = 774;
}
{
glyphname = dotaccentcomb;
layers = (
{
layerId = master01;
shapes = (
{
closed = 1;
nodes = (
(331,752,l),
(224,644,l),
(171,780,l)
);
}
);
userData = {
public.verticalOrigin = "880";
};
vertWidth = 1000;
width = 0;
}
);
unicode = 775;
}
{
glyphname = dieresiscomb;
layers = (
{
layerId = master01;
shapes = (
{
closed = 1;
nodes = (
(278,780,l),
(439,752,l),
(331,644,l)
);
},
{
closed = 1;
nodes = (
(223,752,l),
(116,644,l),
(63,780,l)
);
}
);
userData = {
public.verticalOrigin = "880";
};
vertWidth = 1000;
width = 0;
}
);
unicode = 776;
}
{
glyphname = hungarumlautcomb;
layers = (
{
layerId = master01;
shapes = (
{
closed = 1;
nodes = (
(230,610,l),
(350,820,l),
(470,757,l),
(238,603,l)
);
},
{
closed = 1;
nodes = (
(30,610,l),
(150,820,l),
(270,757,l),
(38,603,l)
);
}
);
userData = {
public.verticalOrigin = "880";
};
vertWidth = 1000;
width = 0;
}
);
unicode = 779;
}
{
glyphname = caroncomb;
layers = (
{
layerId = master01;
shapes = (
{
closed = 1;
nodes = (
(71,806,l),
(77,815,l),
(250,730,l),
(423,815,l),
(429,806,l),
(295,618,l),
(206,618,l)
);
}
);
userData = {
public.verticalOrigin = "880";
};
vertWidth = 1000;
width = 0;
}
);
unicode = 780;
}
{
glyphname = ogonekcomb;
layers = (
{
layerId = master01;
shapes = (
{
closed = 1;
nodes = (
(336,-168,o),
(227,-157,o),
(152,-132,o),
(137,-110,q),
(130,-100,o),
(125,-77,o),
(125,-65,q),
(125,-37,o),
(151,23,o),
(171,50,q),
(257,20,l),
(250,-2,o),
(243,-37,o),
(243,-49,q),
(243,-58,o),
(245,-64,q),
(248,-73,o),
(278,-101,o),
(345,-138,o),
(404,-161,q),
(401,-172,l)
);
}
);
userData = {
public.verticalOrigin = "880";
};
vertWidth = 1000;
width = 0;
}
);
unicode = 808;
}
{
glyphname = strokelongcomb;
layers = (
{
layerId = master01;
shapes = (
{
closed = 1;
nodes = (
(0,296,l),
(1000,296,l),
(1000,228,l),
(0,228,l)
);
}
);
userData = {
public.verticalOrigin = "880";
};
vertWidth = 1000;
width = 1000;
}
);
unicode = 822;
}
{
color = (153,254,255,255);
glyphname = Gamma;
kernRight = F;
layers = (
{
layerId = master01;
shapes = (
{
closed = 1;
nodes = (
(88,780,l),
(270,780,l),
(268,705,l),
(610,790,l),
(610,628,l),
(267,663,l),
(253,0,l),
(125,0,l)
);
}
);
userData = {
public.verticalOrigin = "880";
};
vertWidth = 1000;
width = 645;
}
);
unicode = 915;
}
{
color = (153,254,255,255);
glyphname = Delta;
layers = (
{
layerId = master01;
shapes = (
{
closed = 1;
nodes = (
(288,779,l),
(446,803,l),
(751,2,l),
(-1,-11,l)
);
},
{
closed = 1;
nodes = (
(128,121,l),
(584,80,l),
(367,589,l)
);
}
);
userData = {
public.verticalOrigin = "880";
};
vertWidth = 1000;
width = 753;
}
);
unicode = 916;
}
{
color = (153,254,255,255);
glyphname = Eta;
layers = (
{
layerId = master01;
shapes = (
{
closed = 1;
nodes = (
(549,380,l),
(257,339,l),
(245,0,l),
(116,0,l),
(88,780,l),
(273,780,l),
(262,471,l),
(548,420,l),
(535,780,l),
(722,780,l),
(694,0,l),
(563,0,l)
);
}
);
userData = {
public.verticalOrigin = "880";
};
vertWidth = 1000;
width = 810;
}
);
unicode = 919;
}
{
color = (153,254,255,255);
glyphname = Lambda;
kernLeft = A;
kernRight = A;
layers = (
{
layerId = master01;
shapes = (
{
closed = 1;
nodes = (
(352,589,l),
(15,-11,l),
(-1,-11,l),
(273,779,l),
(431,803,l),
(751,2,l),
(633,-11,l)
);
}
);
userData = {
public.verticalOrigin = "880";
};
vertWidth = 1000;
width = 753;
}
);
unicode = 923;
}
{
color = (153,254,255,255);
glyphname = Nu;
layers = (
{
layerId = master01;
shapes = (
{
closed = 1;
nodes = (
(255,574,l),
(176,-13,l),
(160,-13,l),
(86,780,l),
(260,780,l),
(592,366,l),
(698,790,l),
(717,790,l),
(679,-13,l),
(671,-13,l)
);
}
);
userData = {
public.verticalOrigin = "880";
};
vertWidth = 1000;
width = 807;
}
);
unicode = 925;
}
{
color = (153,254,255,255);
glyphname = Xi;
layers = (
{
layerId = master01;
shapes = (
{
closed = 1;
nodes = (
(675,694,l),
(675,706,l),
(91,780,l),
(91,614,l)
);
},
{
closed = 1;
nodes = (
(628,386,l),
(628,399,l),
(117,483,l),
(117,316,l)
);
},
{
closed = 1;
nodes = (
(705,60,l),
(705,70,l),
(57,164,l),
(57,-9,l)
);
}
);
userData = {
public.verticalOrigin = "880";
};
vertWidth = 1000;
width = 746;
}
);
unicode = 926;
}
{
color = (153,254,255,255);
glyphname = Pi;
layers = (
{
layerId = master01;
shapes = (
{
closed = 1;
nodes = (
(424,682,l),
(256,660,l),
(231,0,l),
(117,0,l),
(92,639,l),
(16,630,l),
(16,787,l),
(726,729,l),
(726,720,l),
(596,704,l),
(568,0,l),
(452,0,l)
);
}
);
userData = {
public.verticalOrigin = "880";
};
vertWidth = 1000;
width = 724;
}
);
unicode = 928;
}
{
color = (153,254,255,255);
glyphname = Sigma;
layers = (
{
layerId = master01;
shapes = (
{
closed = 1;
nodes = (
(57,135,l),
(400,427,l),
(57,780,l),
(649,780,l),
(649,617,l),
(315,701,l),
(590,372,l),
(204,144,l),
(695,47,l),
(695,32,l),
(97,-9,l)
);
}
);
userData = {
public.verticalOrigin = "880";
};
vertWidth = 1000;
width = 722;
}
);
unicode = 931;
}
{
color = (153,254,255,255);
glyphname = Upsilon;
layers = (
{
layerId = master01;
shapes = (
{
closed = 1;
nodes = (
(335,389,l),
(323,428,o),
(291,512,o),
(238,589,o),
(196,614,q),
(178,625,o),
(135,635,o),
(110,635,q),
(88,635,o),
(41,628,o),
(16,623,q),
(81,795,l),
(145,795,o),
(238,783,o),
(281,751,q),
(313,727,o),
(363,648,o),
(400,556,o),
(410,514,q),
(430,568,o),
(485,671,o),
(550,753,o),
(619,801,o),
(653,801,q),
(700,801,o),
(793,741,o),
(829,695,q),
(822,685,l),
(789,706,o),
(731,732,o),
(705,732,q),
(670,732,o),
(611,666,o),
(563,561,o),
(526,443,o),
(512,391,q),
(488,0,l),
(359,0,l)
);
}
);
userData = {
public.verticalOrigin = "880";
};
vertWidth = 1000;
width = 827;
}
);
unicode = 933;
}
{
color = (153,254,255,255);
glyphname = Phi;
kernRight = O;
layers = (
{
layerId = master01;
shapes = (
{
closed = 1;
nodes = (
(515,0,l),
(518,77,l),
(668,107,o),
(865,236,o),
(865,397,cs),
(865,545,o),
(687,670,o),
(541,707,c),
(543,780,l),
(367,780,l),
(370,706,l),
(223,668,o),
(48,544,o),
(48,397,cs),
(48,238,o),
(241,110,o),
(392,78,c),
(395,0,l)
);
},
{
closed = 1;
nodes = (
(388,174,l),
(298,209,o),
(205,295,o),
(205,416,cs),
(205,491,o),
(291,601,o),
(373,631,c)
);
},
{
closed = 1;
nodes = (
(537,611,l),
(623,573,o),
(708,487,o),
(708,378,cs),
(708,294,o),
(609,171,o),
(521,153,c)
);
}
);
userData = {
public.verticalOrigin = "880";
};
vertWidth = 1000;
width = 915;
}
);
unicode = 934;
}
{
color = (153,254,255,255);
glyphname = Psi;
layers = (
{
layerId = master01;
shapes = (
{
closed = 1;
nodes = (
(392,208,l),
(274,222,o),
(126,349,o),
(116,454,q),
(88,764,l),
(259,790,l),
(251,462,l),
(251,451,l),
(251,369,o),
(319,295,o),
(388,293,q),
(371,780,l),
(547,780,l),
(530,317,l),
(572,335,o),
(644,407,o),
(660,466,q),
(748,790,l),
(761,790,l),
(785,452,l),
(785,439,l),
(785,379,o),
(716,284,o),
(599,222,o),
(526,211,q),
(519,0,l),
(399,0,l)
);
}
);
userData = {
public.verticalOrigin = "880";
};
vertWidth = 1000;
width = 874;
}
);
unicode = 936;
}
{
color = (153,254,255,255);
glyphname = Omega;
layers = (
{
layerId = master01;
shapes = (
{
closed = 1;
nodes = (
(513,136,l),
(550,151,o),
(610,219,o),
(645,297,o),
(645,328,q),
(645,429,o),
(603,575,o),
(535,669,o),
(454,714,o),
(414,714,q),
(368,714,o),
(290,653,o),
(242,545,o),
(242,472,q),
(242,385,o),
(281,229,o),
(347,82,o),
(389,6,q),
(385,0,l),
(57,0,l),
(93,161,l),
(289,82,l),
(249,103,o),
(176,178,o),
(118,268,o),
(85,357,o),
(85,392,q),
(85,466,o),
(130,593,o),
(206,693,o),
(300,764,o),
(399,801,o),
(445,801,q),
(490,801,o),
(589,763,o),
(682,692,o),
(758,592,o),
(802,466,o),
(802,392,q),
(802,343,o),
(762,242,o),
(683,155,o),
(625,126,q),
(845,63,l),
(845,54,l),
(536,-9,l)
);
}
);
userData = {
public.verticalOrigin = "880";
};
vertWidth = 1000;
width = 872;
}
);
unicode = 937;
}
{
color = (153,254,255,255);
glyphname = alpha;
layers = (
{
layerId = master01;
shapes = (
{
closed = 1;
nodes = (
(636,-6,l),
(615,92,o),
(594,179,o),
(572,255,c),
(618,328,o),
(663,416,o),
(708,519,c),
(559,569,l),
(543,520,o),
(526,474,o),
(509,432,c),
(463,528,o),
(410,579,o),
(341,579,cs),
(211,579,o),
(38,353,o),
(38,176,cs),
(38,74,o),
(170,-13,o),
(250,-13,cs),
(333,-13,o),
(430,52,o),
(528,188,c),
(567,115,o),
(602,41,o),
(628,-12,c)
);
},
{
closed = 1;
nodes = (
(377,152,o),
(296,60,o),
(246,60,cs),
(215,60,o),
(191,127,o),
(191,187,cs),
(191,193,o),
(191,200,o),
(192,206,cs),
(208,380,o),
(253,462,o),
(301,462,cs),
(346,462,o),
(402,398,o),
(456,313,c)
);
}
);
userData = {
public.verticalOrigin = "880";
};
vertWidth = 1000;
width = 727;
}
);
unicode = 945;
}
{
color = (153,254,255,255);
glyphname = beta;
layers = (
{
layerId = master01;
shapes = (
{
closed = 1;
nodes = (
(61,468,l),
(73,566,o),
(154,717,o),
(285,803,o),
(370,803,q),
(482,803,o),
(590,714,o),
(590,650,q),
(590,641,o),
(588,623,o),
(586,614,q),
(578,577,o),
(518,500,o),
(421,435,o),
(357,414,q),
(362,414,o),
(370,415,o),
(374,415,q),
(427,415,o),
(511,374,o),
(561,306,o),
(561,267,q),
(561,260,o),
(559,244,o),
(557,236,q),
(526,129,o),
(322,19,o),
(155,2,q),
(152,15,l),
(236,49,o),
(341,131,o),
(397,219,o),
(407,262,q),
(410,276,o),
(410,288,q),
(410,380,o),
(237,380,q),
(236,392,l),
(328,451,o),
(428,576,o),
(435,618,q),
(436,624,o),
(437,636,o),
(437,642,q),
(437,675,o),
(404,731,o),
(367,731,q),
(323,731,o),
(235,594,o),
(209,452,q),
(93,-174,l),
(-13,-166,l)
);
}
);
userData = {
public.verticalOrigin = "880";
};
vertWidth = 1000;
width = 628;
}
);
unicode = 946;
}
{
color = (153,254,255,255);
glyphname = gamma;
layers = (
{
layerId = master01;
shapes = (
{
closed = 1;
nodes = (
(201,-130,o),
(229,-83,o),
(251,-35,q),
(261,-14,o),
(261,30,q),
(261,66,o),
(249,157,o),
(229,254,o),
(204,343,o),
(190,378,q),
(176,414,o),
(95,449,o),
(40,449,q),
(27,449,l),
(99,579,l),
(189,577,o),
(302,519,o),
(313,449,q),
(321,400,o),
(332,277,o),
(332,210,q),
(332,145,o),
(326,80,q),
(596,571,l),
(607,571,l),
(374,-174,l),
(201,-130,l)
);
}
);
userData = {
public.verticalOrigin = "880";
};
vertWidth = 1000;
width = 617;
}
);
unicode = 947;
}
{
color = (153,254,255,255);
glyphname = delta;
layers = (
{
layerId = master01;
shapes = (
{
closed = 1;
nodes = (
(392,623,o),
(499,543,o),
(582,445,o),
(631,338,o),
(631,284,q),
(631,219,o),
(573,110,o),
(475,31,o),
(356,-12,o),
(296,-12,q),
(248,-12,o),
(156,36,o),
(82,115,o),
(38,211,o),
(38,259,q),
(38,265,o),
(39,278,o),
(40,284,q),
(45,317,o),
(98,390,o),
(183,460,o),
(292,518,o),
(353,536,q),
(349,541,o),
(341,551,o),
(337,555,q),
(287,612,o),
(189,689,o),
(139,723,q),
(601,780,l),
(649,649,l),
(335,649,l)
);
},
{
closed = 1;
nodes = (
(311,469,o),
(222,356,o),
(211,284,q),
(208,263,o),
(208,244,q),
(208,186,o),
(262,113,o),
(302,95,q),
(322,86,o),
(342,86,q),
(375,86,o),
(432,130,o),
(467,212,o),
(467,268,q),
(467,339,o),
(416,456,o),
(373,511,q)
);
}
);
userData = {
public.verticalOrigin = "880";
};
vertWidth = 1000;
width = 675;
}
);
unicode = 948;
}
{
color = (153,254,255,255);
glyphname = epsilon;
layers = (
{
layerId = master01;
shapes = (
{
closed = 1;
nodes = (
(523,58,o),
(429,11,o),
(323,-12,o),
(271,-12,q),
(209,-12,o),
(103,19,o),
(38,78,o),
(38,120,q),
(38,124,o),
(38,131,o),
(39,135,q),
(44,167,o),
(89,225,o),
(156,273,o),
(234,304,o),
(272,309,q),
(201,317,o),
(108,375,o),
(108,415,q),
(108,420,o),
(111,431,o),
(112,436,q),
(133,499,o),
(271,580,o),
(371,580,q),
(421,580,o),
(536,557,o),
(582,529,q),
(519,396,l),
(476,444,o),
(384,499,o),
(342,499,q),
(314,499,o),
(267,477,o),
(261,454,q),
(260,450,o),
(259,442,o),
(259,437,q),
(259,406,o),
(340,360,o),
(445,349,q),
(455,256,l),
(391,256,o),
(300,230,o),
(244,192,o),
(216,153,o),
(214,139,q),
(214,137,o),
(213,134,o),
(213,132,q),
(213,98,o),
(289,63,o),
(350,63,q),
(394,63,o),
(499,83,o),
(554,104,q),
(557,95,l)
);
}
);
userData = {
public.verticalOrigin = "880";
};
vertWidth = 1000;
width = 590;
}
);
unicode = 949;
}
{
color = (153,254,255,255);
glyphname = zeta;
layers = (
{
layerId = master01;
shapes = (
{
closed = 1;
nodes = (
(422,50,l),
(374,13,o),
(270,-12,o),
(224,-12,q),
(134,-12,o),
(44,94,o),
(44,174,q),
(44,230,o),
(89,359,o),
(133,422,q),
(166,470,o),
(265,562,o),
(376,643,o),
(484,705,o),
(527,722,q),
(165,632,l),
(165,780,l),
(713,780,l),
(388,597,o),
(267,375,q),
(232,311,o),
(200,205,o),
(200,167,q),
(200,124,o),
(235,78,o),
(266,78,q),
(305,78,o),
(383,108,o),
(452,157,o),
(476,184,q),
(605,81,l),
(342,-201,l),
(331,-197,l)
);
}
);
userData = {
public.verticalOrigin = "880";
};
vertWidth = 1000;
width = 628;
}
);
unicode = 950;
}
{
color = (153,254,255,255);
glyphname = eta;
layers = (
{
layerId = master01;
shapes = (
{
closed = 1;
nodes = (
(436,-70,o),
(462,215,o),
(463,342,q),
(463,347,l),
(463,398,o),
(435,445,o),
(407,445,q),
(400,445,l),
(369,442,o),
(314,378,o),
(298,330,q),
(288,300,o),
(268,213,o),
(250,119,o),
(237,38,o),
(229,-13,o),
(229,-13,q),
(68,24,l),
(68,24,o),
(89,79,o),
(120,166,o),
(151,263,o),
(174,349,o),
(175,375,q),
(175,377,l),
(175,400,o),
(112,443,o),
(57,443,q),
(50,443,o),
(35,442,o),
(27,441,q),
(92,580,l),
(178,580,o),
(293,519,o),
(305,452,q),
(323,482,o),
(387,541,o),
(466,580,o),
(503,580,q),
(568,580,o),
(624,488,o),
(624,419,q),
(624,404,l),
(621,335,o),
(586,170,o),
(530,1,o),
(460,-151,o),
(421,-207,q),
(410,-203,l)
);
}
);
userData = {
public.verticalOrigin = "880";
};
vertWidth = 1000;
width = 663;
}
);
unicode = 951;
}
{
color = (153,254,255,255);
glyphname = theta;
layers = (
{
layerId = master01;
shapes = (
{
closed = 1;
nodes = (
(234,-12,o),
(149,36,o),
(79,125,o),
(38,248,o),
(38,324,q),
(38,352,o),
(41,380,q),
(49,458,o),
(108,604,o),
(197,720,o),
(305,789,o),
(362,789,q),
(427,789,o),
(537,710,o),
(604,567,o),
(604,470,q),
(604,445,o),
(601,418,q),
(588,283,o),
(492,90,o),
(355,-12,o),
(279,-12,q)
);
},
{
closed = 1;
nodes = (
(452,522,o),
(422,641,o),
(375,710,o),
(347,710,q),
(326,710,o),
(287,663,o),
(252,587,o),
(226,498,o),
(218,457,q),
(452,425,l),
(452,446,l)
);
},
{
closed = 1;
nodes = (
(191,312,o),
(191,298,o),
(191,290,q),
(191,235,o),
(218,132,o),
(265,66,o),
(295,66,q),
(316,66,o),
(364,119,o),
(408,211,o),
(443,331,o),
(450,399,q),
(192,319,l)
);
}
);
userData = {
public.verticalOrigin = "880";
};
vertWidth = 1000;
width = 642;
}
);
unicode = 952;
}
{
color = (153,254,255,255);
glyphname = iota;
layers = (
{
layerId = master01;
shapes = (
{
closed = 1;
nodes = (
(280,-6,l),
(208,84,o),
(179,146,o),
(179,200,cs),
(179,210,o),
(180,220,o),
(182,229,cs),
(249,567,l),
(76,567,l),
(37,219,ls),
(37,215,o),
(36,210,o),
(36,206,cs),
(36,122,o),
(113,58,o),
(277,-12,c)
);
}
);
userData = {
public.verticalOrigin = "880";
};
vertWidth = 1000;
width = 297;
}
);
unicode = 953;
}
{
color = (153,254,255,255);
glyphname = kappa;
layers = (
{
layerId = master01;
shapes = (
{
closed = 1;
nodes = (
(612,145,l),
(550,114,o),
(509,95,o),
(478,95,cs),
(419,95,o),
(401,168,o),
(360,376,c),
(570,543,l),
(388,581,l),
(163,258,l),
(237,568,l),
(65,578,l),
(-13,0,l),
(102,0,l),
(152,211,l),
(238,279,l),
(299,100,o),
(337,-12,o),
(412,-12,cs),
(459,-12,o),
(522,33,o),
(616,137,c)
);
}
);
userData = {
public.verticalOrigin = "880";
};
vertWidth = 1000;
width = 609;
}
);
unicode = 954;
}
{
color = (153,254,255,255);
glyphname = lambda;
layers = (
{
layerId = master01;
shapes = (
{
closed = 1;
nodes = (
(618,42,o),
(533,-12,o),
(500,-12,q),
(458,-12,o),
(403,66,o),
(386,135,q),
(333,350,l),
(13,-17,l),
(0,-13,l),
(286,543,l),
(271,602,l),
(265,627,o),
(210,653,o),
(154,653,q),
(130,653,o),
(98,650,q),
(170,798,l),
(286,798,o),
(408,737,o),
(419,665,q),
(499,149,l),
(505,109,o),
(524,70,o),
(548,70,q),
(566,70,o),
(623,91,o),
(666,110,q),
(671,101,l)
);
}
);
userData = {
public.verticalOrigin = "880";
};
vertWidth = 1000;
width = 664;
}
);
unicode = 955;
}
{
color = (153,254,255,255);
glyphname = mu;
layers = (
{
layerId = master01;
shapes = (
{
closed = 1;
nodes = (
(605,53,o),
(520,-13,o),
(487,-13,q),
(456,-13,o),
(414,27,o),
(406,53,q),
(394,33,o),
(350,4,o),
(304,-12,o),
(288,-12,q),
(286,-12,l),
(255,-11,o),
(190,34,o),
(183,75,q),
(154,-175,l),
(-13,-149,l),
(183,585,l),
(195,587,l),
(195,557,l),
(195,533,o),
(196,454,o),
(198,361,o),
(203,267,o),
(207,227,q),
(209,211,o),
(233,164,o),
(270,129,o),
(290,129,q),
(322,129,o),
(382,162,o),
(391,191,q),
(400,221,o),
(418,318,o),
(434,424,o),
(446,519,o),
(453,579,o),
(453,579,q),
(605,551,l),
(605,551,o),
(596,507,o),
(580,434,o),
(563,347,o),
(547,260,o),
(535,189,o),
(533,168,q),
(533,159,l),
(533,140,o),
(550,114,o),
(569,114,q),
(583,114,o),
(623,130,o),
(650,148,q),
(651,138,l)
);
}
);
userData = {
public.verticalOrigin = "880";
};
vertWidth = 1000;
width = 644;
}
);
unicode = 956;
}
{
color = (153,254,255,255);
glyphname = nu;
layers = (
{
layerId = master01;
shapes = (
{
closed = 1;
nodes = (
(25,559,l),
(201,579,l),
(251,200,l),
(556,580,l),
(567,580,l),
(336,-15,l),
(181,0,l)
);
}
);
userData = {
public.verticalOrigin = "880";
};
vertWidth = 1000;
width = 581;
}
);
unicode = 957;
}
{
color = (153,254,255,255);
glyphname = xi;
layers = (
{
layerId = master01;
shapes = (
{
closed = 1;
nodes = (
(467,50,l),
(443,36,o),
(376,13,o),
(303,-3,o),
(236,-12,o),
(213,-12,q),
(166,-12,o),
(89,29,o),
(44,98,o),
(44,139,q),
(44,144,o),
(44,154,o),
(45,158,q),
(51,202,o),
(105,279,o),
(185,342,o),
(278,386,o),
(323,396,q),
(309,396,l),
(253,396,o),
(173,432,o),
(130,482,o),
(130,504,q),
(130,509,o),
(131,512,q),
(140,552,o),
(227,627,o),
(357,687,o),
(430,706,q),
(69,644,l),
(69,780,l),
(651,780,l),
(550,728,o),
(394,634,o),
(304,560,o),
(300,539,q),
(300,537,o),
(299,533,o),
(299,531,q),
(299,503,o),
(371,452,o),
(435,452,q),
(444,452,o),
(462,453,o),
(472,454,q),
(487,352,l),
(410,352,o),
(298,300,o),
(234,218,o),
(226,172,q),
(225,167,o),
(224,158,o),
(224,153,q),
(224,116,o),
(273,78,o),
(310,78,q),
(343,78,o),
(423,108,o),
(497,157,o),
(521,184,q),
(650,81,l),
(387,-201,l),
(376,-197,l)
);
}
);
userData = {
public.verticalOrigin = "880";
};
vertWidth = 1000;
width = 673;
}
);
unicode = 958;
}
{
color = (153,254,255,255);
glyphname = omicron;
layers = (
{
layerId = master01;
shapes = (
{
closed = 1;
nodes = (
(633,232,o),
(565,129,o),
(468,41,o),
(359,-12,o),
(308,-12,q),
(262,-12,o),
(167,35,o),
(87,113,o),
(38,207,o),
(38,254,q),
(38,261,o),
(39,274,o),
(40,281,q),
(47,321,o),
(93,404,o),
(161,482,o),
(243,544,o),
(328,580,o),
(368,580,q),
(415,580,o),
(512,531,o),
(594,450,o),
(644,354,o),
(644,306,q),
(644,299,o),
(643,287,o),
(642,281,q)
);
},
{
closed = 1;
nodes = (
(490,236,o),
(490,247,o),
(490,252,q),
(490,289,o),
(463,369,o),
(421,438,o),
(372,481,o),
(350,481,q),
(319,481,o),
(251,446,o),
(198,380,o),
(191,331,q),
(190,325,o),
(189,313,o),
(189,307,q),
(189,270,o),
(216,191,o),
(258,124,o),
(306,83,o),
(328,83,q),
(360,83,o),
(429,117,o),
(482,183,o),
(489,231,q)
);
}
);
userData = {
public.verticalOrigin = "880";
};
vertWidth = 1000;
width = 682;
}
);
unicode = 959;
}
{
color = (153,254,255,255);
glyphname = pi;
layers = (
{
layerId = master01;
shapes = (
{
closed = 1;
nodes = (
(603,-5,l),
(529,88,o),
(497,159,o),
(497,209,cs),
(497,216,o),
(498,223,o),
(499,229,cs),
(553,506,l),
(698,530,l),
(698,537,l),
(22,567,l),
(16,419,l),
(102,433,l),
(36,0,l),
(150,0,l),
(267,460,l),
(399,481,l),
(375,219,ls),
(375,214,o),
(374,209,o),
(374,204,cs),
(374,120,o),
(438,58,o),
(600,-12,c)
);
}
);
userData = {
public.verticalOrigin = "880";
};
vertWidth = 1000;
width = 696;
}
);
unicode = 960;
}
{
color = (153,254,255,255);
glyphname = rho;
layers = (
{
layerId = master01;
shapes = (
{
closed = 1;
nodes = (
(43,330,l),
(51,404,o),
(124,516,o),
(242,579,o),
(316,579,q),
(368,579,o),
(459,527,o),
(529,440,o),
(573,331,o),
(578,274,q),
(579,262,o),
(580,238,o),
(580,227,q),
(580,113,o),
(481,-12,o),
(390,-12,q),
(341,-12,o),
(221,27,o),
(152,68,q),
(101,-177,l),
(-13,-169,l)
);
},
{
closed = 1;
nodes = (
(225,81,o),
(273,81,q),
(358,81,o),
(430,168,o),
(430,272,q),
(430,302,o),
(427,338,q),
(424,381,o),
(395,458,o),
(352,507,o),
(327,507,q),
(289,507,o),
(240,446,o),
(205,322,o),
(185,228,q),
(157,93,l)
);
}
);
userData = {
public.verticalOrigin = "880";
};
vertWidth = 1000;
width = 618;
}
);
unicode = 961;
}
{
color = (153,254,255,255);
glyphname = sigma;
layers = (
{
layerId = master01;
shapes = (
{
closed = 1;
nodes = (
(577,437,o),
(625,348,o),
(625,304,q),
(625,299,o),
(624,287,o),
(623,281,q),
(612,221,o),
(553,115,o),
(465,34,o),
(358,-12,o),
(299,-12,q),
(253,-12,o),
(161,35,o),
(84,112,o),
(38,205,o),
(38,252,q),
(38,268,o),
(41,281,q),
(50,331,o),
(105,432,o),
(190,516,o),
(298,568,o),
(359,568,q),
(747,568,l),
(716,420,l),
(544,473,l)
);
},
{
closed = 1;
nodes = (
(351,73,o),
(415,112,o),
(463,183,o),
(470,231,q),
(471,237,o),
(472,249,o),
(472,255,q),
(472,291,o),
(448,370,o),
(409,437,o),
(363,479,o),
(341,479,q),
(310,479,o),
(247,445,o),
(200,380,o),
(192,331,q),
(191,325,o),
(190,312,o),
(190,305,q),
(190,268,o),
(214,187,o),
(252,117,o),
(297,73,o),
(319,73,q)
);
}
);
userData = {
public.verticalOrigin = "880";
};
vertWidth = 1000;
width = 773;
}
);
unicode = 963;
}
{
color = (153,254,255,255);
glyphname = tau;
layers = (
{
layerId = master01;
shapes = (
{
closed = 1;
nodes = (
(245,41,o),
(140,141,o),
(140,204,q),
(140,208,o),
(141,215,o),
(141,219,q),
(162,450,l),
(16,419,l),
(22,567,l),
(538,537,l),
(538,530,l),
(335,487,l),
(285,229,l),
(282,216,o),
(282,200,q),
(282,164,o),
(320,63,o),
(369,-5,q),
(366,-12,l)
);
}
);
userData = {
public.verticalOrigin = "880";
};
vertWidth = 1000;
width = 536;
}
);
unicode = 964;
}
{
color = (153,254,255,255);
glyphname = upsilon;
layers = (
{
layerId = master01;
shapes = (
{
closed = 1;
nodes = (
(577,580,l),
(545,258,l),
(532,120,o),
(396,-12,o),
(259,-12,q),
(223,-12,o),
(146,18,o),
(79,76,o),
(38,160,o),
(38,213,q),
(38,233,o),
(41,252,q),
(88,568,l),
(273,538,l),
(178,232,l),
(174,219,o),
(170,192,o),
(170,179,q),
(170,140,o),
(204,84,o),
(232,84,q),
(273,84,o),
(379,167,o),
(425,268,q),
(566,582,l)
);
}
);
userData = {
public.verticalOrigin = "880";
};
vertWidth = 1000;
width = 591;
}
);
unicode = 965;
}
{
color = (153,254,255,255);
glyphname = phi;
layers = (
{
layerId = master01;
shapes = (
{
closed = 1;
nodes = (
(264,6,l),
(209,27,o),
(105,106,o),
(38,216,o),
(38,283,q),
(38,345,o),
(94,447,o),
(183,525,o),
(286,572,o),
(333,578,q),
(358,790,l),
(515,774,l),
(477,554,l),
(530,532,o),
(624,453,o),
(684,347,o),
(684,283,q),
(684,220,o),
(626,116,o),
(534,39,o),
(429,-7,o),
(381,-11,q),
(353,-175,l),
(243,-163,l)
);
},
{
closed = 1;
nodes = (
(290,503,o),
(224,467,o),
(181,389,o),
(181,323,q),
(181,253,o),
(237,145,o),
(276,110,q),
(324,505,l)
);
},
{
closed = 1;
nodes = (
(428,56,o),
(496,93,o),
(541,176,o),
(541,243,q),
(541,313,o),
(493,414,o),
(459,446,q),
(393,56,l)
);
}
);
userData = {
public.verticalOrigin = "880";
};
vertWidth = 1000;
width = 722;
}
);
unicode = 966;
}
{
color = (153,254,255,255);
glyphname = chi;
layers = (
{
layerId = master01;
shapes = (
{
closed = 1;
nodes = (
(551,-61,l),
(493,-87,o),
(457,-101,o),
(433,-101,cs),
(401,-101,o),
(393,-76,o),
(384,-22,cs),
(341,228,l),
(544,566,l),
(394,576,l),
(303,397,l),
(301,447,ls),
(297,541,o),
(219,580,o),
(103,580,c),
(27,432,l),
(56,436,o),
(79,439,o),
(98,439,cs),
(141,439,o),
(160,427,o),
(168,399,cs),
(213,233,l),
(-6,-165,l),
(92,-187,l),
(243,64,l),
(271,-36,ls),
(297,-127,o),
(329,-184,o),
(385,-184,cs),
(429,-184,o),
(485,-149,o),
(556,-71,c)
);
}
);
userData = {
public.verticalOrigin = "880";
};
vertWidth = 1000;
width = 549;
}
);
unicode = 967;
}
{
color = (153,254,255,255);
glyphname = psi;
layers = (
{
layerId = master01;
shapes = (
{
closed = 1;
nodes = (
(263,0,l),
(200,10,o),
(98,66,o),
(38,156,o),
(38,216,q),
(38,234,o),
(41,252,q),
(88,568,l),
(253,538,l),
(178,232,l),
(176,222,o),
(174,204,o),
(174,196,q),
(174,154,o),
(226,100,o),
(274,92,q),
(358,790,l),
(515,774,l),
(401,106,l),
(444,123,o),
(512,200,o),
(543,268,q),
(684,582,l),
(695,580,l),
(663,258,l),
(650,132,o),
(500,5,o),
(382,-4,q),
(353,-175,l),
(243,-163,l)
);
}
);
userData = {
public.verticalOrigin = "880";
};
vertWidth = 1000;
width = 709;
}
);
unicode = 968;
}
{
color = (153,254,255,255);
glyphname = omega;
layers = (
{
layerId = master01;
shapes = (
{
closed = 1;
nodes = (
(639,552,o),
(724,485,o),
(793,411,o),
(834,338,o),
(834,308,q),
(834,238,o),
(788,121,o),
(714,35,o),
(625,-12,o),
(581,-12,q),
(552,-12,o),
(479,19,o),
(416,69,o),
(402,95,q),
(388,66,o),
(328,17,o),
(255,-12,o),
(221,-12,q),
(191,-12,o),
(127,36,o),
(72,111,o),
(38,194,o),
(38,229,q),
(38,284,o),
(88,405,o),
(179,525,o),
(242,577,q),
(349,452,l),
(302,428,o),
(225,351,o),
(179,273,o),
(179,246,q),
(179,205,o),
(199,122,o),
(239,67,o),
(267,67,q),
(279,67,o),
(311,105,o),
(344,166,o),
(371,239,o),
(377,273,q),
(381,295,o),
(390,351,o),
(396,394,o),
(396,394,q),
(536,366,l),
(536,366,o),
(527,331,o),
(516,285,o),
(514,269,q),
(511,248,o),
(511,228,q),
(511,180,o),
(538,104,o),
(582,61,o),
(605,61,q),
(624,61,o),
(655,131,o),
(675,242,o),
(675,302,q),
(675,345,o),
(637,490,o),
(587,572,q),
(595,577,l)
);
}
);
userData = {
public.verticalOrigin = "880";
};
vertWidth = 1000;
width = 872;
}
);
unicode = 969;
}
{
color = (153,254,255,255);
glyphname = "Io-cy";
layers = (
{
layerId = master01;
shapes = (
{
closed = 1;
nodes = (
(545,908,l),
(443,805,l),
(393,934,l)
);
},
{
closed = 1;
nodes = (
(308,908,l),
(206,805,l),
(156,934,l)
);
},
{
closed = 1;
nodes = (
(88,780,l),
(270,780,l),
(268,704,l),
(628,790,l),
(628,628,l),
(267,663,l),
(261,410,l),
(577,484,l),
(577,325,l),
(260,370,l),
(254,129,l),
(648,87,l),
(648,77,l),
(125,-10,l)
);
}
);
userData = {
public.verticalOrigin = "880";
};
vertWidth = 1000;
width = 689;
}
);
unicode = 1025;
}
{
color = (153,254,255,255);
glyphname = "Be-cy";
layers = (
{
layerId = master01;
shapes = (
{
closed = 1;
nodes = (
(270,780,l),
(269,708,l),
(644,790,l),
(644,628,l),
(268,662,l),
(265,477,l),
(305,484,o),
(378,490,o),
(411,490,q),
(557,490,o),
(703,371,o),
(703,262,q),
(703,173,o),
(566,50,o),
(308,-13,o),
(125,-13,q),
(88,780,l)
);
},
{
closed = 1;
nodes = (
(338,53,o),
(445,104,o),
(504,162,o),
(528,223,o),
(528,253,q),
(528,291,o),
(492,354,o),
(404,391,o),
(325,391,q),
(296,391,o),
(261,388,q),
(254,34,l)
);
}
);
userData = {
public.verticalOrigin = "880";
};
vertWidth = 1000;
width = 736;
}
);
unicode = 1041;
}
{
color = (153,254,255,255);
glyphname = "Ve-cy";
layers = (
{
layerId = master01;
shapes = (
{
closed = 1;
nodes = (
(270,780,l),
(269,727,l),
(312,753,o),
(402,780,o),
(446,780,q),
(559,780,o),
(664,693,o),
(664,628,q),
(664,622,o),
(663,610,o),
(662,604,q),
(656,556,o),
(566,460,o),
(469,419,q),
(545,415,o),
(649,361,o),
(703,289,o),
(703,256,q),
(703,173,o),
(566,52,o),
(308,-13,o),
(125,-13,q),
(88,780,l)
);
},
{
closed = 1;
nodes = (
(349,425,o),
(454,509,o),
(503,580,o),
(506,599,q),
(507,603,o),
(507,610,o),
(507,614,q),
(507,648,o),
(463,705,o),
(425,705,q),
(382,705,o),
(308,696,o),
(268,684,q),
(262,384,l)
);
},
{
closed = 1;
nodes = (
(338,53,o),
(445,104,o),
(504,162,o),
(528,223,o),
(528,253,q),
(528,270,o),
(506,303,o),
(448,332,o),
(343,351,o),
(261,352,q),
(254,34,l)
);
}
);
userData = {
public.verticalOrigin = "880";
};
vertWidth = 1000;
width = 736;
}
);
unicode = 1042;
}
{
color = (153,254,255,255);
glyphname = "De-cy";
layers = (
{
layerId = master01;
shapes = (
{
closed = 1;
nodes = (
(638,3,l),
(198,46,l),
(185,-128,l),
(69,-128,l),
(32,131,l),
(154,131,l),
(183,200,o),
(207,322,o),
(207,365,q),
(207,371,o),
(206,382,o),
(206,386,q),
(179,780,l),
(353,780,l),
(348,703,l),
(713,790,l),
(670,144,l),
(793,155,l),
(731,-138,l),
(718,-138,l)
);
},
{
closed = 1;
nodes = (
(345,660,l),
(328,378,l),
(326,339,o),
(297,236,o),
(242,136,o),
(201,100,q),
(566,134,l),
(538,624,l)
);
}
);
userData = {
public.verticalOrigin = "880";
};
vertWidth = 1000;
width = 825;
}
);
unicode = 1044;
}
{
color = (153,254,255,255);
glyphname = "Zhe-cy";
layers = (
{
layerId = master01;
shapes = (
{
closed = 1;
nodes = (
(603,381,l),
(565,342,l),
(555,0,l),
(441,0,l),
(431,343,l),
(393,381,l),
(25,-11,l),
(12,-11,l),
(278,498,l),
(25,742,l),
(198,790,l),
(428,433,l),
(417,780,l),
(579,780,l),
(568,432,l),
(798,790,l),
(971,742,l),
(718,498,l),
(984,-12,l),
(971,-11,l)
);
}
);
userData = {
public.verticalOrigin = "880";
};
vertWidth = 1000;
width = 996;
}
);
unicode = 1046;
}
{
color = (153,254,255,255);
glyphname = "Ze-cy";
layers = (
{
layerId = master01;
shapes = (
{
closed = 1;
nodes = (
(497,279,o),
(489,323,o),
(452,354,o),
(408,354,q),
(378,354,o),
(290,335,o),
(228,312,q),
(179,414,l),
(281,435,o),
(407,496,o),
(465,563,o),
(465,591,q),
(465,638,o),
(410,701,o),
(370,701,q),
(309,701,o),
(191,644,o),
(133,576,q),
(49,682,l),
(118,751,o),
(275,801,o),
(381,801,q),
(458,801,o),
(569,744,o),
(628,660,o),
(628,618,q),
(628,614,o),
(628,608,o),
(627,604,q),
(620,552,o),
(528,463,o),
(424,433,q),
(502,433,o),
(611,381,o),
(668,296,o),
(668,246,q),
(668,207,o),
(632,114,o),
(555,32,o),
(430,-21,o),
(340,-21,q),
(299,-21,o),
(187,20,o),
(74,101,o),
(32,162,q),
(37,172,l),
(117,118,o),
(264,70,o),
(316,70,q),
(323,70,o),
(335,70,o),
(340,71,q),
(397,78,o),
(466,135,o),
(497,214,o),
(497,253,q),
(497,259,l)
);
}
);
userData = {
public.verticalOrigin = "880";
};
vertWidth = 1000;
width = 716;
}
);
unicode = 1047;
}
{
color = (153,254,255,255);
glyphname = "Ii-cy";
layers = (
{
layerId = master01;
shapes = (
{
closed = 1;
nodes = (
(560,538,l),
(171,-13,l),
(154,-13,l),
(86,780,l),
(267,780,l),
(241,222,l),
(555,780,l),
(729,780,l),
(655,-13,l),
(639,-13,l)
);
}
);
userData = {
public.verticalOrigin = "880";
};
vertWidth = 1000;
width = 815;
}
);
unicode = 1048;
}
{
color = (153,254,255,255);
glyphname = "Iishort-cy";
layers = (
{
layerId = master01;
shapes = (
{
closed = 1;
nodes = (
(566,909,l),
(519,868,o),
(456,843,o),
(423,843,cs),
(388,843,o),
(325,868,o),
(278,909,c),
(270,904,l),
(304,828,o),
(364,765,o),
(421,765,cs),
(479,765,o),
(540,828,o),
(574,904,c)
);
},
{
closed = 1;
nodes = (
(655,-13,l),
(729,780,l),
(555,780,l),
(241,222,l),
(267,780,l),
(86,780,l),
(154,-13,l),
(171,-13,l),
(560,538,l),
(639,-13,l)
);
}
);
userData = {
public.verticalOrigin = "880";
};
vertWidth = 1000;
width = 815;
}
);
unicode = 1049;
}
{
color = (153,254,255,255);
glyphname = "Ka-cy";
layers = (
{
layerId = master01;
shapes = (
{
closed = 1;
nodes = (
(295,381,l),
(253,342,l),
(241,0,l),
(115,0,l),
(88,780,l),
(268,780,l),
(256,432,l),
(511,790,l),
(692,742,l),
(423,498,l),
(718,-12,l),
(704,-11,l)
);
}
);
userData = {
public.verticalOrigin = "880";
};
vertWidth = 1000;
width = 730;
}
);
unicode = 1050;
}
{
color = (153,254,255,255);
glyphname = "El-cy";
layers = (
{
layerId = master01;
shapes = (
{
closed = 1;
nodes = (
(505,624,l),
(281,662,l),
(262,261,l),
(260,213,o),
(217,120,o),
(121,28,o),
(37,-21,q),
(32,-13,l),
(91,65,o),
(140,206,o),
(140,256,q),
(140,269,l),
(113,780,l),
(287,780,l),
(283,700,l),
(680,790,l),
(635,0,l),
(534,0,l)
);
}
);
userData = {
public.verticalOrigin = "880";
};
vertWidth = 1000;
width = 768;
}
);
unicode = 1051;
}
{
color = (153,254,255,255);
glyphname = "Em-cy";
layers = (
{
layerId = master01;
shapes = (
{
closed = 1;
nodes = (
(702,585,l),
(479,76,l),
(472,76,l),
(248,585,l),
(157,-14,l),
(142,-14,l),
(87,780,l),
(271,780,l),
(514,376,l),
(700,780,l),
(863,780,l),
(848,0,l),
(731,0,l)
);
}
);
userData = {
public.verticalOrigin = "880";
};
vertWidth = 1000;
width = 950;
}
);
unicode = 1052;
}
{
color = (153,254,255,255);
glyphname = "Pe-cy";
layers = (
{
layerId = master01;
shapes = (
{
closed = 1;
nodes = (
(493,624,l),
(265,665,l),
(234,0,l),
(133,0,l),
(88,780,l),
(270,780,l),
(267,697,l),
(668,790,l),
(623,0,l),
(522,0,l)
);
}
);
userData = {
public.verticalOrigin = "880";
};
vertWidth = 1000;
width = 756;
}
);
unicode = 1055;
}
{
color = (153,254,255,255);
glyphname = "Te-cy";
layers = (
{
layerId = master01;
shapes = (
{
closed = 1;
nodes = (
(224,666,l),
(16,638,l),
(16,790,l),
(635,734,l),
(635,720,l),
(408,690,l),
(381,0,l),
(251,0,l)
);
}
);
userData = {
public.verticalOrigin = "880";
};
vertWidth = 1000;
width = 633;
}
);
unicode = 1058;
}
{
color = (153,254,255,255);
glyphname = "U-cy";
kernLeft = Y;
kernRight = Y;
layers = (
{
layerId = master01;
shapes = (
{
closed = 1;
nodes = (
(272,264,l),
(-14,756,l),
(168,793,l),
(328,353,l),
(608,795,l),
(622,795,l),
(313,0,l),
(105,0,l)
);
}
);
userData = {
public.verticalOrigin = "880";
};
vertWidth = 1000;
width = 620;
}
);
unicode = 1059;
}
{
color = (153,254,255,255);
glyphname = "Ef-cy";
layers = (
{
layerId = master01;
shapes = (
{
closed = 1;
nodes = (
(392,78,l),
(335,90,o),
(215,148,o),
(112,232,o),
(48,337,o),
(48,397,q),
(48,452,o),
(106,551,o),
(202,633,o),
(315,692,o),
(370,706,q),
(367,780,l),
(543,780,l),
(541,707,l),
(596,693,o),
(710,635,o),
(806,553,o),
(865,453,o),
(865,397,q),
(865,337,o),
(800,230,o),
(695,145,o),
(574,88,o),
(518,77,q),
(515,0,l),
(395,0,l)
);
},
{
closed = 1;
nodes = (
(342,620,o),
(283,571,o),
(234,509,o),
(205,444,o),
(205,416,q),
(205,356,o),
(259,259,o),
(343,192,o),
(388,174,q),
(373,631,l)
);
},
{
closed = 1;
nodes = (
(554,160,o),
(620,207,o),
(675,274,o),
(708,347,o),
(708,378,q),
(708,433,o),
(658,524,o),
(580,592,o),
(537,611,q),
(521,153,l)
);
}
);
userData = {
public.verticalOrigin = "880";
};
vertWidth = 1000;
width = 915;
}
);
unicode = 1060;
}
{
color = (153,254,255,255);
glyphname = "Tse-cy";
layers = (
{
layerId = master01;
shapes = (
{
closed = 1;
nodes = (
(697,-129,l),
(745,152,l),
(646,135,l),
(689,780,l),
(507,780,l),
(537,116,l),
(242,66,l),
(269,780,l),
(88,780,l),
(136,0,l),
(574,0,l),
(610,-129,l)
);
}
);
userData = {
public.verticalOrigin = "880";
};
vertWidth = 1000;
width = 777;
}
);
unicode = 1062;
}
{
color = (153,254,255,255);
glyphname = "Che-cy";
layers = (
{
layerId = master01;
shapes = (
{
closed = 1;
nodes = (
(696,0,l),
(724,780,l),
(537,780,l),
(552,372,l),
(500,323,o),
(438,303,o),
(400,303,cs),
(333,303,o),
(249,343,o),
(249,409,cs),
(249,411,l),
(259,779,l),
(88,779,l),
(108,403,ls),
(115,276,o),
(228,197,o),
(350,197,cs),
(421,197,o),
(514,246,o),
(554,309,c),
(565,0,l)
);
}
);
userData = {
public.verticalOrigin = "880";
};
vertWidth = 1000;
width = 816;
}
);
unicode = 1063;
}
{
color = (153,254,255,255);
glyphname = "Sha-cy";
layers = (
{
layerId = master01;
shapes = (
{
closed = 1;
nodes = (
(811,0,l),
(859,780,l),
(682,780,l),
(711,97,l),
(529,115,l),
(562,780,l),
(385,780,l),
(426,125,l),
(237,143,l),
(264,780,l),
(88,780,l),
(136,-9,l),
(712,66,l),
(715,0,l)
);
}
);
userData = {
public.verticalOrigin = "880";
};
vertWidth = 1000;
width = 947;
}
);
unicode = 1064;
}
{
color = (153,254,255,255);
glyphname = "Shcha-cy";
layers = (
{
layerId = master01;
shapes = (
{
closed = 1;
nodes = (
(744,0,l),
(136,0,l),
(88,780,l),
(264,780,l),
(237,66,l),
(428,90,l),
(385,780,l),
(562,780,l),
(528,103,l),
(712,126,l),
(682,780,l),
(859,780,l),
(817,139,l),
(915,152,l),
(867,-129,l),
(780,-129,l)
);
}
);
userData = {
public.verticalOrigin = "880";
};
vertWidth = 1000;
width = 947;
}
);
unicode = 1065;
}
{
color = (153,254,255,255);
glyphname = "Hardsign-cy";
layers = (
{
layerId = master01;
shapes = (
{
closed = 1;
nodes = (
(28,704,l),
(27,714,l),
(449,802,l),
(444,477,l),
(523,493,o),
(588,493,q),
(719,493,o),
(842,374,o),
(842,276,q),
(842,193,o),
(726,62,o),
(487,-13,o),
(304,-13,q),
(278,630,l)
);
},
{
closed = 1;
nodes = (
(505,51,o),
(596,104,o),
(647,169,o),
(667,240,o),
(667,273,q),
(667,308,o),
(637,360,o),
(555,389,o),
(478,389,q),
(469,389,o),
(450,389,o),
(440,388,q),
(433,34,l)
);
}
);
userData = {
public.verticalOrigin = "880";
};
vertWidth = 1000;
width = 851;
}
);
unicode = 1066;
}
{
color = (153,254,255,255);
glyphname = "Yeru-cy";
layers = (
{
layerId = master01;
shapes = (
{
closed = 1;
nodes = (
(749,780,l),
(926,780,l),
(899,0,l),
(776,0,l)
);
},
{
closed = 1;
nodes = (
(265,780,l),
(260,477,l),
(303,485,o),
(379,493,o),
(412,493,q),
(540,493,o),
(664,380,o),
(664,270,q),
(664,187,o),
(547,59,o),
(308,-13,o),
(125,-13,q),
(88,780,l)
);
},
{
closed = 1;
nodes = (
(333,53,o),
(430,107,o),
(476,169,o),
(489,233,o),
(489,263,q),
(489,306,o),
(459,363,o),
(386,391,o),
(320,391,q),
(291,391,o),
(256,388,q),
(249,34,l)
);
}
);
userData = {
public.verticalOrigin = "880";
};
vertWidth = 1000;
width = 1018;
}
);
unicode = 1067;
}
{
color = (153,254,255,255);
glyphname = "Softsign-cy";
layers = (
{
layerId = master01;
shapes = (
{
closed = 1;
nodes = (
(270,780,l),
(265,477,l),
(357,496,o),
(432,496,q),
(569,496,o),
(703,379,o),
(703,276,q),
(703,193,o),
(566,62,o),
(308,-13,o),
(125,-13,q),
(88,780,l)
);
},
{
closed = 1;
nodes = (
(338,53,o),
(445,110,o),
(504,176,o),
(528,243,o),
(528,273,q),
(528,308,o),
(490,361,o),
(400,390,o),
(321,390,q),
(308,390,o),
(278,389,o),
(261,388,q),
(254,34,l)
);
}
);
userData = {
public.verticalOrigin = "880";
};
vertWidth = 1000;
width = 712;
}
);
unicode = 1068;
}
{
color = (153,254,255,255);
glyphname = "Ereversed-cy";
layers = (
{
layerId = master01;
shapes = (
{
closed = 1;
nodes = (
(257,473,l),
(529,407,l),
(527,460,o),
(500,564,o),
(456,650,o),
(399,702,o),
(366,702,q),
(222,702,o),
(95,573,q),
(39,736,l),
(103,769,o),
(259,801,o),
(336,801,q),
(402,801,o),
(530,745,o),
(634,631,o),
(696,455,o),
(696,335,q),
(696,279,o),
(650,156,o),
(559,48,o),
(425,-19,o),
(337,-19,q),
(237,-19,o),
(87,133,o),
(32,270,q),
(42,280,l),
(119,184,o),
(262,88,o),
(323,88,q),
(327,88,o),
(333,89,o),
(337,89,q),
(388,94,o),
(460,145,o),
(505,224,o),
(527,320,o),
(529,369,q),
(257,326,l)
);
}
);
userData = {
public.verticalOrigin = "880";
};
vertWidth = 1000;
width = 744;
}
);
unicode = 1069;
}
{
color = (153,254,255,255);
glyphname = "Yu-cy";
layers = (
{
layerId = master01;
shapes = (
{
closed = 1;
nodes = (
(92,780,l),
(267,780,l),
(256,471,l),
(370,432,l),
(376,513,o),
(432,648,o),
(517,747,o),
(619,801,o),
(671,801,q),
(727,801,o),
(835,741,o),
(922,631,o),
(975,481,o),
(975,391,q),
(975,297,o),
(922,145,o),
(835,37,o),
(727,-20,o),
(671,-20,q),
(617,-20,o),
(512,31,o),
(425,130,o),
(371,276,o),
(368,370,q),
(251,339,l),
(239,0,l),
(120,0,l)
);
},
{
closed = 1;
nodes = (
(731,62,o),
(779,116,o),
(814,209,o),
(832,327,o),
(832,391,q),
(832,450,o),
(796,566,o),
(738,660,o),
(672,717,o),
(641,717,q),
(610,717,o),
(562,661,o),
(528,567,o),
(510,451,o),
(510,391,q),
(510,327,o),
(546,209,o),
(604,116,o),
(671,62,o),
(701,62,q)
);
}
);
userData = {
public.verticalOrigin = "880";
};
vertWidth = 1000;
width = 1025;
}
);
unicode = 1070;
}
{
color = (153,254,255,255);
glyphname = "Ya-cy";
layers = (
{
layerId = master01;
shapes = (
{
closed = 1;
nodes = (
(613,0,l),
(650,790,l),
(487,780,ls),
(275,767,o),
(133,715,o),
(93,593,cs),
(87,576,o),
(84,557,o),
(84,537,cs),
(84,459,o),
(134,374,o),
(265,358,c),
(32,-13,l),
(45,-13,l),
(45,-13,o),
(444,381,o),
(476,396,c),
(485,0,l)
);
},
{
closed = 1;
nodes = (
(475,451,l),
(434,442,o),
(397,438,o),
(358,438,cs),
(283,438,o),
(248,475,o),
(248,527,cs),
(248,543,o),
(251,559,o),
(257,576,cs),
(281,649,o),
(361,714,o),
(468,744,c)
);
}
);
userData = {
public.verticalOrigin = "880";
};
vertWidth = 1000;
width = 738;
}
);
unicode = 1071;
}
{
color = (153,254,255,255);
glyphname = "be-cy";
layers = (
{
layerId = master01;
shapes = (
{
closed = 1;
nodes = (
(499,683,o),
(384,630,o),
(302,584,o),
(237,538,o),
(203,510,q),
(229,528,o),
(267,550,o),
(305,560,o),
(332,560,q),
(380,560,o),
(482,522,o),
(570,449,o),
(624,344,o),
(624,278,q),
(624,212,o),
(570,105,o),
(482,29,o),
(380,-12,o),
(332,-12,q),
(284,-12,o),
(182,29,o),
(93,105,o),
(38,212,o),
(38,278,q),
(38,367,o),
(103,513,o),
(217,637,o),
(367,746,o),
(452,798,q),
(584,717,l)
);
},
{
closed = 1;
nodes = (
(415,60,o),
(471,137,o),
(471,238,q),
(471,306,o),
(439,400,o),
(387,458,o),
(329,485,o),
(302,485,q),
(267,485,o),
(217,458,o),
(191,386,o),
(191,318,q),
(191,257,o),
(224,161,o),
(276,94,o),
(335,60,o),
(362,60,q)
);
}
);
userData = {
public.verticalOrigin = "880";
};
vertWidth = 1000;
width = 662;
}
);
unicode = 1073;
}
{
color = (153,254,255,255);
glyphname = "ve-cy";
layers = (
{
layerId = master01;
shapes = (
{
closed = 1;
nodes = (
(94,-12,l),
(476,-12,o),
(609,69,o),
(609,190,cs),
(609,252,o),
(551,304,o),
(445,304,c),
(535,342,o),
(574,389,o),
(580,433,cs),
(581,439,o),
(581,444,o),
(581,450,cs),
(581,511,o),
(534,557,o),
(429,557,cs),
(388,557,o),
(264,543,o),
(224,520,c),
(225,557,l),
(68,557,l)
);
},
{
closed = 1;
nodes = (
(218,237,l),
(247,239,o),
(272,240,o),
(294,240,cs),
(407,240,o),
(446,214,o),
(446,188,cs),
(446,133,o),
(376,76,o),
(214,41,c)
);
},
{
closed = 1;
nodes = (
(431,430,l),
(425,390,o),
(369,340,o),
(219,300,c),
(223,455,l),
(270,467,o),
(330,474,o),
(374,474,cs),
(411,474,o),
(431,462,o),
(431,437,cs)
);
}
);
userData = {
public.verticalOrigin = "880";
};
vertWidth = 1000;
width = 648;
}
);
unicode = 1074;
}
{
color = (153,254,255,255);
glyphname = "ge-cy";
layers = (
{
layerId = master01;
shapes = (
{
closed = 1;
nodes = (
(68,557,l),
(248,557,l),
(246,506,l),
(512,565,l),
(512,403,l),
(243,452,l),
(222,0,l),
(94,0,l)
);
}
);
userData = {
public.verticalOrigin = "880";
};
vertWidth = 1000;
width = 527;
}
);
unicode = 1075;
}
{
color = (153,254,255,255);
glyphname = "de-cy";
layers = (
{
layerId = master01;
shapes = (
{
closed = 1;
nodes = (
(655,-98,l),
(717,145,l),
(601,135,l),
(623,567,l),
(341,492,l),
(347,557,l),
(172,557,l),
(198,288,ls),
(199,279,o),
(199,271,o),
(199,263,cs),
(199,228,o),
(191,193,o),
(168,137,c),
(32,137,l),
(59,-88,l),
(175,-88,l),
(186,43,l),
(580,3,l),
(642,-98,l)
);
},
{
closed = 1;
nodes = (
(476,125,l),
(187,101,l),
(288,175,o),
(315,220,o),
(321,282,cs),
(337,450,l),
(455,418,l)
);
}
);
userData = {
public.verticalOrigin = "880";
};
vertWidth = 1000;
width = 749;
}
);
unicode = 1076;
}
{
color = (153,254,255,255);
glyphname = "zhe-cy";
layers = (
{
layerId = master01;
shapes = (
{
closed = 1;
nodes = (
(511,225,l),
(467,173,l),
(459,0,l),
(336,0,l),
(328,173,l),
(284,225,l),
(10,-13,l),
(0,-12,l),
(202,322,l),
(19,540,l),
(183,570,l),
(323,288,l),
(310,557,l),
(485,557,l),
(472,288,l),
(612,570,l),
(776,540,l),
(593,322,l),
(795,-13,l),
(785,-13,l)
);
}
);
userData = {
public.verticalOrigin = "880";
};
vertWidth = 1000;
width = 795;
}
);
unicode = 1078;
}
{
color = (153,254,255,255);
glyphname = "ze-cy";
layers = (
{
layerId = master01;
shapes = (
{
closed = 1;
nodes = (
(248,348,o),
(361,393,o),
(361,423,q),
(361,456,o),
(318,482,o),
(290,482,q),
(267,482,o),
(203,465,o),
(141,430,o),
(121,401,q),
(40,487,l),
(85,532,o),
(210,570,o),
(298,570,q),
(357,570,o),
(454,526,o),
(512,463,o),
(512,432,q),
(512,387,o),
(446,321,o),
(370,309,q),
(425,308,o),
(501,270,o),
(541,209,o),
(541,174,q),
(541,122,o),
(475,38,o),
(353,-12,o),
(269,-12,q),
(248,-12,o),
(178,3,o),
(100,34,o),
(30,81,o),
(8,113,q),
(11,120,l),
(50,100,o),
(136,74,o),
(216,63,o),
(244,63,q),
(252,63,o),
(264,63,o),
(269,64,q),
(326,72,o),
(383,133,o),
(383,179,q),
(383,193,o),
(361,226,o),
(314,249,o),
(276,249,q),
(256,249,o),
(205,239,o),
(175,228,q),
(141,325,l)
);
}
);
userData = {
public.verticalOrigin = "880";
};
vertWidth = 1000;
width = 579;
}
);
unicode = 1079;
}
{
color = (153,254,255,255);
glyphname = "iishort-cy";
layers = (
{
layerId = master01;
shapes = (
{
closed = 1;
nodes = (
(459,735,l),
(416,698,o),
(360,676,o),
(330,676,cs),
(298,676,o),
(242,698,o),
(199,735,c),
(192,731,l),
(223,662,o),
(277,606,o),
(328,606,cs),
(380,606,o),
(435,662,o),
(466,731,c)
);
},
{
closed = 1;
nodes = (
(548,-13,l),
(602,557,l),
(438,557,l),
(201,172,l),
(241,557,l),
(60,557,l),
(113,-13,l),
(130,-13,l),
(441,333,l),
(532,-13,l)
);
}
);
userData = {
public.verticalOrigin = "880";
};
vertWidth = 1000;
width = 676;
}
);
unicode = 1081;
}
{
color = (153,254,255,255);
glyphname = "el-cy";
layers = (
{
layerId = master01;
shapes = (
{
closed = 1;
nodes = (
(436,418,l),
(238,465,l),
(218,176,l),
(216,141,o),
(179,74,o),
(93,10,o),
(16,-22,q),
(12,-14,l),
(62,49,o),
(95,134,o),
(95,169,q),
(95,182,l),
(69,557,l),
(244,557,l),
(239,477,l),
(604,567,l),
(581,0,l),
(458,0,l)
);
}
);
userData = {
public.verticalOrigin = "880";
};
vertWidth = 1000;
width = 678;
}
);
unicode = 1083;
}
{
color = (153,254,255,255);
glyphname = "em-cy";
layers = (
{
layerId = master01;
shapes = (
{
closed = 1;
nodes = (
(521,391,l),
(365,52,l),
(360,52,l),
(213,381,l),
(119,-12,l),
(109,-12,l),
(60,557,l),
(229,557,l),
(391,290,l),
(509,557,l),
(673,557,l),
(647,0,l),
(539,0,l)
);
}
);
userData = {
public.verticalOrigin = "880";
};
vertWidth = 1000;
width = 744;
}
);
unicode = 1084;
}
{
color = (153,254,255,255);
glyphname = "en-cy";
layers = (
{
layerId = master01;
shapes = (
{
closed = 1;
nodes = (
(559,0,l),
(585,557,l),
(410,557,l),
(422,291,l),
(225,349,l),
(235,557,l),
(60,557,l),
(86,0,l),
(209,0,l),
(219,215,l),
(423,271,l),
(436,0,l)
);
}
);
userData = {
public.verticalOrigin = "880";
};
vertWidth = 1000;
width = 659;
}
);
unicode = 1085;
}
{
color = (153,254,255,255);
glyphname = "er-cy";
layers = (
{
layerId = master01;
shapes = (
{
closed = 1;
nodes = (
(68,557,l),
(243,557,l),
(240,484,l),
(280,518,o),
(390,570,o),
(442,570,q),
(537,570,o),
(630,453,o),
(630,346,q),
(630,241,o),
(530,92,o),
(346,6,o),
(221,-7,q),
(213,-212,l),
(102,-212,l)
);
},
{
closed = 1;
nodes = (
(322,71,o),
(434,165,o),
(480,277,o),
(480,338,q),
(480,406,o),
(434,466,o),
(390,466,q),
(350,466,o),
(279,454,o),
(238,438,q),
(223,37,l)
);
}
);
userData = {
public.verticalOrigin = "880";
};
vertWidth = 1000;
width = 669;
}
);
unicode = 1088;
}
{
color = (153,254,255,255);
glyphname = "ef-cy";
layers = (
{
layerId = master01;
shapes = (
{
closed = 1;
nodes = (
(429,71,l),
(395,34,o),
(301,-12,o),
(232,-12,q),
(169,-12,o),
(85,48,o),
(44,150,o),
(44,213,q),
(44,338,o),
(220,521,o),
(412,559,q),
(405,780,l),
(580,780,l),
(571,478,l),
(606,514,o),
(702,570,o),
(756,570,q),
(820,570,o),
(903,511,o),
(944,410,o),
(944,346,q),
(944,250,o),
(853,102,o),
(680,9,o),
(556,-6,q),
(550,-212,l),
(439,-212,l)
);
},
{
closed = 1;
nodes = (
(331,474,o),
(234,379,o),
(194,274,o),
(194,221,q),
(194,160,o),
(240,91,o),
(284,91,q),
(326,91,o),
(390,107,o),
(427,130,q),
(414,512,l)
);
},
{
closed = 1;
nodes = (
(631,63,o),
(724,132,o),
(775,212,o),
(794,297,o),
(794,338,q),
(794,400,o),
(748,466,o),
(704,466,q),
(664,466,o),
(603,453,o),
(570,437,q),
(558,37,l)
);
}
);
userData = {
public.verticalOrigin = "880";
};
vertWidth = 1000;
width = 983;
}
);
unicode = 1092;
}
{
color = (153,254,255,255);
glyphname = "tse-cy";
layers = (
{
layerId = master01;
shapes = (
{
closed = 1;
nodes = (
(515,0,l),
(103,0,l),
(60,557,l),
(231,557,l),
(210,70,l),
(462,111,l),
(426,557,l),
(598,557,l),
(572,129,l),
(661,144,l),
(623,-90,l),
(536,-90,l)
);
}
);
userData = {
public.verticalOrigin = "880";
};
vertWidth = 1000;
width = 693;
}
);
unicode = 1094;
}
{
color = (153,254,255,255);
glyphname = "che-cy";
layers = (
{
layerId = master01;
shapes = (
{
closed = 1;
nodes = (
(382,164,l),
(351,144,o),
(279,119,o),
(247,119,q),
(168,119,o),
(79,227,o),
(73,313,q),
(57,557,l),
(228,557,l),
(213,321,l),
(213,316,o),
(212,307,o),
(212,302,q),
(212,260,o),
(251,225,o),
(297,225,q),
(314,225,o),
(356,235,o),
(378,245,q),
(364,558,l),
(539,558,l),
(513,0,l),
(390,0,l)
);
}
);
userData = {
public.verticalOrigin = "880";
};
vertWidth = 1000;
width = 613;
}
);
unicode = 1095;
}
{
color = (153,254,255,255);
glyphname = "sha-cy";
layers = (
{
layerId = master01;
shapes = (
{
closed = 1;
nodes = (
(619,65,l),
(103,-12,l),
(60,557,l),
(226,557,l),
(204,143,l),
(361,126,l),
(327,557,l),
(494,557,l),
(467,114,l),
(617,97,l),
(594,557,l),
(761,557,l),
(718,0,l),
(622,0,l)
);
}
);
userData = {
public.verticalOrigin = "880";
};
vertWidth = 1000;
width = 835;
}
);
unicode = 1096;
}
{
color = (153,254,255,255);
glyphname = "shcha-cy";
layers = (
{
layerId = master01;
shapes = (
{
closed = 1;
nodes = (
(666,0,l),
(103,0,l),
(60,557,l),
(226,557,l),
(205,70,l),
(364,89,l),
(327,557,l),
(494,557,l),
(466,101,l),
(618,120,l),
(594,557,l),
(761,557,l),
(725,133,l),
(812,144,l),
(774,-90,l),
(687,-90,l)
);
}
);
userData = {
public.verticalOrigin = "880";
};
vertWidth = 1000;
width = 835;
}
);
unicode = 1097;
}
{
color = (153,254,255,255);
glyphname = "hardsign-cy";
layers = (
{
layerId = master01;
shapes = (
{
closed = 1;
nodes = (
(-6,480,l),
(-7,489,l),
(346,569,l),
(340,368,l),
(385,376,o),
(460,382,o),
(491,382,q),
(563,382,o),
(649,351,o),
(692,302,o),
(706,246,o),
(706,220,q),
(706,170,o),
(656,85,o),
(541,23,o),
(348,-12,o),
(205,-12,q),
(187,428,l)
);
},
{
closed = 1;
nodes = (
(416,59,o),
(507,111,o),
(543,179,o),
(543,218,q),
(543,246,o),
(522,286,o),
(463,308,o),
(405,308,q),
(377,308,o),
(339,305,q),
(335,41,l)
);
}
);
userData = {
public.verticalOrigin = "880";
};
vertWidth = 1000;
width = 745;
}
);
unicode = 1098;
}
{
color = (153,254,255,255);
glyphname = "yeru-cy";
layers = (
{
layerId = master01;
shapes = (
{
closed = 1;
nodes = (
(617,557,l),
(782,557,l),
(757,0,l),
(642,0,l)
);
},
{
closed = 1;
nodes = (
(227,557,l),
(221,368,l),
(255,373,o),
(314,379,o),
(339,379,q),
(405,379,o),
(490,350,o),
(538,302,o),
(557,246,o),
(557,220,q),
(557,170,o),
(516,85,o),
(413,23,o),
(229,-12,o),
(86,-12,q),
(68,557,l)
);
},
{
closed = 1;
nodes = (
(292,58,o),
(368,110,o),
(394,179,o),
(394,218,q),
(394,260,o),
(346,307,o),
(272,307,q),
(260,307,o),
(234,307,o),
(220,305,q),
(216,41,l)
);
}
);
userData = {
public.verticalOrigin = "880";
};
vertWidth = 1000;
width = 853;
}
);
unicode = 1099;
}
{
color = (153,254,255,255);
glyphname = "softsign-cy";
layers = (
{
layerId = master01;
shapes = (
{
closed = 1;
nodes = (
(86,-12,l),
(468,-12,o),
(597,87,o),
(597,220,cs),
(597,289,o),
(575,382,o),
(382,382,cs),
(340,382,o),
(291,378,o),
(231,368,c),
(237,557,l),
(68,557,l)
);
},
{
closed = 1;
nodes = (
(230,305,l),
(249,307,o),
(267,307,o),
(283,307,cs),
(388,307,o),
(424,274,o),
(424,218,cs),
(424,139,o),
(388,76,o),
(226,41,c)
);
}
);
userData = {
public.verticalOrigin = "880";
};
vertWidth = 1000;
width = 636;
}
);
unicode = 1100;
}
{
color = (153,254,255,255);
glyphname = "ereversed-cy";
layers = (
{
layerId = master01;
shapes = (
{
closed = 1;
nodes = (
(228,351,l),
(440,301,l),
(437,371,o),
(395,457,o),
(338,498,o),
(310,498,q),
(261,498,o),
(144,431,o),
(83,370,q),
(19,503,l),
(52,522,o),
(151,552,o),
(270,570,o),
(330,570,q),
(398,570,o),
(508,495,o),
(574,355,o),
(574,258,q),
(574,211,o),
(532,116,o),
(456,36,o),
(355,-12,o),
(296,-12,q),
(251,-12,o),
(145,35,o),
(45,118,o),
(8,172,q),
(16,178,l),
(65,145,o),
(172,102,o),
(268,81,o),
(299,81,q),
(328,81,o),
(378,116,o),
(416,173,o),
(439,242,o),
(440,275,q),
(228,222,l)
);
}
);
userData = {
public.verticalOrigin = "880";
};
vertWidth = 1000;
width = 612;
}
);
unicode = 1101;
}
{
color = (153,254,255,255);
glyphname = "yu-cy";
layers = (
{
layerId = master01;
shapes = (
{
closed = 1;
nodes = (
(199,0,l),
(209,218,l),
(285,264,l),
(294,96,o),
(449,-12,o),
(560,-12,cs),
(674,-12,o),
(833,102,o),
(833,278,cs),
(833,455,o),
(674,570,o),
(560,570,cs),
(452,570,o),
(301,466,o),
(286,304,c),
(215,344,l),
(225,557,l),
(60,557,l),
(86,0,l)
);
},
{
closed = 1;
nodes = (
(523,60,o),
(433,154,o),
(433,318,cs),
(433,454,o),
(469,495,o),
(533,495,cs),
(597,495,o),
(685,418,o),
(685,238,cs),
(685,103,o),
(651,60,o),
(587,60,cs)
);
}
);
userData = {
public.verticalOrigin = "880";
};
vertWidth = 1000;
width = 871;
}
);
unicode = 1102;
}
{
color = (153,254,255,255);
glyphname = "ya-cy";
layers = (
{
layerId = master01;
shapes = (
{
closed = 1;
nodes = (
(522,0,l),
(552,570,l),
(194,570,o),
(39,508,o),
(39,341,cs),
(39,248,o),
(101,200,o),
(190,187,c),
(90,-13,l),
(96,-13,l),
(396,237,l),
(411,0,l)
);
},
{
closed = 1;
nodes = (
(392,297,l),
(354,280,o),
(318,271,o),
(279,271,cs),
(220,271,o),
(189,303,o),
(189,349,cs),
(189,411,o),
(224,481,o),
(379,512,c)
);
}
);
userData = {
public.verticalOrigin = "880";
};
vertWidth = 1000;
width = 620;
}
);
unicode = 1103;
}
{
color = (153,254,255,255);
glyphname = macute;
layers = (
{
layerId = master01;
shapes = (
{
closed = 1;
nodes = (
(711,343,l),
(708,403,o),
(676,452,o),
(645,452,q),
(622,452,o),
(566,424,o),
(539,401,q),
(538,397,o),
(538,389,o),
(538,384,q),
(522,0,l),
(408,0,l),
(392,343,l),
(389,403,o),
(352,452,o),
(321,452,q),
(299,452,o),
(245,426,o),
(219,404,q),
(204,0,l),
(86,0,l),
(60,557,l),
(225,557,l),
(221,463,l),
(264,515,o),
(372,570,o),
(424,570,q),
(478,570,o),
(532,515,o),
(537,453,q),
(581,509,o),
(693,570,o),
(748,570,q),
(810,570,o),
(863,497,o),
(863,414,q),
(863,407,o),
(862,392,o),
(862,384,q),
(846,0,l),
(727,0,l)
);
},
{
closed = 1;
nodes = (
(332,630,l),
(502,802,l),
(602,710,l),
(338,621,l)
);
}
);
userData = {
public.verticalOrigin = "880";
};
vertWidth = 1000;
width = 934;
}
);
unicode = 7743;
}
{
color = (153,254,255,255);
glyphname = Ecircumflexacute;
layers = (
{
layerId = master01;
shapes = (
{
closed = 1;
nodes = (
(199,802,l),
(193,810,l),
(328,969,l),
(417,969,l),
(551,810,l),
(545,802,l),
(372,874,l)
);
},
{
closed = 1;
nodes = (
(88,780,l),
(270,780,l),
(268,704,l),
(628,790,l),
(628,628,l),
(267,663,l),
(261,410,l),
(577,484,l),
(577,325,l),
(260,370,l),
(254,129,l),
(648,87,l),
(648,77,l),
(125,-10,l)
);
},
{
closed = 1;
nodes = (
(235,969,l),
(405,1141,l),
(505,1049,l),
(241,960,l)
);
}
);
userData = {
public.verticalOrigin = "880";
};
vertWidth = 1000;
width = 689;
}
);
unicode = 7870;
}
{
glyphname = hyphentwo;
layers = (
{
layerId = master01;
shapes = (
{
closed = 1;
nodes = (
(737,372,l),
(737,379,l),
(293,471,l),
(315,274,l)
);
}
);
userData = {
public.verticalOrigin = "880";
};
vertWidth = 1000;
width = 1000;
}
);
unicode = 8208;
}
{
color = (153,254,255,255);
glyphname = figuredash;
layers = (
{
layerId = master01;
shapes = (
{
closed = 1;
nodes = (
(595,341,l),
(595,409,l),
(95,409,l),
(95,341,l)
);
}
);
userData = {
public.verticalOrigin = "880";
};
vertWidth = 1000;
width = 690;
}
);
unicode = 8210;
}
{
color = (153,254,255,255);
glyphname = endash;
layers = (
{
layerId = master01;
shapes = (
{
closed = 1;
nodes = (
(25,296,l),
(475,296,l),
(475,228,l),
(25,228,l)
);
}
);
userData = {
public.verticalOrigin = "880";
};
vertWidth = 1000;
width = 500;
}
);
unicode = 8211;
}
{
glyphname = dblverticalbar;
layers = (
{
layerId = master01;
shapes = (
{
closed = 1;
nodes = (
(648,880,l),
(555,880,l),
(555,-119,l),
(648,-120,l)
);
},
{
closed = 1;
nodes = (
(445,880,l),
(352,880,l),
(352,-119,l),
(445,-120,l)
);
}
);
userData = {
public.verticalOrigin = "880";
};
vertWidth = 1000;
width = 1000;
}
);
unicode = 8214;
}
{
color = (153,254,255,255);
glyphname = quoteright;
layers = (
{
layerId = master01;
shapes = (
{
closed = 1;
nodes = (
(159,644,l),
(40,682,l),
(146,839,l),
(284,707,l),
(107,486,l),
(99,492,l)
);
}
);
userData = {
public.verticalOrigin = "880";
};
vertWidth = 1000;
width = 345;
}
);
unicode = 8217;
}
{
glyphname = quotesinglbase;
layers = (
{
layerId = master01;
shapes = (
{
closed = 1;
nodes = (
(284,55,l),
(146,187,l),
(40,30,l),
(159,-7,l),
(99,-159,l),
(107,-165,l)
);
}
);
userData = {
public.verticalOrigin = "880";
};
vertWidth = 1000;
width = 330;
}
);
unicode = 8218;
}
{
glyphname = quotedblleft;
layers = (
{
layerId = master01;
shapes = (
{
closed = 1;
nodes = (
(477,644,l),
(370,682,l),
(424,834,l),
(417,840,l),
(257,619,l),
(382,487,l)
);
},
{
closed = 1;
nodes = (
(240,644,l),
(133,682,l),
(187,834,l),
(180,840,l),
(20,619,l),
(145,487,l)
);
}
);
userData = {
public.verticalOrigin = "880";
};
vertWidth = 1000;
width = 500;
}
);
unicode = 8220;
}
{
glyphname = quotedblright;
layers = (
{
layerId = master01;
shapes = (
{
closed = 1;
nodes = (
(365,645,l),
(258,683,l),
(353,840,l),
(478,708,l),
(318,487,l),
(311,493,l)
);
},
{
closed = 1;
nodes = (
(128,645,l),
(21,683,l),
(116,840,l),
(241,708,l),
(81,487,l),
(74,493,l)
);
}
);
userData = {
public.verticalOrigin = "880";
};
vertWidth = 1000;
width = 500;
}
);
unicode = 8221;
}
{
glyphname = quotedblbase;
layers = (
{
layerId = master01;
shapes = (
{
closed = 1;
nodes = (
(365,-6,l),
(258,31,l),
(353,188,l),
(478,56,l),
(318,-164,l),
(311,-158,l)
);
},
{
closed = 1;
nodes = (
(128,-6,l),
(21,31,l),
(116,188,l),
(241,56,l),
(81,-164,l),
(74,-158,l)
);
}
);
userData = {
public.verticalOrigin = "880";
};
vertWidth = 1000;
width = 500;
}
);
unicode = 8222;
}
{
glyphname = dagger;
layers = (
{
layerId = master01;
shapes = (
{
closed = 1;
nodes = (
(434,493,l),
(260,493,l),
(260,623,l),
(434,623,l),
(434,825,l),
(565,825,l),
(565,623,l),
(740,623,l),
(740,493,l),
(565,493,l),
(565,-74,l),
(434,-74,l)
);
}
);
userData = {
public.verticalOrigin = "880";
};
vertWidth = 1000;
width = 1000;
}
);
unicode = 8224;
}
{
glyphname = daggerdbl;
layers = (
{
layerId = master01;
shapes = (
{
closed = 1;
nodes = (
(565,-74,l),
(565,102,l),
(740,102,l),
(740,233,l),
(565,233,l),
(565,517,l),
(740,517,l),
(740,648,l),
(565,648,l),
(565,825,l),
(434,825,l),
(434,648,l),
(260,648,l),
(260,517,l),
(434,517,l),
(434,233,l),
(260,233,l),
(260,102,l),
(434,102,l),
(434,-74,l)
);
}
);
vertWidth = 1000;
width = 1000;
}
);
unicode = 8225;
}
{
glyphname = twodotenleader;
layers = (
{
layerId = master01;
shapes = (
{
closed = 1;
nodes = (
(876,416,l),
(713,252,l),
(633,458,l)
);
},
{
closed = 1;
nodes = (
(375,416,l),
(212,252,l),
(132,458,l)
);
}
);
userData = {
public.verticalOrigin = "880";
};
vertWidth = 1000;
width = 1000;
}
);
unicode = 8229;
}
{
glyphname = ellipsis;
layers = (
{
layerId = master01;
shapes = (
{
closed = 1;
nodes = (
(962,416,l),
(719,458,l),
(799,252,l)
);
},
{
closed = 1;
nodes = (
(294,416,l),
(51,458,l),
(131,252,l)
);
},
{
closed = 1;
nodes = (
(628,416,l),
(385,458,l),
(465,252,l)
);
}
);
userData = {
public.verticalOrigin = "880";
};
vertWidth = 1000;
width = 1000;
}
);
unicode = 8230;
}
{
glyphname = perthousand;
layers = (
{
layerId = master01;
shapes = (
{
closed = 1;
nodes = (
(159,407,o),
(91,459,o),
(50,550,o),
(50,607,q),
(50,664,o),
(95,755,o),
(164,807,o),
(200,807,q),
(241,807,o),
(309,754,o),
(349,663,o),
(349,607,q),
(349,548,o),
(309,457,o),
(241,407,o),
(200,407,q)
);
},
{
closed = 1;
nodes = (
(531,802,l),
(697,772,l),
(68,-37,l),
(46,-23,l)
);
},
{
closed = 1;
nodes = (
(214,465,o),
(234,505,o),
(245,570,o),
(245,607,q),
(245,645,o),
(234,710,o),
(214,750,o),
(200,750,q),
(187,750,o),
(165,710,o),
(153,645,o),
(153,607,q),
(153,570,o),
(165,505,o),
(187,465,o),
(200,465,q)
);
},
{
closed = 1;
nodes = (
(759,-20,o),
(691,32,o),
(650,121,o),
(650,179,q),
(650,236,o),
(695,326,o),
(764,379,o),
(800,379,q),
(841,379,o),
(909,326,o),
(949,235,o),
(949,179,q),
(949,120,o),
(909,30,o),
(841,-20,o),
(800,-20,q)
);
},
{
closed = 1;
nodes = (
(441,-20,o),
(373,32,o),
(332,121,o),
(332,179,q),
(332,236,o),
(378,326,o),
(447,379,o),
(482,379,q),
(523,379,o),
(591,326,o),
(631,235,o),
(631,179,q),
(631,120,o),
(591,30,o),
(523,-20,o),
(482,-20,q)
);
},
{
closed = 1;
nodes = (
(814,37,o),
(834,77,o),
(845,142,o),
(845,179,q),
(845,217,o),
(834,282,o),
(814,322,o),
(800,322,q),
(787,322,o),
(765,282,o),
(753,217,o),
(753,179,q),
(753,142,o),
(765,77,o),
(787,37,o),
(800,37,q)
);
},
{
closed = 1;
nodes = (
(496,37,o),
(516,77,o),
(527,142,o),
(527,179,q),
(527,217,o),
(516,282,o),
(496,322,o),
(482,322,q),
(469,322,o),
(447,282,o),
(435,217,o),
(435,179,q),
(435,142,o),
(447,77,o),
(469,37,o),
(482,37,q)
);
}
);
userData = {
public.verticalOrigin = "880";
};
vertWidth = 1000;
width = 1000;
}
);
unicode = 8240;
}
{
glyphname = minute;
layers = (
{
layerId = master01;
shapes = (
{
closed = 1;
nodes = (
(47,572,l),
(180,835,l),
(308,763,l),
(62,561,l)
);
}
);
userData = {
public.verticalOrigin = "880";
};
vertWidth = 1000;
width = 1000;
}
);
unicode = 8242;
}
{
glyphname = second;
layers = (
{
layerId = master01;
shapes = (
{
closed = 1;
nodes = (
(51,572,l),
(163,835,l),
(278,763,l),
(65,561,l)
);
},
{
closed = 1;
nodes = (
(211,556,l),
(331,815,l),
(446,743,l),
(225,545,l)
);
}
);
userData = {
public.verticalOrigin = "880";
};
vertWidth = 1000;
width = 1000;
}
);
unicode = 8243;
}
{
glyphname = guilsinglleft;
layers = (
{
layerId = master01;
shapes = (
{
closed = 1;
nodes = (
(90,336,l),
(556,547,l),
(565,536,l),
(248,278,l),
(567,29,l),
(558,18,l),
(90,218,l)
);
}
);
userData = {
public.verticalOrigin = "880";
};
vertWidth = 1000;
width = 640;
}
);
unicode = 8249;
}
{
glyphname = guilsinglright;
layers = (
{
layerId = master01;
shapes = (
{
closed = 1;
nodes = (
(83,29,l),
(402,278,l),
(85,536,l),
(94,547,l),
(560,336,l),
(560,218,l),
(92,18,l)
);
}
);
userData = {
public.verticalOrigin = "880";
};
vertWidth = 1000;
width = 640;
}
);
unicode = 8250;
}
{
glyphname = fraction;
layers = (
{
layerId = master01;
shapes = (
{
closed = 1;
nodes = (
(296,803,l),
(414,775,l),
(-95,-22,l),
(-106,-22,l)
);
}
);
userData = {
public.verticalOrigin = "880";
};
vertWidth = 1000;
width = 262;
}
);
unicode = 8260;
}
{
color = (153,254,255,255);
glyphname = doublequestion;
layers = (
{
layerId = master01;
shapes = (
{
closed = 1;
nodes = (
(151,384,l),
(225,414,o),
(299,471,o),
(323,523,o),
(323,546,q),
(323,737,o),
(262,737,q),
(236,737,o),
(185,692,o),
(134,614,o),
(106,566,q),
(7,699,l),
(59,736,o),
(147,781,o),
(242,801,o),
(302,801,q),
(338,801,o),
(405,760,o),
(456,691,o),
(486,604,o),
(486,559,q),
(486,511,o),
(386,407,o),
(261,358,q),
(269,212,l),
(260,210,l)
);
},
{
closed = 1;
nodes = (
(338,126,l),
(224,-21,l),
(131,164,l)
);
},
{
closed = 1;
nodes = (
(652,384,l),
(726,414,o),
(800,471,o),
(824,523,o),
(824,546,q),
(824,737,o),
(763,737,q),
(737,737,o),
(686,692,o),
(635,614,o),
(607,566,q),
(508,699,l),
(560,736,o),
(648,781,o),
(743,801,o),
(803,801,q),
(839,801,o),
(906,760,o),
(957,691,o),
(987,604,o),
(987,559,q),
(987,511,o),
(887,407,o),
(762,358,q),
(770,212,l),
(761,210,l)
);
},
{
closed = 1;
nodes = (
(839,126,l),
(725,-21,l),
(632,164,l)
);
}
);
userData = {
public.verticalOrigin = "880";
};
vertWidth = 1000;
width = 1000;
}
);
unicode = 8263;
}
{
color = (153,254,255,255);
glyphname = questionexclamation;
layers = (
{
layerId = master01;
shapes = (
{
closed = 1;
nodes = (
(151,384,l),
(225,414,o),
(299,471,o),
(323,523,o),
(323,546,q),
(323,737,o),
(262,737,q),
(236,737,o),
(185,692,o),
(134,614,o),
(106,566,q),
(7,699,l),
(59,736,o),
(147,781,o),
(242,801,o),
(302,801,q),
(338,801,o),
(405,760,o),
(456,691,o),
(486,604,o),
(486,559,q),
(486,511,o),
(386,407,o),
(261,358,q),
(269,212,l),
(260,210,l)
);
},
{
closed = 1;
nodes = (
(338,126,l),
(224,-21,l),
(131,164,l)
);
},
{
closed = 1;
nodes = (
(678,779,l),
(874,801,l),
(754,192,l),
(698,192,l)
);
},
{
closed = 1;
nodes = (
(845,126,l),
(725,-21,l),
(627,164,l)
);
}
);
userData = {
public.verticalOrigin = "880";
};
vertWidth = 1000;
width = 1000;
}
);
unicode = 8264;
}
{
color = (153,254,255,255);
glyphname = exclamationquestion;
layers = (
{
layerId = master01;
shapes = (
{
closed = 1;
nodes = (
(344,126,l),
(126,164,l),
(224,-21,l)
);
},
{
closed = 1;
nodes = (
(253,192,l),
(373,801,l),
(177,779,l),
(197,192,l)
);
},
{
closed = 1;
nodes = (
(770,212,l),
(762,358,l),
(929,423,o),
(987,495,o),
(987,559,cs),
(987,680,o),
(900,801,o),
(803,801,cs),
(682,801,o),
(612,773,o),
(508,699,c),
(607,566,l),
(662,662,o),
(711,737,o),
(763,737,cs),
(805,737,o),
(824,674,o),
(824,546,cs),
(824,500,o),
(800,444,o),
(652,384,c),
(761,210,l)
);
},
{
closed = 1;
nodes = (
(725,-21,l),
(839,126,l),
(632,164,l)
);
}
);
userData = {
public.verticalOrigin = "880";
};
vertWidth = 1000;
width = 1000;
}
);
unicode = 8265;
}
{
glyphname = twodotpunctuation;
layers = (
{
layerId = master01;
shapes = (
{
closed = 1;
nodes = (
(624,665,l),
(461,501,l),
(381,707,l)
);
},
{
closed = 1;
nodes = (
(625,165,l),
(462,1,l),
(382,207,l)
);
}
);
userData = {
public.verticalOrigin = "880";
};
vertWidth = 1000;
width = 1000;
}
);
unicode = (8282,65072);
}
{
glyphname = tricolon;
layers = (
{
layerId = master01;
shapes = (
{
closed = 1;
nodes = (
(628,750,l),
(465,586,l),
(385,792,l)
);
},
{
closed = 1;
nodes = (
(628,416,l),
(465,252,l),
(385,458,l)
);
},
{
closed = 1;
nodes = (
(385,124,l),
(628,82,l),
(465,-81,l)
);
}
);
userData = {
public.verticalOrigin = "880";
};
vertWidth = 1000;
width = 1000;
}
);
unicode = (8285,65049);
}
{
glyphname = foursuperior;
layers = (
{
layerId = master01;
shapes = (
{
closed = 1;
nodes = (
(341,429,l),
(338,363,l),
(248,363,l),
(246,429,l),
(17,429,l),
(151,802,l),
(309,788,l),
(103,483,l),
(242,511,l),
(233,648,l),
(353,648,l),
(344,532,l),
(413,546,l),
(413,429,l)
);
}
);
userData = {
public.verticalOrigin = "880";
};
vertWidth = 1000;
width = 445;
}
);
unicode = 8308;
}
{
glyphname = euro;
layers = (
{
layerId = master01;
shapes = (
{
closed = 1;
nodes = (
(492,178,l),
(255,211,l),
(297,135,o),
(497,28,o),
(678,-7,q),
(676,-20,l),
(478,-20,o),
(219,43,o),
(78,159,o),
(57,238,q),
(-32,250,l),
(-32,257,l),
(51,269,l),
(48,291,o),
(48,314,q),
(48,390,o),
(62,457,q),
(-32,470,l),
(-32,477,l),
(70,492,l),
(97,594,o),
(203,731,o),
(338,801,o),
(408,801,q),
(485,801,o),
(641,769,o),
(705,736,q),
(649,573,l),
(522,702,o),
(378,702,q),
(345,702,o),
(289,651,o),
(245,567,o),
(232,516,q),
(492,555,l),
(492,398,l),
(217,436,l),
(215,411,o),
(215,388,q),
(215,337,o),
(224,295,q),
(492,335,l)
);
}
);
userData = {
public.verticalOrigin = "880";
};
vertWidth = 1000;
width = 737;
}
);
unicode = 8364;
}
{
glyphname = centigrade;
layers = (
{
layerId = master01;
shapes = (
{
closed = 1;
nodes = (
(204,819,o),
(128,767,o),
(128,726,q),
(128,706,o),
(152,678,o),
(172,678,q),
(188,678,o),
(212,706,o),
(212,724,q),
(212,738,o),
(196,765,o),
(176,775,q),
(246,813,l),
(272,790,o),
(296,740,o),
(296,717,q),
(296,673,o),
(230,610,o),
(182,610,q),
(127,610,o),
(64,670,o),
(64,718,q),
(64,768,o),
(150,837,o),
(239,837,q),
(244,837,o),
(255,836,o),
(261,836,q),
(262,829,l)
);
},
{
closed = 1;
nodes = (
(698,-20,o),
(458,28,o),
(310,116,o),
(241,239,o),
(241,314,q),
(241,434,o),
(303,616,o),
(407,739,o),
(535,801,o),
(601,801,q),
(678,801,o),
(834,769,o),
(898,736,q),
(842,573,l),
(715,702,o),
(571,702,q),
(537,702,o),
(477,646,o),
(433,553,o),
(408,442,o),
(408,388,q),
(408,313,o),
(451,190,o),
(555,93,o),
(735,20,o),
(871,-7,q),
(869,-20,l)
);
}
);
userData = {
public.verticalOrigin = "880";
};
vertWidth = 1000;
width = 1000;
}
);
unicode = 8451;
}
{
glyphname = fahrenheit;
layers = (
{
layerId = master01;
shapes = (
{
closed = 1;
nodes = (
(212,804,o),
(124,744,o),
(124,697,q),
(124,673,o),
(152,641,o),
(175,641,q),
(193,641,o),
(221,673,o),
(221,695,q),
(221,711,o),
(202,742,o),
(179,753,q),
(260,797,l),
(291,771,o),
(318,713,o),
(318,686,q),
(318,652,o),
(283,596,o),
(224,562,o),
(187,562,q),
(123,562,o),
(50,632,o),
(50,687,q),
(50,745,o),
(151,825,o),
(254,825,q),
(260,825,o),
(271,824,o),
(277,824,q),
(279,815,l)
);
},
{
closed = 1;
nodes = (
(514,0,l),
(386,0,l),
(349,780,l),
(531,780,l),
(529,705,l),
(871,790,l),
(871,628,l),
(528,663,l),
(522,384,l),
(826,458,l),
(826,299,l),
(521,344,l)
);
}
);
userData = {
public.verticalOrigin = "880";
};
vertWidth = 1000;
width = 1000;
}
);
unicode = 8457;
}
{
glyphname = gscript;
layers = (
{
layerId = master01;
shapes = (
{
closed = 1;
nodes = (
(583,-93,o),
(619,-60,o),
(619,-8,q),
(619,-2,o),
(618,9,o),
(618,16,q),
(614,107,l),
(575,73,o),
(464,30,o),
(400,30,q),
(315,30,o),
(216,119,o),
(216,218,q),
(216,296,o),
(304,425,o),
(457,519,o),
(654,570,o),
(763,570,q),
(744,28,l),
(741,-62,o),
(708,-165,o),
(644,-208,o),
(594,-208,q),
(581,-208,o),
(553,-205,o),
(538,-203,q),
(474,-194,o),
(316,-127,o),
(229,-49,q),
(234,-41,l),
(261,-51,o),
(338,-70,o),
(420,-84,o),
(490,-92,o),
(510,-93,q),
(530,-93,l)
);
},
{
closed = 1;
nodes = (
(478,458,o),
(366,325,o),
(366,238,q),
(366,180,o),
(412,134,o),
(456,134,q),
(497,134,o),
(571,153,o),
(611,172,q),
(598,497,l)
);
}
);
userData = {
public.verticalOrigin = "880";
};
vertWidth = 1000;
width = 1000;
}
);
unicode = 8458;
}
{
glyphname = literSign;
layers = (
{
layerId = master01;
shapes = (
{
closed = 1;
nodes = (
(705,206,l),
(643,130,o),
(592,101,o),
(553,101,cs),
(532,101,o),
(514,109,o),
(499,123,cs),
(494,128,o),
(488,134,o),
(484,139,c),
(589,229,o),
(658,332,o),
(689,411,cs),
(721,491,o),
(736,601,o),
(736,673,cs),
(736,766,o),
(679,812,o),
(610,812,cs),
(555,812,o),
(492,782,o),
(444,722,cs),
(393,658,o),
(346,572,o),
(322,466,cs),
(310,413,o),
(305,362,o),
(305,315,cs),
(305,237,o),
(320,168,o),
(347,112,c),
(321,72,o),
(283,30,o),
(245,-4,c),
(252,-12,l),
(301,10,o),
(340,34,o),
(378,61,c),
(391,43,o),
(406,26,o),
(423,12,cs),
(450,-10,o),
(480,-22,o),
(511,-22,cs),
(588,-22,o),
(668,49,o),
(717,201,c)
);
},
{
closed = 1;
nodes = (
(602,717,ls),
(598,653,o),
(574,520,o),
(542,437,cs),
(516,371,o),
(477,300,o),
(432,234,c),
(430,249,o),
(428,266,o),
(428,284,cs),
(428,336,o),
(437,401,o),
(456,477,cs),
(471,539,o),
(517,672,o),
(553,726,cs),
(565,743,o),
(576,751,o),
(585,751,cs),
(595,751,o),
(602,741,o),
(602,723,cs)
);
}
);
vertOrigin = -15;
vertWidth = 1000;
width = 1000;
}
);
unicode = 8467;
}
{
glyphname = numero;
layers = (
{
layerId = master01;
shapes = (
{
closed = 1;
nodes = (
(145,550,l),
(82,-13,l),
(63,-13,l),
(10,780,l),
(152,780,l),
(345,374,l),
(429,790,l),
(445,790,l),
(414,-13,l),
(404,-13,l)
);
},
{
closed = 1;
nodes = (
(835,64,o),
(736,-13,o),
(676,-13,q),
(637,-13,o),
(560,28,o),
(496,105,o),
(458,212,o),
(458,278,q),
(458,367,o),
(521,498,o),
(618,570,o),
(670,570,q),
(709,570,o),
(786,529,o),
(849,452,o),
(886,344,o),
(886,278,q),
(886,222,o),
(874,175,q),
(995,140,l),
(898,-23,l),
(861,132,l)
);
},
{
closed = 1;
nodes = (
(726,59,o),
(748,138,o),
(748,238,q),
(748,373,o),
(693,495,o),
(649,495,q),
(624,495,o),
(596,419,o),
(596,318,q),
(596,195,o),
(656,59,o),
(697,59,q)
);
}
);
userData = {
public.verticalOrigin = "880";
};
vertWidth = 1000;
width = 1000;
}
);
unicode = 8470;
}
{
glyphname = telephone;
layers = (
{
layerId = master01;
shapes = (
{
closed = 1;
nodes = (
(114,659,l),
(17,638,l),
(17,790,l),
(385,738,l),
(385,716,l),
(277,694,l),
(254,0,l),
(137,0,l)
);
},
{
closed = 1;
nodes = (
(339,552,l),
(471,552,l),
(469,493,l),
(649,560,l),
(649,430,l),
(468,457,l),
(464,287,l),
(612,345,l),
(612,218,l),
(463,253,l),
(459,101,l),
(664,67,l),
(664,59,l),
(366,-10,l)
);
},
{
closed = 1;
nodes = (
(694,552,l),
(835,552,l),
(814,121,l),
(994,87,l),
(994,78,l),
(714,-7,l)
);
}
);
userData = {
public.verticalOrigin = "880";
};
vertWidth = 1000;
width = 1000;
}
);
unicode = 8481;
}
{
glyphname = trademark;
layers = (
{
layerId = master01;
shapes = (
{
closed = 1;
nodes = (
(234,359,l),
(253,697,l),
(362,716,l),
(362,724,l),
(24,780,l),
(24,657,l),
(127,675,l),
(144,359,l)
);
},
{
closed = 1;
nodes = (
(799,359,l),
(809,780,l),
(674,780,l),
(597,533,l),
(505,780,l),
(371,780,l),
(418,351,l),
(427,351,l),
(484,640,l),
(582,391,l),
(593,391,l),
(688,642,l),
(715,359,l)
);
}
);
vertWidth = 1000;
width = 850;
}
);
unicode = 8482;
}
{
glyphname = angstrom;
layers = (
{
layerId = master01;
shapes = (
{
closed = 1;
nodes = (
(665,178,l),
(269,109,l),
(165,-74,l),
(149,-74,l),
(404,636,l),
(388,650,o),
(358,695,o),
(358,717,q),
(358,751,o),
(404,799,o),
(475,825,o),
(510,825,q),
(544,825,o),
(614,799,o),
(662,751,o),
(662,717,q),
(662,692,o),
(630,649,o),
(611,635,q),
(901,-61,l),
(783,-74,l)
);
},
{
closed = 1;
nodes = (
(564,740,o),
(533,772,o),
(510,772,q),
(488,772,o),
(456,740,o),
(456,717,q),
(456,695,o),
(488,664,o),
(510,664,q),
(533,664,o),
(564,695,o),
(564,717,q)
);
},
{
closed = 1;
nodes = (
(347,249,l),
(653,202,l),
(502,526,l)
);
}
);
userData = {
public.verticalOrigin = "880";
};
vertWidth = 1000;
width = 1000;
}
);
unicode = 8491;
}
{
glyphname = facsimile;
layers = (
{
layerId = master01;
shapes = (
{
closed = 1;
nodes = (
(770,286,l),
(678,65,l),
(690,2,l),
(606,-11,l),
(553,231,l),
(338,171,l),
(278,-11,l),
(265,-11,l),
(420,779,l),
(533,803,l),
(669,111,l),
(733,377,l),
(733,377,o),
(711,431,o),
(677,516,o),
(639,611,o),
(605,696,o),
(583,750,o),
(583,750,q),
(718,802,l),
(718,802,o),
(731,763,o),
(751,705,o),
(771,645,o),
(786,602,o),
(787,599,q),
(830,780,l),
(976,780,l),
(838,449,l),
(990,0,l),
(889,-9,l)
);
},
{
closed = 1;
nodes = (
(22,780,l),
(169,780,l),
(169,706,l),
(348,790,l),
(348,628,l),
(168,662,l),
(163,385,l),
(311,458,l),
(311,299,l),
(162,344,l),
(156,0,l),
(52,0,l)
);
},
{
closed = 1;
nodes = (
(385,312,l),
(385,312,o),
(417,304,o),
(464,292,o),
(512,281,o),
(544,272,o),
(544,272,q),
(476,589,l)
);
}
);
userData = {
public.verticalOrigin = "880";
};
vertWidth = 1000;
width = 1000;
}
);
unicode = 8507;
}
{
glyphname = "Two-roman";
layers = (
{
layerId = master01;
shapes = (
{
closed = 1;
nodes = (
(546,780,l),
(734,780,l),
(706,0,l),
(574,0,l)
);
},
{
closed = 1;
nodes = (
(266,780,l),
(454,780,l),
(426,0,l),
(294,0,l)
);
}
);
userData = {
public.verticalOrigin = "880";
};
vertWidth = 1000;
width = 1000;
}
);
unicode = 8545;
}
{
glyphname = "Three-roman";
layers = (
{
layerId = master01;
shapes = (
{
closed = 1;
nodes = (
(686,780,l),
(872,780,l),
(844,0,l),
(714,0,l)
);
},
{
closed = 1;
nodes = (
(408,780,l),
(594,780,l),
(566,0,l),
(436,0,l)
);
},
{
closed = 1;
nodes = (
(130,780,l),
(316,780,l),
(288,0,l),
(158,0,l)
);
}
);
userData = {
public.verticalOrigin = "880";
};
vertWidth = 1000;
width = 1000;
}
);
unicode = 8546;
}
{
glyphname = "Four-roman";
layers = (
{
layerId = master01;
shapes = (
{
closed = 1;
nodes = (
(339,760,l),
(526,800,l),
(618,167,l),
(896,790,l),
(910,790,l),
(719,-13,l),
(544,0,l)
);
},
{
closed = 1;
nodes = (
(119,780,l),
(307,780,l),
(279,0,l),
(147,0,l)
);
}
);
userData = {
public.verticalOrigin = "880";
};
vertWidth = 1000;
width = 1000;
}
);
unicode = 8547;
}
{
glyphname = "Five-roman";
layers = (
{
layerId = master01;
shapes = (
{
closed = 1;
nodes = (
(166,760,l),
(353,800,l),
(505,167,l),
(843,790,l),
(857,790,l),
(606,-13,l),
(431,0,l)
);
}
);
userData = {
public.verticalOrigin = "880";
};
vertWidth = 1000;
width = 1000;
}
);
unicode = 8548;
}
{
glyphname = "Six-roman";
layers = (
{
layerId = master01;
shapes = (
{
closed = 1;
nodes = (
(87,760,l),
(274,800,l),
(366,167,l),
(644,790,l),
(658,790,l),
(467,-13,l),
(292,0,l)
);
},
{
closed = 1;
nodes = (
(692,780,l),
(880,780,l),
(852,0,l),
(720,0,l)
);
}
);
userData = {
public.verticalOrigin = "880";
};
vertWidth = 1000;
width = 1000;
}
);
unicode = 8549;
}
{
glyphname = "Seven-roman";
layers = (
{
layerId = master01;
shapes = (
{
closed = 1;
nodes = (
(519,790,l),
(505,790,l),
(267,167,l),
(215,800,l),
(28,760,l),
(193,0,l),
(368,-13,l)
);
},
{
closed = 1;
nodes = (
(699,0,l),
(727,780,l),
(543,780,l),
(571,0,l)
);
},
{
closed = 1;
nodes = (
(919,0,l),
(947,780,l),
(763,780,l),
(791,0,l)
);
}
);
userData = {
public.verticalOrigin = "880";
};
vertWidth = 1000;
width = 1000;
}
);
unicode = 8550;
}
{
glyphname = "Eight-roman";
layers = (
{
layerId = master01;
shapes = (
{
closed = 1;
nodes = (
(415,790,l),
(402,790,l),
(208,182,l),
(187,800,l),
(14,760,l),
(136,0,l),
(307,-13,l)
);
},
{
closed = 1;
nodes = (
(575,0,l),
(602,780,l),
(438,780,l),
(465,0,l)
);
},
{
closed = 1;
nodes = (
(764,0,l),
(791,780,l),
(627,780,l),
(654,0,l)
);
},
{
closed = 1;
nodes = (
(953,0,l),
(980,780,l),
(816,780,l),
(843,0,l)
);
}
);
userData = {
public.verticalOrigin = "880";
};
vertWidth = 1000;
width = 1000;
}
);
unicode = 8551;
}
{
glyphname = "Nine-roman";
layers = (
{
layerId = master01;
shapes = (
{
closed = 1;
nodes = (
(618,314,l),
(405,-13,l),
(388,-13,l),
(569,395,l),
(357,750,l),
(523,802,l),
(645,565,l),
(740,780,l),
(919,780,l),
(705,449,l),
(937,0,l),
(812,-9,l)
);
},
{
closed = 1;
nodes = (
(119,780,l),
(305,780,l),
(277,0,l),
(147,0,l)
);
}
);
userData = {
public.verticalOrigin = "880";
};
vertWidth = 1000;
width = 1000;
}
);
unicode = 8552;
}
{
glyphname = "Eleven-roman";
layers = (
{
layerId = master01;
shapes = (
{
closed = 1;
nodes = (
(129,-13,l),
(342,314,l),
(536,-9,l),
(661,0,l),
(429,449,l),
(643,780,l),
(464,780,l),
(369,565,l),
(247,802,l),
(81,750,l),
(293,395,l),
(112,-13,l)
);
},
{
closed = 1;
nodes = (
(849,0,l),
(877,780,l),
(691,780,l),
(719,0,l)
);
}
);
userData = {
public.verticalOrigin = "880";
};
vertWidth = 1000;
width = 1000;
}
);
unicode = 8554;
}
{
glyphname = "Twelve-roman";
layers = (
{
layerId = master01;
shapes = (
{
closed = 1;
nodes = (
(267,311,l),
(87,-13,l),
(70,-13,l),
(220,407,l),
(53,750,l),
(215,802,l),
(293,612,l),
(353,780,l),
(527,780,l),
(353,466,l),
(545,0,l),
(424,-9,l)
);
},
{
closed = 1;
nodes = (
(763,780,l),
(947,780,l),
(919,0,l),
(791,0,l)
);
},
{
closed = 1;
nodes = (
(555,780,l),
(739,780,l),
(711,0,l),
(583,0,l)
);
}
);
userData = {
public.verticalOrigin = "880";
};
vertWidth = 1000;
width = 1000;
}
);
unicode = 8555;
}
{
glyphname = "one-roman";
layers = (
{
layerId = master01;
shapes = (
{
closed = 1;
nodes = (
(639,752,l),
(476,588,l),
(396,794,l)
);
},
{
closed = 1;
nodes = (
(413,557,l),
(589,557,l),
(563,0,l),
(439,0,l)
);
}
);
userData = {
public.verticalOrigin = "880";
};
vertWidth = 1000;
width = 1000;
}
);
unicode = 8560;
}
{
glyphname = "two-roman";
layers = (
{
layerId = master01;
shapes = (
{
closed = 1;
nodes = (
(770,752,l),
(607,588,l),
(527,794,l)
);
},
{
closed = 1;
nodes = (
(505,752,l),
(342,588,l),
(262,794,l)
);
},
{
closed = 1;
nodes = (
(544,557,l),
(720,557,l),
(694,0,l),
(570,0,l)
);
},
{
closed = 1;
nodes = (
(279,557,l),
(455,557,l),
(429,0,l),
(305,0,l)
);
}
);
userData = {
public.verticalOrigin = "880";
};
vertWidth = 1000;
width = 1000;
}
);
unicode = 8561;
}
{
glyphname = "three-roman";
layers = (
{
layerId = master01;
shapes = (
{
closed = 1;
nodes = (
(816,0,l),
(842,557,l),
(669,557,l),
(695,0,l)
);
},
{
closed = 1;
nodes = (
(306,0,l),
(332,557,l),
(159,557,l),
(185,0,l)
);
},
{
closed = 1;
nodes = (
(560,0,l),
(586,557,l),
(413,557,l),
(439,0,l)
);
},
{
closed = 1;
nodes = (
(382,752,l),
(142,794,l),
(222,588,l)
);
},
{
closed = 1;
nodes = (
(636,752,l),
(396,794,l),
(476,588,l)
);
},
{
closed = 1;
nodes = (
(892,752,l),
(652,794,l),
(732,588,l)
);
}
);
userData = {
public.verticalOrigin = "880";
};
vertWidth = 1000;
width = 1000;
}
);
unicode = 8562;
}
{
glyphname = "four-roman";
layers = (
{
layerId = master01;
shapes = (
{
closed = 1;
nodes = (
(382,752,l),
(222,588,l),
(142,794,l)
);
},
{
closed = 1;
nodes = (
(381,528,l),
(552,569,l),
(655,167,l),
(902,567,l),
(916,567,l),
(736,-13,l),
(599,0,l)
);
},
{
closed = 1;
nodes = (
(159,557,l),
(332,557,l),
(306,0,l),
(185,0,l)
);
}
);
userData = {
public.verticalOrigin = "880";
};
vertWidth = 1000;
width = 1000;
}
);
unicode = 8563;
}
{
glyphname = "five-roman";
layers = (
{
layerId = master01;
shapes = (
{
closed = 1;
nodes = (
(755,567,l),
(741,567,l),
(489,167,l),
(381,569,l),
(210,528,l),
(433,0,l),
(570,-13,l)
);
}
);
userData = {
public.verticalOrigin = "880";
};
vertWidth = 1000;
width = 1000;
}
);
unicode = 8564;
}
{
glyphname = "six-roman";
layers = (
{
layerId = master01;
shapes = (
{
closed = 1;
nodes = (
(886,752,l),
(726,588,l),
(646,794,l)
);
},
{
closed = 1;
nodes = (
(77,528,l),
(248,569,l),
(351,167,l),
(598,567,l),
(612,567,l),
(432,-13,l),
(295,0,l)
);
},
{
closed = 1;
nodes = (
(663,557,l),
(836,557,l),
(810,0,l),
(689,0,l)
);
}
);
userData = {
public.verticalOrigin = "880";
};
vertWidth = 1000;
width = 1000;
}
);
unicode = 8565;
}
{
glyphname = "seven-roman";
layers = (
{
layerId = master01;
shapes = (
{
closed = 1;
nodes = (
(966,752,l),
(822,588,l),
(742,794,l)
);
},
{
closed = 1;
nodes = (
(746,752,l),
(602,588,l),
(522,794,l)
);
},
{
closed = 1;
nodes = (
(49,528,l),
(220,569,l),
(297,167,l),
(520,567,l),
(534,567,l),
(374,-13,l),
(237,0,l)
);
},
{
closed = 1;
nodes = (
(773,557,l),
(934,557,l),
(908,0,l),
(799,0,l)
);
},
{
closed = 1;
nodes = (
(553,557,l),
(714,557,l),
(688,0,l),
(579,0,l)
);
}
);
userData = {
public.verticalOrigin = "880";
};
vertWidth = 1000;
width = 1000;
}
);
unicode = 8566;
}
{
glyphname = "eight-roman";
layers = (
{
layerId = master01;
shapes = (
{
closed = 1;
nodes = (
(422,567,l),
(408,567,l),
(217,167,l),
(166,569,l),
(9,528,l),
(157,0,l),
(294,-13,l)
);
},
{
closed = 1;
nodes = (
(566,0,l),
(592,557,l),
(443,557,l),
(469,0,l)
);
},
{
closed = 1;
nodes = (
(756,0,l),
(782,557,l),
(633,557,l),
(659,0,l)
);
},
{
closed = 1;
nodes = (
(946,0,l),
(972,557,l),
(823,557,l),
(849,0,l)
);
},
{
closed = 1;
nodes = (
(618,745,l),
(670,588,l),
(808,745,l),
(860,588,l),
(1004,752,l),
(792,794,l),
(805,753,l),
(602,794,l),
(615,753,l),
(412,794,l),
(480,588,l)
);
}
);
userData = {
public.verticalOrigin = "880";
};
vertWidth = 1000;
width = 1000;
}
);
unicode = 8567;
}
{
glyphname = "nine-roman";
layers = (
{
layerId = master01;
shapes = (
{
closed = 1;
nodes = (
(425,-13,l),
(620,218,l),
(795,0,l),
(931,0,l),
(706,320,l),
(904,557,l),
(734,557,l),
(647,404,l),
(530,571,l),
(372,528,l),
(574,276,l),
(409,-13,l)
);
},
{
closed = 1;
nodes = (
(307,0,l),
(333,557,l),
(157,557,l),
(183,0,l)
);
},
{
closed = 1;
nodes = (
(383,752,l),
(140,794,l),
(220,588,l)
);
}
);
userData = {
public.verticalOrigin = "880";
};
vertWidth = 1000;
width = 1000;
}
);
unicode = 8568;
}
{
glyphname = "ten-roman";
layers = (
{
layerId = master01;
shapes = (
{
closed = 1;
nodes = (
(287,-13,l),
(482,218,l),
(657,0,l),
(793,0,l),
(568,320,l),
(766,557,l),
(596,557,l),
(509,404,l),
(392,571,l),
(234,528,l),
(436,276,l),
(271,-13,l)
);
}
);
userData = {
public.verticalOrigin = "880";
};
vertWidth = 1000;
width = 1000;
}
);
unicode = 8569;
}
{
glyphname = "eleven-roman";
layers = (
{
layerId = master01;
shapes = (
{
closed = 1;
nodes = (
(886,752,l),
(726,588,l),
(646,794,l)
);
},
{
closed = 1;
nodes = (
(328,218,l),
(133,-13,l),
(117,-13,l),
(282,276,l),
(80,528,l),
(238,571,l),
(355,404,l),
(442,557,l),
(612,557,l),
(414,320,l),
(639,0,l),
(503,0,l)
);
},
{
closed = 1;
nodes = (
(663,557,l),
(836,557,l),
(810,0,l),
(689,0,l)
);
}
);
userData = {
public.verticalOrigin = "880";
};
vertWidth = 1000;
width = 1000;
}
);
unicode = 8570;
}
{
glyphname = leftArrow;
layers = (
{
layerId = master01;
shapes = (
{
closed = 1;
nodes = (
(425,162,l),
(419,156,l),
(49,375,l),
(421,593,l),
(425,588,l),
(289,405,l),
(950,462,l),
(950,289,l),
(288,346,l)
);
}
);
userData = {
public.verticalOrigin = "880";
};
vertWidth = 1000;
width = 1000;
}
);
unicode = 8592;
}
{
glyphname = rightArrow;
layers = (
{
layerId = master01;
shapes = (
{
closed = 1;
nodes = (
(575,162,l),
(712,346,l),
(50,289,l),
(50,462,l),
(711,405,l),
(575,588,l),
(579,593,l),
(951,375,l),
(581,156,l)
);
}
);
userData = {
public.verticalOrigin = "880";
};
vertWidth = 1000;
width = 1000;
}
);
unicode = 8594;
}
{
glyphname = downArrow;
layers = (
{
layerId = master01;
shapes = (
{
closed = 1;
nodes = (
(718,296,l),
(713,300,l),
(530,164,l),
(587,825,l),
(414,825,l),
(471,163,l),
(287,300,l),
(281,294,l),
(500,-75,l)
);
}
);
userData = {
public.verticalOrigin = "880";
};
vertWidth = 1000;
width = 1000;
}
);
unicode = 8595;
}
{
glyphname = rightOverLeftArrow;
layers = (
{
layerId = master01;
shapes = (
{
closed = 1;
nodes = (
(639,476,l),
(50,476,l),
(50,583,l),
(638,583,l),
(579,747,l),
(951,529,l),
(580,310,l)
);
},
{
closed = 1;
nodes = (
(419,14,l),
(49,233,l),
(421,451,l),
(361,287,l),
(950,287,l),
(950,180,l),
(361,180,l)
);
}
);
userData = {
public.verticalOrigin = "880";
};
vertWidth = 1000;
width = 1000;
}
);
unicode = 8644;
}
{
glyphname = upAndDownArrow;
layers = (
{
layerId = master01;
shapes = (
{
closed = 1;
nodes = (
(299,523,l),
(133,465,l),
(352,835,l),
(570,463,l),
(406,523,l),
(406,-59,l),
(299,-59,l)
);
},
{
closed = 1;
nodes = (
(595,245,l),
(595,825,l),
(702,825,l),
(702,246,l),
(866,305,l),
(648,-66,l),
(429,304,l)
);
}
);
userData = {
public.verticalOrigin = "880";
};
vertWidth = 1000;
width = 1000;
}
);
unicode = 8645;
}
{
glyphname = leftAndRightArrow;
layers = (
{
layerId = master01;
shapes = (
{
closed = 1;
nodes = (
(420,310,l),
(49,529,l),
(421,747,l),
(362,583,l),
(950,583,l),
(950,476,l),
(361,476,l)
);
},
{
closed = 1;
nodes = (
(639,180,l),
(50,180,l),
(50,287,l),
(639,287,l),
(579,451,l),
(951,233,l),
(581,14,l)
);
}
);
userData = {
public.verticalOrigin = "880";
};
vertWidth = 1000;
width = 1000;
}
);
unicode = 8646;
}
{
glyphname = rightDoubleArrow;
layers = (
{
layerId = master01;
shapes = (
{
closed = 1;
nodes = (
(547,42,l),
(658,226,l),
(75,177,l),
(75,340,l),
(696,289,l),
(748,375,l),
(693,465,l),
(75,413,l),
(75,576,l),
(655,528,l),
(547,708,l),
(555,715,l),
(951,375,l),
(555,35,l)
);
}
);
userData = {
public.verticalOrigin = "880";
};
vertWidth = 1000;
width = 1000;
}
);
unicode = 8658;
}
{
glyphname = leftRightDoubleArrow;
layers = (
{
layerId = master01;
shapes = (
{
closed = 1;
nodes = (
(585,42,l),
(663,178,l),
(321,212,l),
(418,42,l),
(410,35,l),
(24,375,l),
(410,715,l),
(418,708,l),
(340,572,l),
(682,538,l),
(585,708,l),
(593,715,l),
(979,375,l),
(593,35,l)
);
},
{
closed = 1;
nodes = (
(722,469,l),
(262,436,l),
(227,375,l),
(281,281,l),
(741,314,l),
(776,375,l)
);
}
);
userData = {
public.verticalOrigin = "880";
};
vertWidth = 1000;
width = 1000;
}
);
unicode = 8660;
}
{
glyphname = upWhiteArrow;
layers = (
{
layerId = master01;
shapes = (
{
closed = 1;
nodes = (
(368,469,l),
(190,469,l),
(499,833,l),
(807,469,l),
(629,469,l),
(629,-14,l),
(368,-14,l)
);
},
{
closed = 1;
nodes = (
(711,514,l),
(499,765,l),
(288,514,l),
(413,514,l),
(413,30,l),
(584,30,l),
(584,514,l)
);
}
);
userData = {
public.verticalOrigin = "880";
};
vertWidth = 1000;
width = 1000;
}
);
unicode = 8679;
}
{
glyphname = rightWhiteArrow;
layers = (
{
layerId = master01;
shapes = (
{
closed = 1;
nodes = (
(594,249,l),
(110,249,l),
(110,510,l),
(594,510,l),
(594,688,l),
(958,380,l),
(594,71,l)
);
},
{
closed = 1;
nodes = (
(639,465,l),
(155,465,l),
(155,294,l),
(639,294,l),
(639,169,l),
(889,380,l),
(639,591,l)
);
}
);
userData = {
public.verticalOrigin = "880";
};
vertWidth = 1000;
width = 1000;
}
);
unicode = 8680;
}
{
glyphname = downWhiteArrow;
layers = (
{
layerId = master01;
shapes = (
{
closed = 1;
nodes = (
(368,289,l),
(368,773,l),
(629,773,l),
(629,289,l),
(807,289,l),
(499,-74,l),
(190,289,l)
);
},
{
closed = 1;
nodes = (
(584,244,l),
(584,728,l),
(413,728,l),
(413,244,l),
(287,244,l),
(499,-6,l),
(711,244,l)
);
}
);
userData = {
public.verticalOrigin = "880";
};
vertWidth = 1000;
width = 1000;
}
);
unicode = 8681;
}
{
glyphname = downAndUpArrow;
layers = (
{
layerId = master01;
shapes = (
{
closed = 1;
nodes = (
(595,520,l),
(429,461,l),
(648,832,l),
(866,460,l),
(702,519,l),
(702,-59,l),
(595,-59,l)
);
},
{
closed = 1;
nodes = (
(299,242,l),
(299,825,l),
(406,825,l),
(406,242,l),
(570,302,l),
(352,-69,l),
(133,300,l)
);
}
);
userData = {
public.verticalOrigin = "880";
};
vertWidth = 1000;
width = 1000;
}
);
unicode = 8693;
}
{
glyphname = universal;
layers = (
{
layerId = master01;
shapes = (
{
closed = 1;
nodes = (
(156,760,l),
(343,800,l),
(401,573,l),
(706,526,l),
(853,790,l),
(867,790,l),
(606,-13,l),
(431,0,l)
);
},
{
closed = 1;
nodes = (
(430,458,l),
(505,167,l),
(693,504,l)
);
}
);
userData = {
public.verticalOrigin = "880";
};
vertWidth = 1000;
width = 1000;
}
);
unicode = 8704;
}
{
glyphname = partialdiff;
layers = (
{
layerId = master01;
shapes = (
{
closed = 1;
nodes = (
(355,775,o),
(519,775,q),
(569,775,o),
(673,734,o),
(762,647,o),
(817,510,o),
(817,414,q),
(817,332,o),
(754,179,o),
(649,59,o),
(518,-11,o),
(450,-11,q),
(400,-11,o),
(313,27,o),
(248,90,o),
(211,167,o),
(211,206,q),
(211,263,o),
(256,365,o),
(334,445,o),
(435,491,o),
(492,491,q),
(550,491,o),
(640,456,o),
(668,436,q),
(668,525,o),
(630,643,o),
(569,702,o),
(533,702,q),
(502,702,o),
(431,659,o),
(367,596,o),
(346,566,q),
(247,685,l)
);
},
{
closed = 1;
nodes = (
(639,414,o),
(562,431,o),
(527,431,q),
(521,431,o),
(510,431,o),
(505,430,q),
(464,426,o),
(393,369,o),
(350,269,o),
(350,198,q),
(350,138,o),
(405,61,o),
(439,61,q),
(473,61,o),
(546,107,o),
(612,196,o),
(658,322,o),
(664,401,q)
);
}
);
userData = {
public.verticalOrigin = "880";
};
vertWidth = 1000;
width = 1000;
}
);
unicode = 8706;
}
{
glyphname = existential;
layers = (
{
layerId = master01;
shapes = (
{
closed = 1;
nodes = (
(196,81,l),
(691,153,l),
(691,309,l),
(196,367,l),
(196,384,l),
(691,439,l),
(691,598,l),
(196,664,l),
(196,683,l),
(805,733,l),
(805,18,l),
(196,68,l)
);
}
);
userData = {
public.verticalOrigin = "880";
};
vertWidth = 1000;
width = 1000;
}
);
unicode = 8707;
}
{
glyphname = gradient;
layers = (
{
layerId = master01;
shapes = (
{
closed = 1;
nodes = (
(849,759,l),
(501,-5,l),
(158,759,l)
);
},
{
closed = 1;
nodes = (
(333,644,l),
(524,218,l),
(713,644,l)
);
}
);
userData = {
public.verticalOrigin = "880";
};
vertWidth = 1000;
width = 1000;
}
);
unicode = 8711;
}
{
glyphname = element;
layers = (
{
layerId = master01;
shapes = (
{
closed = 1;
nodes = (
(832,50,l),
(832,164,l),
(443,164,ls),
(358,164,o),
(292,226,o),
(275,317,c),
(832,317,l),
(832,432,l),
(275,432,l),
(293,523,o),
(358,583,o),
(442,583,cs),
(832,583,l),
(832,698,l),
(433,698,ls),
(262,698,o),
(145,545,o),
(145,374,cs),
(145,185,o),
(265,50,o),
(435,50,cs)
);
}
);
userData = {
public.verticalOrigin = "880";
};
vertWidth = 1000;
width = 1000;
}
);
unicode = 8712;
}
{
glyphname = suchthat;
layers = (
{
layerId = master01;
shapes = (
{
closed = 1;
nodes = (
(168,164,l),
(557,164,l),
(621,164,o),
(712,249,o),
(725,317,q),
(168,317,l),
(168,432,l),
(725,432,l),
(712,500,o),
(621,583,o),
(558,583,q),
(168,583,l),
(168,698,l),
(567,698,l),
(631,698,o),
(737,646,o),
(813,555,o),
(855,438,o),
(855,374,q),
(855,280,o),
(781,133,o),
(650,50,o),
(565,50,q),
(168,50,l)
);
}
);
userData = {
public.verticalOrigin = "880";
};
vertWidth = 1000;
width = 1000;
}
);
unicode = 8715;
}
{
glyphname = radical;
layers = (
{
layerId = master01;
shapes = (
{
closed = 1;
nodes = (
(707,688,l),
(950,756,l),
(950,770,l),
(595,814,l),
(375,179,l),
(196,347,l),
(62,170,l),
(71,165,l),
(172,226,l),
(369,-74,l)
);
}
);
userData = {
public.verticalOrigin = "880";
};
vertWidth = 1000;
width = 1000;
}
);
unicode = 8730;
}
{
glyphname = proportional;
layers = (
{
layerId = master01;
shapes = (
{
closed = 1;
nodes = (
(882,243,o),
(819,184,o),
(743,147,o),
(705,147,q),
(700,147,l),
(635,149,o),
(545,213,o),
(522,252,q),
(505,225,o),
(446,177,o),
(376,147,o),
(343,147,q),
(303,147,o),
(222,181,o),
(154,242,o),
(112,324,o),
(112,373,q),
(112,428,o),
(153,512,o),
(221,570,o),
(301,600,o),
(339,600,q),
(377,600,o),
(450,569,o),
(507,522,o),
(523,498,q),
(537,523,o),
(590,570,o),
(660,600,o),
(700,600,q),
(757,600,o),
(852,569,o),
(886,543,q),
(807,419,l),
(776,472,o),
(725,519,o),
(694,519,q),
(666,519,o),
(623,473,o),
(594,413,o),
(587,391,q),
(582,374,l),
(588,354,l),
(606,308,o),
(666,239,o),
(694,231,q),
(716,224,o),
(741,224,q),
(779,224,o),
(854,256,o),
(890,285,q),
(900,276,l)
);
},
{
closed = 1;
nodes = (
(460,376,o),
(460,386,o),
(458,390,q),
(449,419,o),
(409,478,o),
(358,519,o),
(329,519,q),
(297,519,o),
(255,475,o),
(235,409,o),
(235,374,q),
(235,345,o),
(264,278,o),
(315,231,o),
(349,231,q),
(377,231,o),
(417,270,o),
(446,328,o),
(456,355,q),
(458,361,o),
(460,371,o),
(461,374,q)
);
}
);
userData = {
public.verticalOrigin = "880";
};
vertWidth = 1000;
width = 1000;
}
);
unicode = 8733;
}
{
glyphname = infinity;
layers = (
{
layerId = master01;
shapes = (
{
closed = 1;
nodes = (
(483,225,o),
(424,177,o),
(354,147,o),
(321,147,q),
(281,147,o),
(200,181,o),
(132,242,o),
(90,324,o),
(90,373,q),
(90,421,o),
(135,504,o),
(206,566,o),
(286,600,o),
(321,600,q),
(358,600,o),
(429,569,o),
(486,522,o),
(501,498,q),
(515,522,o),
(571,569,o),
(643,600,o),
(679,600,q),
(715,600,o),
(796,566,o),
(866,504,o),
(910,421,o),
(910,373,q),
(910,324,o),
(868,242,o),
(799,181,o),
(718,147,o),
(679,147,q),
(644,147,o),
(572,178,o),
(515,227,o),
(500,252,q)
);
},
{
closed = 1;
nodes = (
(438,376,o),
(438,386,o),
(436,390,q),
(427,419,o),
(387,478,o),
(336,519,o),
(307,519,q),
(273,519,o),
(231,472,o),
(213,405,o),
(213,374,q),
(213,345,o),
(242,278,o),
(293,231,o),
(327,231,q),
(355,231,o),
(395,270,o),
(424,328,o),
(434,355,q),
(436,361,o),
(438,371,o),
(439,374,q)
);
},
{
closed = 1;
nodes = (
(577,329,o),
(615,272,o),
(666,231,o),
(693,231,q),
(727,231,o),
(768,278,o),
(787,345,o),
(787,374,q),
(787,405,o),
(759,472,o),
(708,519,o),
(673,519,q),
(645,519,o),
(601,473,o),
(573,413,o),
(566,391,q),
(561,374,l),
(567,354,l)
);
}
);
userData = {
public.verticalOrigin = "880";
};
vertWidth = 1000;
width = 1000;
}
);
unicode = 8734;
}
{
glyphname = orthogonal;
layers = (
{
layerId = master01;
shapes = (
{
closed = 1;
nodes = (
(175,703,l),
(339,703,l),
(339,184,l),
(882,184,l),
(882,167,l),
(212,27,l)
);
}
);
userData = {
public.verticalOrigin = "880";
};
vertWidth = 1000;
width = 1000;
}
);
unicode = 8735;
}
{
glyphname = logicaland;
layers = (
{
layerId = master01;
shapes = (
{
closed = 1;
nodes = (
(501,457,l),
(136,30,l),
(128,35,l),
(501,746,l),
(875,35,l),
(867,30,l)
);
}
);
userData = {
public.verticalOrigin = "880";
};
vertWidth = 1000;
width = 1000;
}
);
unicode = 8743;
}
{
glyphname = logicalor;
layers = (
{
layerId = master01;
shapes = (
{
closed = 1;
nodes = (
(135,737,l),
(501,310,l),
(866,737,l),
(874,732,l),
(501,21,l),
(127,732,l)
);
}
);
userData = {
public.verticalOrigin = "880";
};
vertWidth = 1000;
width = 1000;
}
);
unicode = 8744;
}
{
glyphname = intersection;
layers = (
{
layerId = master01;
shapes = (
{
closed = 1;
nodes = (
(824,45,l),
(824,455,ls),
(824,626,o),
(671,743,o),
(500,743,cs),
(311,743,o),
(176,623,o),
(176,453,cs),
(176,45,l),
(293,45,l),
(293,439,ls),
(293,543,o),
(386,624,o),
(500,624,cs),
(614,624,o),
(707,544,o),
(707,439,cs),
(707,45,l)
);
}
);
userData = {
public.verticalOrigin = "880";
};
vertWidth = 1000;
width = 1000;
}
);
unicode = 8745;
}
{
glyphname = union;
layers = (
{
layerId = master01;
shapes = (
{
closed = 1;
nodes = (
(707,325,ls),
(707,220,o),
(614,141,o),
(500,141,cs),
(386,141,o),
(293,221,o),
(293,326,cs),
(293,719,l),
(176,719,l),
(176,311,ls),
(176,142,o),
(311,21,o),
(500,21,cs),
(671,21,o),
(824,138,o),
(824,309,cs),
(824,719,l),
(707,719,l)
);
}
);
userData = {
public.verticalOrigin = "880";
};
vertWidth = 1000;
width = 1000;
}
);
unicode = 8746;
}
{
glyphname = integral;
layers = (
{
layerId = master01;
shapes = (
{
closed = 1;
nodes = (
(249,9,o),
(301,0,o),
(324,0,q),
(368,0,o),
(390,15,q),
(404,25,o),
(420,100,o),
(428,208,o),
(432,329,o),
(435,385,q),
(443,573,o),
(489,783,o),
(547,811,q),
(568,822,o),
(612,830,o),
(634,830,q),
(672,830,o),
(740,810,o),
(788,786,o),
(797,779,q),
(731,672,l),
(709,705,o),
(650,750,o),
(626,750,q),
(615,750,o),
(608,746,q),
(594,739,o),
(581,661,o),
(578,548,o),
(577,423,o),
(574,368,q),
(569,251,o),
(547,74,o),
(502,-37,o),
(460,-56,q),
(444,-63,o),
(412,-70,o),
(396,-70,q),
(356,-70,o),
(283,-40,o),
(229,-4,o),
(217,5,q),
(225,18,l)
);
}
);
userData = {
public.verticalOrigin = "880";
};
vertWidth = 1000;
width = 1000;
}
);
unicode = 8747;
}
{
glyphname = dblintegral;
layers = (
{
layerId = master01;
shapes = (
{
closed = 1;
nodes = (
(408,9,o),
(460,0,o),
(483,0,q),
(527,0,o),
(549,15,q),
(563,25,o),
(579,100,o),
(587,208,o),
(591,329,o),
(594,385,q),
(602,573,o),
(648,783,o),
(706,811,q),
(727,822,o),
(770,830,o),
(791,830,q),
(828,830,o),
(891,810,o),
(937,786,o),
(946,779,q),
(880,672,l),
(858,705,o),
(799,750,o),
(775,750,q),
(764,750,o),
(757,746,q),
(743,739,o),
(730,661,o),
(727,548,o),
(726,423,o),
(723,368,q),
(718,251,o),
(696,74,o),
(651,-37,o),
(609,-56,q),
(593,-63,o),
(562,-70,o),
(546,-70,q),
(508,-70,o),
(439,-40,o),
(388,-4,o),
(376,5,q),
(384,18,l)
);
},
{
closed = 1;
nodes = (
(90,9,o),
(142,0,o),
(165,0,q),
(209,0,o),
(231,15,q),
(245,25,o),
(261,100,o),
(269,208,o),
(273,329,o),
(276,385,q),
(284,573,o),
(330,783,o),
(388,811,q),
(409,822,o),
(452,830,o),
(473,830,q),
(510,830,o),
(573,810,o),
(619,786,o),
(628,779,q),
(562,672,l),
(540,705,o),
(481,750,o),
(457,750,q),
(446,750,o),
(439,746,q),
(425,739,o),
(412,661,o),
(409,548,o),
(408,423,o),
(405,368,q),
(400,251,o),
(378,74,o),
(333,-37,o),
(291,-56,q),
(275,-63,o),
(244,-70,o),
(228,-70,q),
(190,-70,o),
(121,-40,o),
(70,-4,o),
(58,5,q),
(66,18,l)
);
}
);
userData = {
public.verticalOrigin = "880";
};
vertWidth = 1000;
width = 1000;
}
);
unicode = 8748;
}
{
glyphname = tripleintegral;
layers = (
{
layerId = master01;
shapes = (
{
closed = 1;
nodes = (
(292,8,o),
(329,0,o),
(345,0,q),
(360,0,o),
(388,7,o),
(398,15,q),
(412,25,o),
(427,100,o),
(435,208,o),
(439,329,o),
(441,385,q),
(449,573,o),
(492,783,o),
(547,811,q),
(568,822,o),
(607,831,o),
(624,831,q),
(667,831,o),
(726,793,o),
(740,779,q),
(678,672,l),
(659,708,o),
(629,751,o),
(612,751,q),
(604,751,o),
(596,746,q),
(583,739,o),
(570,661,o),
(567,548,o),
(566,423,o),
(563,368,q),
(558,251,o),
(538,74,o),
(495,-37,o),
(455,-56,q),
(440,-63,o),
(411,-70,o),
(397,-70,q),
(365,-70,o),
(313,-41,o),
(277,-5,o),
(268,5,q),
(275,18,l)
);
},
{
closed = 1;
nodes = (
(34,8,o),
(70,0,o),
(86,0,q),
(101,0,o),
(128,7,o),
(138,15,q),
(152,25,o),
(167,100,o),
(175,208,o),
(179,329,o),
(181,385,q),
(189,573,o),
(232,783,o),
(287,811,q),
(327,831,o),
(363,831,q),
(406,831,o),
(466,792,o),
(480,779,q),
(418,672,l),
(399,707,o),
(368,750,o),
(351,750,q),
(343,750,o),
(336,746,q),
(323,739,o),
(310,661,o),
(307,548,o),
(306,423,o),
(303,368,q),
(298,251,o),
(278,74,o),
(235,-37,o),
(195,-56,q),
(164,-71,o),
(135,-71,q),
(104,-71,o),
(53,-43,o),
(18,-7,o),
(8,5,q),
(15,18,l)
);
},
{
closed = 1;
nodes = (
(570,0,o),
(603,0,q),
(633,0,o),
(654,15,q),
(668,25,o),
(683,100,o),
(691,208,o),
(695,329,o),
(697,385,q),
(705,573,o),
(748,783,o),
(803,811,q),
(843,831,o),
(879,831,q),
(923,831,o),
(983,792,o),
(996,779,q),
(934,672,l),
(915,708,o),
(884,750,o),
(867,750,q),
(859,750,o),
(852,746,q),
(839,739,o),
(826,661,o),
(823,548,o),
(822,423,o),
(819,368,q),
(814,251,o),
(794,74,o),
(751,-37,o),
(711,-56,q),
(695,-63,o),
(666,-70,o),
(652,-70,q),
(620,-70,o),
(568,-42,o),
(533,-6,o),
(524,5,q),
(531,18,l)
);
}
);
userData = {
public.verticalOrigin = "880";
};
vertWidth = 1000;
width = 1000;
}
);
unicode = 8749;
}
{
glyphname = contourintegral;
layers = (
{
layerId = master01;
shapes = (
{
closed = 1;
nodes = (
(249,9,o),
(301,0,o),
(324,0,q),
(368,0,o),
(390,15,q),
(405,26,o),
(421,106,o),
(425,161,q),
(361,184,o),
(277,298,o),
(277,371,q),
(277,424,o),
(322,515,o),
(401,577,o),
(450,588,q),
(462,682,o),
(507,792,o),
(547,811,q),
(568,822,o),
(612,830,o),
(634,830,q),
(672,830,o),
(740,810,o),
(788,786,o),
(797,779,q),
(731,672,l),
(709,705,o),
(650,750,o),
(626,750,q),
(615,750,o),
(608,746,q),
(592,738,o),
(581,644,o),
(579,580,q),
(642,556,o),
(723,442,o),
(723,371,q),
(723,320,o),
(680,231,o),
(605,168,o),
(557,155,q),
(546,70,o),
(501,-37,o),
(460,-56,q),
(444,-63,o),
(412,-70,o),
(396,-70,q),
(356,-70,o),
(283,-40,o),
(229,-4,o),
(217,5,q),
(225,18,l)
);
},
{
closed = 1;
nodes = (
(437,421,o),
(441,486,o),
(443,516,q),
(400,499,o),
(344,421,o),
(344,371,q),
(344,326,o),
(391,252,o),
(429,232,q),
(435,385,l)
);
},
{
closed = 1;
nodes = (
(577,433,o),
(574,368,q),
(571,294,o),
(565,229,q),
(606,248,o),
(656,324,o),
(656,371,q),
(656,415,o),
(612,487,o),
(577,506,q)
);
}
);
userData = {
public.verticalOrigin = "880";
};
vertWidth = 1000;
width = 1000;
}
);
unicode = 8750;
}
{
glyphname = therefore;
layers = (
{
layerId = master01;
shapes = (
{
closed = 1;
nodes = (
(633,658,l),
(470,494,l),
(390,700,l)
);
},
{
closed = 1;
nodes = (
(659,202,l),
(902,160,l),
(739,-3,l)
);
},
{
closed = 1;
nodes = (
(121,202,l),
(364,160,l),
(201,-3,l)
);
}
);
userData = {
public.verticalOrigin = "880";
};
vertWidth = 1000;
width = 1000;
}
);
unicode = 8756;
}
{
glyphname = reversedtilde;
layers = (
{
layerId = master01;
shapes = (
{
closed = 1;
nodes = (
(599,191,l),
(659,191,o),
(743,225,o),
(787,305,o),
(787,374,q),
(787,405,o),
(764,472,o),
(718,519,o),
(683,519,q),
(658,519,o),
(617,477,o),
(586,417,o),
(576,391,q),
(561,351,o),
(522,265,o),
(462,192,o),
(374,147,o),
(311,147,q),
(252,147,o),
(149,206,o),
(85,308,o),
(85,373,q),
(85,421,o),
(126,504,o),
(193,566,o),
(272,600,o),
(311,600,q),
(352,600,o),
(441,573,o),
(477,548,q),
(398,424,l),
(379,463,o),
(321,519,o),
(289,519,q),
(267,519,o),
(232,475,o),
(213,409,o),
(213,374,q),
(213,345,o),
(237,278,o),
(283,231,o),
(317,231,q),
(345,231,o),
(384,267,o),
(413,324,o),
(424,355,q),
(455,437,o),
(526,546,o),
(622,600,o),
(689,600,q),
(730,600,o),
(810,566,o),
(875,504,o),
(915,421,o),
(915,373,q),
(915,305,o),
(854,210,o),
(750,161,o),
(687,161,q),
(642,161,o),
(592,175,q),
(595,191,l)
);
}
);
userData = {
public.verticalOrigin = "880";
};
vertWidth = 1000;
width = 1000;
}
);
unicode = 8765;
}
{
glyphname = approxequalorimage;
layers = (
{
layerId = master01;
shapes = (
{
closed = 1;
nodes = (
(505,722,l),
(342,558,l),
(262,764,l)
);
},
{
closed = 1;
nodes = (
(147,566,l),
(872,495,l),
(872,486,l),
(147,413,l)
);
},
{
closed = 1;
nodes = (
(147,340,l),
(872,269,l),
(872,260,l),
(147,187,l)
);
},
{
closed = 1;
nodes = (
(531,176,l),
(774,134,l),
(611,-29,l)
);
}
);
userData = {
public.verticalOrigin = "880";
};
vertWidth = 1000;
width = 1000;
}
);
unicode = 8786;
}
{
glyphname = notequal;
layers = (
{
layerId = master01;
shapes = (
{
closed = 1;
nodes = (
(261,9,l),
(246,18,l),
(332,195,l),
(147,177,l),
(147,330,l),
(385,306,l),
(456,454,l),
(147,423,l),
(147,576,l),
(499,541,l),
(585,720,l),
(741,639,l),
(655,526,l),
(872,505,l),
(872,496,l),
(612,470,l),
(480,297,l),
(872,259,l),
(872,250,l),
(409,203,l)
);
}
);
userData = {
public.verticalOrigin = "880";
};
vertWidth = 1000;
width = 1000;
}
);
unicode = 8800;
}
{
glyphname = equivalence;
layers = (
{
layerId = master01;
shapes = (
{
closed = 1;
nodes = (
(135,648,l),
(880,577,l),
(880,568,l),
(135,495,l)
);
},
{
closed = 1;
nodes = (
(135,455,l),
(880,384,l),
(880,375,l),
(135,302,l)
);
},
{
closed = 1;
nodes = (
(135,262,l),
(880,191,l),
(880,182,l),
(135,109,l)
);
}
);
userData = {
public.verticalOrigin = "880";
};
vertWidth = 1000;
width = 1000;
}
);
unicode = 8801;
}
{
glyphname = lessoverequal;
layers = (
{
layerId = master01;
shapes = (
{
closed = 1;
nodes = (
(163,599,l),
(804,797,l),
(807,788,l),
(343,535,l),
(816,307,l),
(812,298,l),
(163,474,l)
);
},
{
closed = 1;
nodes = (
(147,301,l),
(872,235,l),
(872,226,l),
(147,158,l)
);
},
{
closed = 1;
nodes = (
(147,128,l),
(872,62,l),
(872,53,l),
(147,-14,l)
);
}
);
userData = {
public.verticalOrigin = "880";
};
vertWidth = 1000;
width = 1000;
}
);
unicode = 8806;
}
{
glyphname = greateroverequal;
layers = (
{
layerId = master01;
shapes = (
{
closed = 1;
nodes = (
(183,307,l),
(656,535,l),
(191,789,l),
(195,797,l),
(836,599,l),
(836,474,l),
(187,298,l)
);
},
{
closed = 1;
nodes = (
(127,235,l),
(852,301,l),
(852,158,l),
(127,226,l)
);
},
{
closed = 1;
nodes = (
(127,62,l),
(852,128,l),
(852,-15,l),
(127,53,l)
);
}
);
userData = {
public.verticalOrigin = "880";
};
vertWidth = 1000;
width = 1000;
}
);
unicode = 8807;
}
{
glyphname = muchless;
layers = (
{
layerId = master01;
shapes = (
{
closed = 1;
nodes = (
(86,375,l),
(601,774,l),
(610,766,l),
(298,375,l),
(610,-16,l),
(601,-23,l)
);
},
{
closed = 1;
nodes = (
(378,375,l),
(882,765,l),
(890,757,l),
(585,375,l),
(890,-7,l),
(882,-14,l)
);
}
);
userData = {
public.verticalOrigin = "880";
};
vertWidth = 1000;
width = 1000;
}
);
unicode = 8810;
}
{
glyphname = subset;
layers = (
{
layerId = master01;
shapes = (
{
closed = 1;
nodes = (
(350,50,o),
(219,133,o),
(145,280,o),
(145,374,q),
(145,438,o),
(187,554,o),
(263,645,o),
(369,697,o),
(433,697,q),
(832,697,l),
(832,580,l),
(446,580,l),
(395,580,o),
(317,523,o),
(273,429,o),
(273,374,q),
(273,320,o),
(316,225,o),
(394,167,o),
(447,167,q),
(832,167,l),
(832,50,l),
(435,50,l)
);
}
);
userData = {
public.verticalOrigin = "880";
};
vertWidth = 1000;
width = 1000;
}
);
unicode = 8834;
}
{
glyphname = superset;
layers = (
{
layerId = master01;
shapes = (
{
closed = 1;
nodes = (
(168,167,l),
(553,167,l),
(606,167,o),
(684,225,o),
(727,320,o),
(727,374,q),
(727,429,o),
(683,523,o),
(606,580,o),
(554,580,q),
(168,580,l),
(168,697,l),
(567,697,l),
(631,697,o),
(737,645,o),
(813,554,o),
(855,438,o),
(855,374,q),
(855,280,o),
(781,133,o),
(650,50,o),
(565,50,q),
(168,50,l)
);
}
);
userData = {
public.verticalOrigin = "880";
};
vertWidth = 1000;
width = 1000;
}
);
unicode = 8835;
}
{
glyphname = reflexsubset;
layers = (
{
layerId = master01;
shapes = (
{
closed = 1;
nodes = (
(335,221,o),
(217,281,o),
(145,399,o),
(145,487,q),
(145,566,o),
(216,685,o),
(333,752,o),
(402,752,q),
(831,752,l),
(831,637,l),
(402,637,l),
(344,637,o),
(260,563,o),
(260,487,q),
(260,434,o),
(300,367,o),
(365,336,o),
(402,336,q),
(831,336,l),
(831,221,l),
(403,221,l)
);
},
{
closed = 1;
nodes = (
(177,124,l),
(834,124,l),
(834,9,l),
(177,9,l)
);
}
);
userData = {
public.verticalOrigin = "880";
};
vertWidth = 1000;
width = 1000;
}
);
unicode = 8838;
}
{
glyphname = reflexsuperset;
layers = (
{
layerId = master01;
shapes = (
{
closed = 1;
nodes = (
(595,221,ls),
(732,221,o),
(853,311,o),
(853,487,cs),
(853,645,o),
(735,752,o),
(596,752,cs),
(166,752,l),
(166,637,l),
(596,637,ls),
(672,637,o),
(738,588,o),
(738,487,cs),
(738,380,o),
(669,336,o),
(595,336,cs),
(166,336,l),
(166,221,l)
);
},
{
closed = 1;
nodes = (
(820,9,l),
(820,124,l),
(163,124,l),
(163,9,l)
);
}
);
userData = {
public.verticalOrigin = "880";
};
vertWidth = 1000;
width = 1000;
}
);
unicode = 8839;
}
{
glyphname = uptack;
layers = (
{
layerId = master01;
shapes = (
{
closed = 1;
nodes = (
(147,190,l),
(434,162,l),
(422,703,l),
(578,703,l),
(553,150,l),
(872,119,l),
(872,110,l),
(147,37,l)
);
}
);
userData = {
public.verticalOrigin = "880";
};
vertWidth = 1000;
width = 1000;
}
);
unicode = 8869;
}
{
glyphname = righttriangle;
layers = (
{
layerId = master01;
shapes = (
{
closed = 1;
nodes = (
(840,45,l),
(840,800,l),
(128,45,l)
);
},
{
closed = 1;
nodes = (
(711,522,l),
(711,163,l),
(378,163,l)
);
}
);
userData = {
public.verticalOrigin = "880";
};
vertWidth = 1000;
width = 1000;
}
);
unicode = 8895;
}
{
glyphname = arc;
layers = (
{
layerId = master01;
shapes = (
{
closed = 1;
nodes = (
(950,579,l),
(799,743,o),
(619,825,o),
(498,825,cs),
(378,825,o),
(201,746,o),
(47,579,c),
(53,569,l),
(224,657,o),
(377,693,o),
(499,693,cs),
(618,693,o),
(769,659,o),
(944,569,c)
);
}
);
vertOrigin = -679;
vertWidth = 1000;
width = 1000;
}
);
unicode = 8978;
}
{
glyphname = angleLeft;
layers = (
{
layerId = master01;
shapes = (
{
closed = 1;
nodes = (
(950,-73,l),
(761,380,l),
(950,833,l),
(935,838,l),
(591,380,l),
(935,-77,l)
);
}
);
userData = {
public.verticalOrigin = "880";
};
vertWidth = 1000;
width = 1000;
}
);
unicode = (9001,12296);
}
{
glyphname = angleRight;
layers = (
{
layerId = master01;
shapes = (
{
closed = 1;
nodes = (
(239,380,l),
(50,833,l),
(65,838,l),
(409,380,l),
(65,-77,l),
(50,-72,l)
);
}
);
userData = {
public.verticalOrigin = "880";
};
vertWidth = 1000;
width = 1000;
}
);
unicode = (9002,12297);
}
{
glyphname = leftcurlybracketupperhook;
layers = (
{
layerId = master01;
shapes = (
{
closed = 1;
nodes = (
(560,-119,l),
(561,-87,o),
(561,-56,o),
(561,-26,cs),
(561,112,o),
(554,240,o),
(546,376,cs),
(545,384,o),
(545,393,o),
(545,402,cs),
(545,460,o),
(562,524,o),
(661,555,c),
(659,564,l),
(468,551,o),
(426,497,o),
(426,414,cs),
(426,404,o),
(426,395,o),
(427,385,cs),
(435,292,o),
(442,148,o),
(442,8,cs),
(442,-35,o),
(441,-78,o),
(440,-119,c)
);
}
);
userData = {
public.verticalOrigin = "880";
};
vertWidth = 1000;
width = 1000;
}
);
unicode = 9127;
}
{
glyphname = leftcurlybracketmiddlepiece;
layers = (
{
layerId = master01;
shapes = (
{
closed = 1;
nodes = (
(440,231,l),
(440,292,o),
(399,362,o),
(346,380,q),
(399,399,o),
(440,469,o),
(440,527,q),
(440,880,l),
(560,880,l),
(562,848,o),
(565,749,o),
(568,640,o),
(570,545,o),
(570,516,q),
(570,494,l),
(569,449,o),
(534,385,o),
(501,379,q),
(534,373,o),
(569,309,o),
(570,264,q),
(570,238,l),
(570,208,o),
(568,113,o),
(565,7,o),
(562,-89,o),
(560,-119,q),
(440,-119,l)
);
}
);
userData = {
public.verticalOrigin = "880";
};
vertWidth = 1000;
width = 1000;
}
);
unicode = 9128;
}
{
glyphname = leftcurlybracketlowerhook;
layers = (
{
layerId = master01;
shapes = (
{
closed = 1;
nodes = (
(661,205,l),
(562,236,o),
(545,300,o),
(545,358,cs),
(545,367,o),
(545,376,o),
(546,384,cs),
(554,520,o),
(561,648,o),
(561,787,cs),
(561,817,o),
(561,848,o),
(560,880,c),
(440,880,l),
(441,839,o),
(442,796,o),
(442,752,cs),
(442,612,o),
(435,468,o),
(427,375,cs),
(426,365,o),
(426,356,o),
(426,346,cs),
(426,263,o),
(468,209,o),
(659,196,c)
);
}
);
userData = {
public.verticalOrigin = "880";
};
vertWidth = 1000;
width = 1000;
}
);
unicode = 9129;
}
